<svg id="Слой_1" data-name="Слой 1" xmlns="http://www.w3.org/2000/svg" width="80.43356mm" height="29.63341mm" viewBox="0 0 228.00063 84.00023">
  <defs>
    <style>
      .cls-1 {
        fill: #207a00;
      }

      .cls-2, .cls-4, .cls-5 {
        fill: none;
      }

      .cls-2 {
        stroke: #b0b0b0;
        stroke-miterlimit: 10;
      }

      .cls-2, .cls-4 {
        stroke-width: 2px;
      }

      .cls-3 {
        fill: #fff;
      }

      .cls-4 {
        stroke: #fff;
      }

      .cls-5 {
        stroke: #207a00;
      }
    </style>
  </defs>
  <title>mjal2</title>
  <g>
    <path class="cls-1" d="M227.00063,46.62777H1V9.31516A3.69835,3.69835,0,0,1,4.68751,5.62765H223.31312a3.69835,3.69835,0,0,1,3.68751,3.68751v37.3126Z" transform="translate(0 -4.62765)"/>
    <path class="cls-2" d="M227.00063,46.62777H1V9.31516A3.69835,3.69835,0,0,1,4.68751,5.62765H223.31312a3.69835,3.69835,0,0,1,3.68751,3.68751v37.3126Z" transform="translate(0 -4.62765)"/>
  </g>
  <path class="cls-2" d="M1,42.00011H227.00063a0,0,0,0,1,0,0V79.31519a3.685,3.685,0,0,1-3.685,3.685H4.685A3.685,3.685,0,0,1,1,79.31519V42.00011a0,0,0,0,1,0,0Z"/>
  <g>
    <g>
      <path class="cls-3" d="M68.52979,35.44141V32.43262H70.959V17.84717h-2.4292V14.88428h9.0957l4.186,15.28564h0.05176l4.12158-15.28564h9.1084v2.96289H92.65137V32.43262h2.44189v3.00879H86.41113V32.43262h2.27393V17.84717H88.6333L83.65918,35.44141H79.42139L74.44727,17.84717H74.34375V32.43262h2.39014v3.00879h-8.2041Z" transform="translate(0 -4.62765)"/>
      <path class="cls-3" d="M113.34473,14.88428v2.96289h-2.22217V29.18262a8.33137,8.33137,0,0,1-1.28564,4.80615q-1.2854,1.8772-5.49707,1.87744-3.33325,0-4.57373-1.65381a8.17662,8.17662,0,0,1-1.24023-4.938V28.57373h4.06982v0.60889a6.88531,6.88531,0,0,0,.42627,2.71582,1.86337,1.86337,0,0,0,1.91211.959q1.95044,0,1.95068-2.917V17.84717H103.7583V14.88428h9.58643Z" transform="translate(0 -4.62765)"/>
      <path class="cls-3" d="M116.14453,35.44141V32.43262h1.69238l6.93848-17.54834h5.07715l6.9248,17.54834h1.6416v3.00879h-8.46289V32.43262H132.501l-1.33008-3.2959h-8.15234l-1.2666,3.2959h2.49316v3.00879h-8.10059Zm7.93262-9.314h5.98242l-2.959-7.855Z" transform="translate(0 -4.62765)"/>
      <path class="cls-3" d="M141.38672,35.44141V32.43262h2.377V17.84717h-2.377V14.88428h9.72852v2.96289h-3.165V32.43262h6.44629V28.24072H158.002v7.20068H141.38672Z" transform="translate(0 -4.62765)"/>
    </g>
    <g>
      <path class="cls-4" d="M68.52979,35.44141V32.43262H70.959V17.84717h-2.4292V14.88428h9.0957l4.186,15.28564h0.05176l4.12158-15.28564h9.1084v2.96289H92.65137V32.43262h2.44189v3.00879H86.41113V32.43262h2.27393V17.84717H88.6333L83.65918,35.44141H79.42139L74.44727,17.84717H74.34375V32.43262h2.39014v3.00879h-8.2041Z" transform="translate(0 -4.62765)"/>
      <path class="cls-4" d="M113.34473,14.88428v2.96289h-2.22217V29.18262a8.33137,8.33137,0,0,1-1.28564,4.80615q-1.2854,1.8772-5.49707,1.87744-3.33325,0-4.57373-1.65381a8.17662,8.17662,0,0,1-1.24023-4.938V28.57373h4.06982v0.60889a6.88531,6.88531,0,0,0,.42627,2.71582,1.86337,1.86337,0,0,0,1.91211.959q1.95044,0,1.95068-2.917V17.84717H103.7583V14.88428h9.58643Z" transform="translate(0 -4.62765)"/>
      <path class="cls-4" d="M116.14453,35.44141V32.43262h1.69238l6.93848-17.54834h5.07715l6.9248,17.54834h1.6416v3.00879h-8.46289V32.43262H132.501l-1.33008-3.2959h-8.15234l-1.2666,3.2959h2.49316v3.00879h-8.10059Zm7.93262-9.314h5.98242l-2.959-7.855Z" transform="translate(0 -4.62765)"/>
      <path class="cls-4" d="M141.38672,35.44141V32.43262h2.377V17.84717h-2.377V14.88428h9.72852v2.96289h-3.165V32.43262h6.44629V28.24072H158.002v7.20068H141.38672Z" transform="translate(0 -4.62765)"/>
    </g>
    <g>
      <path class="cls-5" d="M68.52979,35.44141V32.43262H70.959V17.84717h-2.4292V14.88428h9.0957l4.186,15.28564h0.05176l4.12158-15.28564h9.1084v2.96289H92.65137V32.43262h2.44189v3.00879H86.41113V32.43262h2.27393V17.84717H88.6333L83.65918,35.44141H79.42139L74.44727,17.84717H74.34375V32.43262h2.39014v3.00879h-8.2041Z" transform="translate(0 -4.62765)"/>
      <path class="cls-5" d="M113.34473,14.88428v2.96289h-2.22217V29.18262a8.33137,8.33137,0,0,1-1.28564,4.80615q-1.2854,1.8772-5.49707,1.87744-3.33325,0-4.57373-1.65381a8.17662,8.17662,0,0,1-1.24023-4.938V28.57373h4.06982v0.60889a6.88531,6.88531,0,0,0,.42627,2.71582,1.86337,1.86337,0,0,0,1.91211.959q1.95044,0,1.95068-2.917V17.84717H103.7583V14.88428h9.58643Z" transform="translate(0 -4.62765)"/>
      <path class="cls-5" d="M116.14453,35.44141V32.43262h1.69238l6.93848-17.54834h5.07715l6.9248,17.54834h1.6416v3.00879h-8.46289V32.43262H132.501l-1.33008-3.2959h-8.15234l-1.2666,3.2959h2.49316v3.00879h-8.10059Zm7.93262-9.314h5.98242l-2.959-7.855Z" transform="translate(0 -4.62765)"/>
      <path class="cls-5" d="M141.38672,35.44141V32.43262h2.377V17.84717h-2.377V14.88428h9.72852v2.96289h-3.165V32.43262h6.44629V28.24072H158.002v7.20068H141.38672Z" transform="translate(0 -4.62765)"/>
    </g>
  </g>
  <g id="_Группа_" data-name="&lt;Группа&gt;">
    <path class="cls-1" d="M58.01416,52.63477l3.106,8.56445a0.76833,0.76833,0,0,0,.34082.55371,0.52413,0.52413,0,0,0,.2793-0.3916l2.85693-7.6748a9.52707,9.52707,0,0,1,.57764-1.36719,0.52244,0.52244,0,0,1,.45557-0.27734,2.925,2.925,0,0,1,.33447.0293,3.63618,3.63618,0,0,0,.45605.02832,5.39581,5.39581,0,0,0,.76709-0.06738,3.328,3.328,0,0,1,.34961-0.02832,0.23812,0.23812,0,0,1,.26611.27246,0.21233,0.21233,0,0,1-.20508.24414,1.16232,1.16232,0,0,0-.99658.60059,4.12734,4.12734,0,0,0-.28418,1.80371l0.00732,0.64941,0.18213,5.93555,0.00732,0.3916a4.01737,4.01737,0,0,0,.36768,1.95117,1.54683,1.54683,0,0,0,1.209.749,0.24913,0.24913,0,0,1,.2124.28223q0,0.26221-.51611.2627a3.98618,3.98618,0,0,1-.48584-0.04785,11.44287,11.44287,0,0,0-1.314-.125,7.715,7.715,0,0,0-1.32861.0957,4.49846,4.49846,0,0,1-.68359.0957,0.19507,0.19507,0,0,1-.18994-0.24316,0.27646,0.27646,0,0,1,.22021-0.26367,1.04875,1.04875,0,0,0,.60986-0.48633,2.17393,2.17393,0,0,0,.17822-0.99316c0-.21-0.00244-0.35937-0.00732-0.44922l-0.22021-6.33887q-0.00732-.25781-0.09863-0.25781a0.83185,0.83185,0,0,0-.31152.52637l-2.85693,7.627-0.10547.28613a0.9348,0.9348,0,0,1-.36084.60254,1.9437,1.9437,0,0,1-.55713-1.05176l-0.38574-.99414-2.42725-6.82422-0.05273-.14258a0.09789,0.09789,0,0,0-.09082-0.06738c-0.08057,0-.12109.13086-0.12109,0.3916l-0.00732.30664-0.09863,4.82617-0.00781.38281,0.06836,0.89844a1.88851,1.88851,0,0,0,1.18994,1.71973,0.38337,0.38337,0,0,1,.34131.33105,0.22923,0.22923,0,0,1-.26611.252,2.91735,2.91735,0,0,1-.48584-0.04785l-0.53955-.0957a3.4724,3.4724,0,0,0-.59229-0.03809,5.05,5.05,0,0,0-1.0791.08984,1.713,1.713,0,0,1-.37988.06348,0.21607,0.21607,0,0,1-.23535-0.25293,0.263,0.263,0,0,1,.18213-0.25391,1.57888,1.57888,0,0,0,.85254-0.88281,4.6259,4.6259,0,0,0,.269-1.76074l0.20508-6.26953,0.02246-.63867a3.16989,3.16989,0,0,0-.44336-1.79883,1.39332,1.39332,0,0,0-1.2168-.6543A0.24737,0.24737,0,0,1,54.689,52.3916a0.27034,0.27034,0,0,1,.32568-0.28223q0.06812,0,.17432.00879l0.43945,0.03906Q55.74927,52.166,55.939,52.166a4.20646,4.20646,0,0,0,.69678-0.05664,6.14179,6.14179,0,0,1,.6665-0.07715A0.74973,0.74973,0,0,1,58.01416,52.63477Z" transform="translate(0 -4.62765)"/>
    <path class="cls-1" d="M73.06494,60.55859a4.10074,4.10074,0,0,0,.083-0.748A2.99278,2.99278,0,0,0,72.7832,58.249a1.07417,1.07417,0,0,0-.93652-0.60547,0.65883,0.65883,0,0,0-.73.76074,2.40265,2.40265,0,0,0,.01514.27539l0.02246,0.18066q0,0.64746-1.17334.64648a0.26939,0.26939,0,0,1-.28955-0.334,0.94826,0.94826,0,0,1,.0376-0.21094c0.01563-.06934.03076-0.15234,0.0459-0.248a1.53172,1.53172,0,0,1,.4624-0.93652,2.79154,2.79154,0,0,1,1.94043-.72656,2.43982,2.43982,0,0,1,1.96338.76367,3.13834,3.13834,0,0,1,.50049,2.02344q0,0.7251-.04541,1.82324-0.04614,1.25977-.0459,1.67969,0,0.98291.62158,0.9834a0.62054,0.62054,0,0,0,.32617-0.06738,0.4456,0.4456,0,0,1,.17432-0.06641,0.10779,0.10779,0,0,1,.106.13379,0.57518,0.57518,0,0,1-.29541.44922l-0.2959.19141-0.25732.19043a1.05982,1.05982,0,0,1-.59912.18164A1.39082,1.39082,0,0,1,73.2085,64.248a4.13947,4.13947,0,0,1-2.34229,1.13672,1.20508,1.20508,0,0,1-1.0083-.46875,2.08084,2.08084,0,0,1-.36377-1.30273,2.44535,2.44535,0,0,1,1.04395-2.20215A9.21474,9.21474,0,0,1,73.06494,60.55859Zm-0.15186.55371a1.50528,1.50528,0,0,0-1.24316.584,2.02721,2.02721,0,0,0-.59131,1.4043q0,1.26123.80371,1.26172a1.357,1.357,0,0,0,.87158-0.2959A0.83675,0.83675,0,0,0,73.03418,63.54a6.92427,6.92427,0,0,0,.07617-1.23242l0.00732-.73633v-0.2002l-0.04541-.21094A0.268,0.268,0,0,0,72.91309,61.1123Z" transform="translate(0 -4.62765)"/>
    <path class="cls-1" d="M83.73047,61.09277v1.93555a4.38568,4.38568,0,0,0,.05273.84375,0.92757,0.92757,0,0,0,.24268.42383,1.167,1.167,0,0,0,.69727.334,0.23067,0.23067,0,0,1,.23535.22949q0,0.28711-.53955.28711a2.186,2.186,0,0,1-.32666-0.03613l-0.49365-.07227a4.1349,4.1349,0,0,0-.52441-0.04492,4.75089,4.75089,0,0,0-1.15479.1123,1.35363,1.35363,0,0,1-.30371.041,0.16982,0.16982,0,0,1-.167-0.21094,0.262,0.262,0,0,1,.17432-0.23828,0.78018,0.78018,0,0,0,.44727-0.44922,3.29274,3.29274,0,0,0,.11377-1.0332V60.96a4.35036,4.35036,0,0,0-.41113-2.05957,1.24576,1.24576,0,0,0-1.12012-.75977,1.29787,1.29787,0,0,0-1.022.43848,1.66634,1.66634,0,0,0-.38818,1.14551v3.1875a2.4312,2.4312,0,0,0,.26123,1.2832,1.12206,1.12206,0,0,0,.8833.47266,0.20917,0.20917,0,0,1,.2124.21973,0.2358,0.2358,0,0,1-.26611.26758,4.46591,4.46591,0,0,1-.6001-0.04785,9.27063,9.27063,0,0,0-1.18506-.13379,5.90425,5.90425,0,0,0-1.01758.10254,2.45691,2.45691,0,0,1-.37256.05078,0.17322,0.17322,0,0,1-.18994-0.20117,0.21462,0.21462,0,0,1,.12891-0.2002,0.99173,0.99173,0,0,0,.49268-0.39648A1.99452,1.99452,0,0,0,77.69629,63.54l0.00732-.31543V59.86035l-0.00732-.37207a2.78853,2.78853,0,0,0-.10986-0.95117,0.403,0.403,0,0,0-.40576-0.2627H76.832a0.12769,0.12769,0,0,1-.11377-0.05762,0.2289,0.2289,0,0,1-.03809-0.14355,0.2745,0.2745,0,0,1,.11426-0.25293,4.08411,4.08411,0,0,1,.66943-0.24414,4.17395,4.17395,0,0,0,1.58936-.83105,0.14092,0.14092,0,0,1,.09863-0.05762q0.09082-.01025.09082,0.18164l-0.02295.47754-0.00732.54492,0.04541,0.36328a0.14006,0.14006,0,0,0,.09912.124,0.5309,0.5309,0,0,0,.24219-0.25781,2.10875,2.10875,0,0,1,1.83838-1.07031,1.86226,1.86226,0,0,1,1.76318.93848A6.69247,6.69247,0,0,1,83.73047,61.09277Z" transform="translate(0 -4.62765)"/>
    <path class="cls-1" d="M89.7876,60.55859a4.10074,4.10074,0,0,0,.083-0.748,2.99278,2.99278,0,0,0-.36475-1.56152,1.07417,1.07417,0,0,0-.93652-0.60547,0.65883,0.65883,0,0,0-.73.76074,2.40265,2.40265,0,0,0,.01514.27539L87.877,58.86035q0,0.64746-1.17334.64648a0.26939,0.26939,0,0,1-.28955-0.334,0.94826,0.94826,0,0,1,.0376-0.21094c0.01563-.06934.03076-0.15234,0.0459-0.248a1.53172,1.53172,0,0,1,.4624-0.93652,2.79154,2.79154,0,0,1,1.94043-.72656,2.43982,2.43982,0,0,1,1.96338.76367,3.13834,3.13834,0,0,1,.50049,2.02344q0,0.7251-.04541,1.82324-0.04614,1.25977-.0459,1.67969,0,0.98291.62158,0.9834a0.62054,0.62054,0,0,0,.32617-0.06738,0.4456,0.4456,0,0,1,.17432-0.06641,0.10779,0.10779,0,0,1,.106.13379,0.57518,0.57518,0,0,1-.29541.44922l-0.2959.19141-0.25732.19043a1.05982,1.05982,0,0,1-.59912.18164A1.39082,1.39082,0,0,1,89.93115,64.248a4.13947,4.13947,0,0,1-2.34229,1.13672,1.20508,1.20508,0,0,1-1.0083-.46875,2.08084,2.08084,0,0,1-.36377-1.30273,2.44535,2.44535,0,0,1,1.04395-2.20215A9.21474,9.21474,0,0,1,89.7876,60.55859Zm-0.15186.55371a1.50528,1.50528,0,0,0-1.24316.584,2.02721,2.02721,0,0,0-.59131,1.4043q0,1.26123.80371,1.26172a1.357,1.357,0,0,0,.87158-0.2959A0.83675,0.83675,0,0,0,89.75684,63.54a6.92427,6.92427,0,0,0,.07617-1.23242l0.00732-.73633v-0.2002l-0.04541-.21094A0.268,0.268,0,0,0,89.63574,61.1123Z" transform="translate(0 -4.62765)"/>
    <path class="cls-1" d="M95.875,57.05078a3.37809,3.37809,0,0,1,1.12939.21973,0.43882,0.43882,0,0,1,.3335.373L97.353,58.06348,97.39111,58.666l0.01514,0.3252a0.54958,0.54958,0,0,1,.01514.11426,0.15215,0.15215,0,0,1-.16113.18164,1.14383,1.14383,0,0,1-.3999-0.62793,1.619,1.619,0,0,0-1.35254-1.2168,0.918,0.918,0,0,0-.70264.32324,1.08652,1.08652,0,0,0-.29492.75879,1.40609,1.40609,0,0,0,.88672,1.2627l0.52344,0.2666a6.47479,6.47479,0,0,1,.90967.5498,2.14906,2.14906,0,0,1,.4624.55859,2.92882,2.92882,0,0,1,.37109,1.52832,3.056,3.056,0,0,1-.59863,1.91113,1.78656,1.78656,0,0,1-1.46289.7832,4.13555,4.13555,0,0,1-1.145-.2002l-0.52295-.16309-0.34082-.06641a0.2334,0.2334,0,0,1-.167-0.26758c0-.05078.00244-0.13086,0.00781-0.23926,0.00977-.1084.01514-0.23242,0.01514-0.373l-0.02295-1.041-0.00781-.46875a0.64331,0.64331,0,0,1,.03418-0.27246,0.21025,0.21025,0,0,1,.17822-0.05273q0.12158,0,.167.25781a5.17311,5.17311,0,0,0,.5,1.4375,1.47261,1.47261,0,0,0,1.29639.99023,0.95526,0.95526,0,0,0,.7583-0.35547,1.34009,1.34009,0,0,0,.30322-0.89844,1.44424,1.44424,0,0,0-.292-0.9502,3.54721,3.54721,0,0,0-1.11035-.75977,3.49932,3.49932,0,0,1-1.35693-1.01758,2.49028,2.49028,0,0,1-.37939-1.457A2.45123,2.45123,0,0,1,94.15381,57.71,2.2819,2.2819,0,0,1,95.875,57.05078Z" transform="translate(0 -4.62765)"/>
    <path class="cls-1" d="M106.95752,54.50684v7.7373l-0.00732.85938a8.27459,8.27459,0,0,1-.22363,2.09668,5.41924,5.41924,0,0,1-.78467,1.65723q-1.0686,1.56738-1.81934,1.56738a0.71976,0.71976,0,0,1-.29541-0.05762l-0.4248-.17187-0.37158-.124a0.46015,0.46015,0,0,1-.15137-0.40234,2.49922,2.49922,0,0,1,.03809-0.40137l0.18164-1.21387c0.02588-.18457.07666-0.27637,0.15332-0.27637a0.84205,0.84205,0,0,1,.52148.43262l0.293,0.41406a0.903,0.903,0,0,0,.57861.47168q0.58374,0,.584-1.8252l-0.01514-.707V57.36621q0-2.21777-.042-2.94922a3.73068,3.73068,0,0,0-.18555-1.09375,0.86435,0.86435,0,0,0-.39795-0.46875,3.03754,3.03754,0,0,0-.936-0.21,0.24575,0.24575,0,0,1-.22754-0.28125,0.30063,0.30063,0,0,1,.34863-0.33105,5.13343,5.13343,0,0,1,.51563.03906q1.0686,0.123,1.20508.124a5.56247,5.56247,0,0,0,.7959-0.08594q1.092-.1626,1.27344-0.16309a0.27284,0.27284,0,0,1,.34131.26367,0.28514,0.28514,0,0,1-.22754.25293,0.94342,0.94342,0,0,0-.56836.59668A4.86166,4.86166,0,0,0,106.95752,54.50684Z" transform="translate(0 -4.62765)"/>
    <path class="cls-1" d="M113.18848,57.05078a2.92,2.92,0,0,1,2.36523,1.14551,4.461,4.461,0,0,1,.93262,2.91211,4.63249,4.63249,0,0,1-1.01172,3.0498,3.13832,3.13832,0,0,1-2.52051,1.22656,2.94478,2.94478,0,0,1-2.36133-1.13574,4.31662,4.31662,0,0,1-.94385-2.85449,4.71235,4.71235,0,0,1,1.03467-3.07422A3.12909,3.12909,0,0,1,113.18848,57.05078Zm-0.39209.52539a1.3,1.3,0,0,0-1.16309.78125,4.37144,4.37144,0,0,0-.43018,2.10352,6.71872,6.71872,0,0,0,.66455,3.10352,1.91422,1.91422,0,0,0,1.6001,1.29492,1.329,1.329,0,0,0,1.15918-.73828,3.60169,3.60169,0,0,0,.44922-1.89844,7.42318,7.42318,0,0,0-.66406-3.29395A1.93512,1.93512,0,0,0,112.79639,57.57617Z" transform="translate(0 -4.62765)"/>
    <path class="cls-1" d="M124.85547,57.15527v5.918a3.065,3.065,0,0,0,.12109,1.13184,0.71949,0.71949,0,0,0,.65234.21484l0.17383-.00977a0.36825,0.36825,0,0,1,.13672.01953,0.21436,0.21436,0,0,1,.12891.21387q0,0.33984-.5166.33984h-0.36523a4.73206,4.73206,0,0,0-.48633.01953,5.09268,5.09268,0,0,0-1.0791.22949,0.407,0.407,0,0,1-.13672.02832c-0.1123,0-.168-0.11816-0.168-0.35352a2.795,2.795,0,0,1,.01563-0.3252q0.01465-.19043.01465-0.28711c0-.19043-0.03223-0.28906-0.09766-0.2959a0.2402,0.2402,0,0,0-.12109.11523l-0.27246.35352a2.05282,2.05282,0,0,1-1.67285.917,1.95185,1.95185,0,0,1-1.6875-.78223,3.9416,3.9416,0,0,1-.56738-2.32031q0-2.0332.06055-3.52246c0.00488-.17773.00781-0.33105,0.00781-0.458a0.56885,0.56885,0,0,0-.44727-0.69727l-0.30371-.02832a0.20975,0.20975,0,0,1-.19727-0.2627,0.26818,0.26818,0,0,1,.23242-0.24707,3.74965,3.74965,0,0,1,.86328-0.06348,2.74373,2.74373,0,0,0,1.05664-.19141,0.99685,0.99685,0,0,1,.31934-0.07617q0.12891,0,.12891.21973c0,0.17188-.00488.34668-0.01562,0.52441q-0.06738,1.01221-.06738,3.542a7.83571,7.83571,0,0,0,.27832,2.60059,1.09208,1.09208,0,0,0,1.11621.6543,1.1661,1.1661,0,0,0,1.00977-.49707,2.42334,2.42334,0,0,0,.35449-1.4209V58.80469a2.44017,2.44017,0,0,0-.11719-0.99512,0.98243,0.98243,0,0,0-.66309-0.27148,0.22517,0.22517,0,0,1-.23535-0.2334q0-.30176.45605-0.30176a4.99824,4.99824,0,0,0,1.833-.22949,0.38267,0.38267,0,0,1,.15918-0.04785c0.07129-.00586.10645,0.05762,0.10645,0.19043Z" transform="translate(0 -4.62765)"/>
    <path class="cls-1" d="M129.82031,60.31738V62.998a1.44279,1.44279,0,0,0,1.12207,1.69922,0.2317,0.2317,0,0,1,.23535.2334c0,0.16309-.05859.24414-0.1748,0.24414a1.0567,1.0567,0,0,1-.21289-0.02832,8.40658,8.40658,0,0,0-1.56445-.14355,6.98738,6.98738,0,0,0-.76758.03809l-0.4707.05762a1.81952,1.81952,0,0,1-.26562.01855,0.20734,0.20734,0,0,1-.21289-0.25293,0.23215,0.23215,0,0,1,.18945-0.23437q0.59912-.18164.59863-1.41992l-0.00781-.40039V59.39844a1.9578,1.9578,0,0,0-.13965-0.91016,0.76244,0.76244,0,0,0-.60254-0.27148,0.18071,0.18071,0,0,1-.1748-0.20508,0.23106,0.23106,0,0,1,.20605-0.25391,4.40419,4.40419,0,0,0,1.78027-.73633l0.2959-.21973a0.19069,0.19069,0,0,1,.11328-0.04785q0.11426,0,.11426.21094c0,0.04395-.00293.13672-0.00781,0.27734l-0.02344.53516-0.03027.5918,0.00781,0.10547a0.15124,0.15124,0,0,0,.11328.14355,0.99369,0.99369,0,0,0,.33008-0.459,3.57978,3.57978,0,0,1,.627-0.7793,1.28787,1.28787,0,0,1,.582-0.415,2.36955,2.36955,0,0,1,1.29688,1.24219,3.6792,3.6792,0,0,1-.24512.66895,1.03853,1.03853,0,0,1-.55078.73633,0.23828,0.23828,0,0,1-.18066-0.0957l-0.21094-.23926a1.13866,1.13866,0,0,0-.88086-0.44922Q129.82129,58.82813,129.82031,60.31738Z" transform="translate(0 -4.62765)"/>
    <path class="cls-1" d="M140.9043,61.09277v1.93555a4.38567,4.38567,0,0,0,.05273.84375,0.9264,0.9264,0,0,0,.24219.42383,1.16973,1.16973,0,0,0,.69727.334,0.23035,0.23035,0,0,1,.23535.22949q0,0.28711-.53906.28711a2.19107,2.19107,0,0,1-.32715-0.03613l-0.49316-.07227a4.149,4.149,0,0,0-.52441-0.04492,4.75529,4.75529,0,0,0-1.15527.1123,1.35363,1.35363,0,0,1-.30371.041,0.16982,0.16982,0,0,1-.167-0.21094,0.26177,0.26177,0,0,1,.1748-0.23828,0.78157,0.78157,0,0,0,.44727-0.44922,3.31117,3.31117,0,0,0,.11328-1.0332V60.96a4.34444,4.34444,0,0,0-.41113-2.05957,1.24576,1.24576,0,0,0-1.12012-.75977,1.29686,1.29686,0,0,0-1.02148.43848,1.6666,1.6666,0,0,0-.38867,1.14551v3.1875a2.42587,2.42587,0,0,0,.26172,1.2832,1.12186,1.12186,0,0,0,.88281.47266,0.20958,0.20958,0,0,1,.21289.21973,0.236,0.236,0,0,1-.2666.26758,4.45342,4.45342,0,0,1-.59961-0.04785,9.27541,9.27541,0,0,0-1.18555-.13379,5.90885,5.90885,0,0,0-1.01758.10254,2.46082,2.46082,0,0,1-.37207.05078,0.17335,0.17335,0,0,1-.19043-0.20117,0.21462,0.21462,0,0,1,.12891-0.2002,0.99562,0.99562,0,0,0,.49316-0.39648,2.00376,2.00376,0,0,0,.10645-0.78906l0.00684-.31543V59.86035l-0.00684-.37207a2.78531,2.78531,0,0,0-.11035-0.95117,0.402,0.402,0,0,0-.40527-0.2627h-0.34863a0.12853,0.12853,0,0,1-.11426-0.05762,0.2289,0.2289,0,0,1-.03809-0.14355,0.2745,0.2745,0,0,1,.11426-0.25293,4.09757,4.09757,0,0,1,.66992-0.24414,4.17176,4.17176,0,0,0,1.58887-.83105,0.14182,0.14182,0,0,1,.09863-0.05762q0.09082-.01025.09082,0.18164l-0.02246.47754-0.00781.54492,0.0459,0.36328a0.1397,0.1397,0,0,0,.09863.124,0.5309,0.5309,0,0,0,.24219-0.25781,2.10951,2.10951,0,0,1,1.83887-1.07031,1.861,1.861,0,0,1,1.7627.93848A6.685,6.685,0,0,1,140.9043,61.09277Z" transform="translate(0 -4.62765)"/>
    <path class="cls-1" d="M146.96094,60.55859a4.05788,4.05788,0,0,0,.083-0.748,2.99286,2.99286,0,0,0-.36426-1.56152,1.07417,1.07417,0,0,0-.93652-0.60547,0.659,0.659,0,0,0-.73047.76074,2.29533,2.29533,0,0,0,.01563.27539l0.02246,0.18066q0,0.64746-1.17383.64648a0.26891,0.26891,0,0,1-.28906-0.334,0.9698,0.9698,0,0,1,.03711-0.21094c0.01563-.06934.03125-0.15234,0.0459-0.248a1.52957,1.52957,0,0,1,.46289-0.93652,2.7907,2.7907,0,0,1,1.94043-.72656,2.43943,2.43943,0,0,1,1.96289.76367,3.135,3.135,0,0,1,.501,2.02344q0,0.7251-.0459,1.82324-0.04541,1.25977-.0459,1.67969,0,0.98291.62207,0.9834a0.62291,0.62291,0,0,0,.32617-0.06738,0.44162,0.44162,0,0,1,.17383-0.06641,0.10787,0.10787,0,0,1,.10645.13379,0.57591,0.57591,0,0,1-.2959.44922l-0.2959.19141-0.25684.19043a1.06136,1.06136,0,0,1-.59961.18164,1.39194,1.39194,0,0,1-1.12207-1.08887,4.13842,4.13842,0,0,1-2.3418,1.13672,1.20663,1.20663,0,0,1-1.00879-.46875,2.08081,2.08081,0,0,1-.36328-1.30273,2.44428,2.44428,0,0,1,1.04395-2.20215A9.2097,9.2097,0,0,1,146.96094,60.55859Zm-0.15137.55371a1.50471,1.50471,0,0,0-1.24316.584,2.02564,2.02564,0,0,0-.5918,1.4043q0,1.26123.80371,1.26172a1.35833,1.35833,0,0,0,.87207-0.2959,0.84133,0.84133,0,0,0,.28027-0.52637,6.92428,6.92428,0,0,0,.07617-1.23242l0.00684-.73633v-0.2002l-0.04492-.21094A0.26929,0.26929,0,0,0,146.80957,61.1123Z" transform="translate(0 -4.62765)"/>
    <path class="cls-1" d="M153.002,54.06641v8.44336l0.00781,0.31543a2.8486,2.8486,0,0,0,.21289,1.3125,1.18038,1.18038,0,0,0,.833.502,0.50643,0.50643,0,0,1,.23145.07813,0.31917,0.31917,0,0,1,.03418.18457c0,0.15625-.05078.23438-0.15137,0.23438a1.90264,1.90264,0,0,1-.2666-0.0293,9.05741,9.05741,0,0,0-1.49609-.10449,6.82749,6.82749,0,0,0-1.39062.0957,0.908,0.908,0,0,1-.17383.02832c-0.10645,0-.16016-0.08105-0.16016-0.24414a0.2795,0.2795,0,0,1,.18945-0.22461,1.26793,1.26793,0,0,0,.57617-1.25l0.01563-.55371,0.00684-.25684V54.89648a5.73364,5.73364,0,0,0-.16211-1.67969,0.60432,0.60432,0,0,0-.60352-0.44824,0.21,0.21,0,0,1-.21973-0.25293,0.21679,0.21679,0,0,1,.084-0.19824,2.14376,2.14376,0,0,1,.45605-0.15137,4.5144,4.5144,0,0,0,1.55273-.69727l0.25781-.19141a0.326,0.326,0,0,1,.13574-0.05762c0.07617-.00586.11426,0.05762,0.11426,0.19141,0,0.07031-.00488.22949-0.01562,0.47754Q153.00293,53.17773,153.002,54.06641Z" transform="translate(0 -4.62765)"/>
    <path class="cls-1" d="M163.53223,57.05078a2.92137,2.92137,0,0,1,2.36523,1.14551,4.46639,4.46639,0,0,1,.93262,2.91211,4.6331,4.6331,0,0,1-1.0127,3.0498,3.13831,3.13831,0,0,1-2.52051,1.22656,2.94545,2.94545,0,0,1-2.36133-1.13574,4.31893,4.31893,0,0,1-.94336-2.85449,4.712,4.712,0,0,1,1.03418-3.07422A3.13087,3.13087,0,0,1,163.53223,57.05078Zm-0.39258.52539a1.3,1.3,0,0,0-1.16309.78125,4.36537,4.36537,0,0,0-.43066,2.10352,6.71869,6.71869,0,0,0,.665,3.10352,1.91365,1.91365,0,0,0,1.60059,1.29492,1.33016,1.33016,0,0,0,1.15918-.73828,3.6109,3.6109,0,0,0,.44922-1.89844,7.40939,7.40939,0,0,0-.665-3.29395A1.934,1.934,0,0,0,163.13965,57.57617Z" transform="translate(0 -4.62765)"/>
    <path class="cls-1" d="M172.12891,58.27441h-0.72754q-0.45557,0-.45508.59961v3.89746a3.37954,3.37954,0,0,0,.19336,1.40137,1.18235,1.18235,0,0,0,.82227.51465,0.28742,0.28742,0,0,1,.25781.28223,0.19682,0.19682,0,0,1-.2207.22461c-0.04,0-.16211-0.0166-0.36426-0.04785a7.41077,7.41077,0,0,0-1.27637-.13379,6.62209,6.62209,0,0,0-1.25391.125,1.49712,1.49712,0,0,1-.23535.02734,0.15079,0.15079,0,0,1-.15137-0.18555,0.29106,0.29106,0,0,1,.13574-0.24414l0.2207-.16211a1.004,1.004,0,0,0,.34082-0.86719V58.73145a0.35572,0.35572,0,0,0-.37109-0.42871l-0.23535-.00977H168.627c-0.19727,0-.2959-0.05371-0.2959-0.16211a0.63623,0.63623,0,0,1,.03027-0.17187,2.59859,2.59859,0,0,0,.06055-0.36328,0.19742,0.19742,0,0,1,.15918-0.21973l0.36426-.0293a0.51554,0.51554,0,0,0,.375-0.14355,0.90534,0.90534,0,0,0,.125-0.4873,10.03051,10.03051,0,0,1,.70508-3.40234q0.86426-1.94971,1.97852-1.9502,0.728,0,.72754.52637a1.18806,1.18806,0,0,1-.03809.248q-0.15088.66943-.18945,0.95605c-0.01465.15918-.05762,0.23828-0.12891,0.23828a0.13413,0.13413,0,0,1-.13672-0.13184L172.334,53.001a0.86772,0.86772,0,0,0-.2832-0.47852,0.68766,0.68766,0,0,0-.45605-0.22266,0.63605,0.63605,0,0,0-.47949.57715,5.4172,5.4172,0,0,0-.17676,1.541l-0.01465,1.4502L170.916,56.584a1.01943,1.01943,0,0,0,.11719.582,0.54435,0.54435,0,0,0,.45117.15234,4.85149,4.85149,0,0,0,.78418-0.0332,0.92772,0.92772,0,0,0,.35254-0.292l0.06836-.04785c0.06543-.00586.09668,0.03223,0.09082,0.11621l-0.03711.10547-0.18262.71191a0.81627,0.81627,0,0,1-.13965.33691A0.47787,0.47787,0,0,1,172.12891,58.27441Z" transform="translate(0 -4.62765)"/>
    <path class="cls-1" d="M20.57227,69.33105l3.44922,9.98047a3.11314,3.11314,0,0,0,.60645,1.127,1.70862,1.70862,0,0,0,.90186.49707,0.233,0.233,0,0,1,.13623.27246c0,0.1748-.05811.25879-0.17432,0.25293a2.15591,2.15591,0,0,1-.28857-0.05762,7.763,7.763,0,0,0-1.8833-.16211,6.79537,6.79537,0,0,0-1.77686.15137,0.61674,0.61674,0,0,1-.19727.04,0.21919,0.21919,0,0,1-.2124-0.27344,0.22259,0.22259,0,0,1,.1665-0.20508,1.33386,1.33386,0,0,0,.84131-1.2041,9.5373,9.5373,0,0,0-.65723-2.35156,0.97887,0.97887,0,0,0-.4502-0.63574,9.59451,9.59451,0,0,0-1.74219-.08105H18.26318l-0.68066.15332a2.59726,2.59726,0,0,0-.63477,1.25781l-0.23437.73438a1.98779,1.98779,0,0,0-.106.63965,1.32363,1.32363,0,0,0,1.334,1.3916,0.27458,0.27458,0,0,1,.28076.28223,0.24214,0.24214,0,0,1-.27344.25391,1.89306,1.89306,0,0,1-.3877-0.05762,3.7575,3.7575,0,0,0-.896-0.124,10.97967,10.97967,0,0,0-1.15479.09473q-0.59253.07764-.73682,0.07715a0.198,0.198,0,0,1-.21289-0.2334,0.31389,0.31389,0,0,1,.2124-0.293,1.29734,1.29734,0,0,0,.65576-0.5957,13.51639,13.51639,0,0,0,.73145-1.82812l2.06934-6.01172q0.25049-.71631.34912-0.9834l0.70459-1.82227,0.36426-.89746V68.749a1.67674,1.67674,0,0,1,.32568-0.72656,1.57452,1.57452,0,0,1,.417.80273Zm0.28418,5.97559-0.99023-2.917a2.05269,2.05269,0,0,0-.50635-1.04785,1.42593,1.42593,0,0,0-.33252.67676l-0.144.40039L17.999,74.96387l-0.0835.23828a0.72109,0.72109,0,0,0-.05322.248q0,0.32373.54492,0.32324H20.645q0.28711,0,.28711-0.19922a0.60307,0.60307,0,0,0-.03809-0.16211Z" transform="translate(0 -4.62765)"/>
    <path class="cls-1" d="M31.4126,74.03125a1.38794,1.38794,0,0,0,.81494-0.34766,1.32693,1.32693,0,0,0,.32959-0.80664,0.16337,0.16337,0,0,1,.15186-0.19043c0.08545,0,.12842.083,0.12842,0.248,0,0.15918-.03027.498-0.09082,1.01953-0.04053.35547-.063,0.58789-0.06836,0.69531a0.54469,0.54469,0,0,1-.106.32422,2.30141,2.30141,0,0,1-.47754.334,2.63841,2.63841,0,0,0,.02295.2959q0.03735,0.4585.0376,0.56348a2.257,2.257,0,0,1-.78467,1.748,2.78477,2.78477,0,0,1-1.93652.707,3.33536,3.33536,0,0,1-.76562-0.0957,1.10843,1.10843,0,0,0-.26562-0.03809,0.47268,0.47268,0,0,0-.3999.23438,0.99557,0.99557,0,0,0-.16113.57813q0,0.82178,1.13965.82227a7.92513,7.92513,0,0,1,2.93457.34961,1.41947,1.41947,0,0,1,.72461,1.42188,2.7502,2.7502,0,0,1-.81689,2.01172,3.28835,3.28835,0,0,1-2.43457.82324,4.36272,4.36272,0,0,1-2.14795-.42676,1.34641,1.34641,0,0,1-.74072-1.23145,1.40688,1.40688,0,0,1,.23438-0.77637,0.92907,0.92907,0,0,1,.55273-0.44141,0.5424,0.5424,0,0,0,.36328-0.17285l-0.06055-.124-0.22705-.28711a1.66351,1.66351,0,0,1-.33984-1.03223,2.13008,2.13008,0,0,1,.51514-1.43262l0.24268-.28711a0.28966,0.28966,0,0,0,.06836-0.18164,0.65463,0.65463,0,0,0-.311-0.37207,1.933,1.933,0,0,1-.5874-0.84961,3.0059,3.0059,0,0,1-.25391-1.1543,2.62266,2.62266,0,0,1,2.71387-2.709A2.89435,2.89435,0,0,1,31.4126,74.03125ZM28.35449,81.8623a0.58491,0.58491,0,0,0-.48486.2627,1.05828,1.05828,0,0,0-.19434.64551,1.35124,1.35124,0,0,0,.53076,1.123,2.28635,2.28635,0,0,0,1.44775.416,2.15894,2.15894,0,0,0,1.29639-.3584A1.12228,1.12228,0,0,0,31.44287,83a0.68912,0.68912,0,0,0-.30273-0.66406,4.45257,4.45257,0,0,0-1.40771-.27246,8.64975,8.64975,0,0,1-.99951-0.13379l-0.19678-.04785A0.961,0.961,0,0,0,28.35449,81.8623Zm1.05664-8.20117a1.02408,1.02408,0,0,0-.91553.57031,3.0715,3.0715,0,0,0-.33545,1.55762,3.78555,3.78555,0,0,0,.36182,1.75781,1.054,1.054,0,0,0,.9043.69336,1.0164,1.0164,0,0,0,.89648-0.56543,2.86523,2.86523,0,0,0,.33936-1.48633Q30.66211,73.66162,29.41113,73.66113Z" transform="translate(0 -4.62765)"/>
    <path class="cls-1" d="M36.56738,76.5166v2.68164a1.44279,1.44279,0,0,0,1.12207,1.69922,0.23158,0.23158,0,0,1,.23486.2334c0,0.16309-.05811.24414-0.1748,0.24414a1.0526,1.0526,0,0,1-.2124-0.02832,8.41182,8.41182,0,0,0-1.56494-.14355,6.97807,6.97807,0,0,0-.76709.03809l-0.47119.05762a1.81953,1.81953,0,0,1-.26562.01855,0.20754,0.20754,0,0,1-.21289-0.25293,0.23261,0.23261,0,0,1,.18945-0.23437q0.59912-.18164.59912-1.41992l-0.00781-.40039V75.59863a1.94682,1.94682,0,0,0-.14014-0.91016,0.76162,0.76162,0,0,0-.60254-0.27148,0.18134,0.18134,0,0,1-.17432-0.20508,0.23047,0.23047,0,0,1,.20557-0.25391,4.40131,4.40131,0,0,0,1.78027-.73633l0.2959-.21973a0.19073,0.19073,0,0,1,.11377-0.04785c0.07568,0,.11377.07031,0.11377,0.21,0,0.04492-.00293.1377-0.00781,0.27734l-0.02295.53516-0.03027.59277L36.5752,74.6748a0.15245,0.15245,0,0,0,.11279.14355,1.00085,1.00085,0,0,0,.33008-0.459,3.58371,3.58371,0,0,1,.62744-0.7793,1.27985,1.27985,0,0,1,.582-0.416,2.36808,2.36808,0,0,1,1.29639,1.24316,3.63635,3.63635,0,0,1-.24512.66895,1.03853,1.03853,0,0,1-.55078.73633,0.239,0.239,0,0,1-.18066-0.0957l-0.21094-.23926a1.13495,1.13495,0,0,0-.88086-0.44922Q36.56787,75.02832,36.56738,76.5166Z" transform="translate(0 -4.62765)"/>
    <path class="cls-1" d="M43.15479,73.66016v5.40625a2.80672,2.80672,0,0,0,.23145,1.35352,1.01946,1.01946,0,0,0,.86035.42969,0.22194,0.22194,0,0,1,.25.22363q0,0.25342-.6001.25391c-0.05078,0-.15967-0.00879-0.32666-0.02734l-0.56934-.07129q-0.47168-.0542-0.623-0.05469a6.01433,6.01433,0,0,0-1.08643.13379,1.27124,1.27124,0,0,1-.2583.03906,0.15426,0.15426,0,0,1-.15967-0.18652,0.22471,0.22471,0,0,1,.09863-0.19629l0.25781-.16211a0.87041,0.87041,0,0,0,.28418-0.49512,2.82634,2.82634,0,0,0,.11768-0.82031l-0.00781-.39941V75.85645a2.88267,2.88267,0,0,0-.125-1.0293,0.45278,0.45278,0,0,0-.45117-0.28613H40.873a0.22207,0.22207,0,0,1-.19678-0.07812,0.28771,0.28771,0,0,1-.02295-0.13574,0.48731,0.48731,0,0,1,.46387-0.36914,4.15644,4.15644,0,0,0,1.81787-.92773,0.24864,0.24864,0,0,1,.12891-0.06641c0.0708,0.00684.106,0.06641,0.106,0.18066l-0.00732.08594C43.15723,73.28809,43.15479,73.43066,43.15479,73.66016Zm-0.81494-5.21777a1.3702,1.3702,0,0,1,.56641.65039l0.31738,0.5166a0.70679,0.70679,0,0,1,.12061.334,2.03992,2.03992,0,0,1-.415.87012,1.41135,1.41135,0,0,1-.58154.64063,0.27579,0.27579,0,0,1-.2041-0.11523l-0.355-.54492-0.332-.47754a0.65811,0.65811,0,0,1-.12842-0.3252,2.48631,2.48631,0,0,1,.44531-0.87012A1.78646,1.78646,0,0,1,42.33984,68.44238Z" transform="translate(0 -4.62765)"/>
    <path class="cls-1" d="M49.25781,73.251a1.751,1.751,0,0,1,1.66748.7832,1.67467,1.67467,0,0,1,.28076.793,1.30054,1.30054,0,0,1-.686.78418l-0.32031.22949a0.268,0.268,0,0,1-.12988.05762c-0.13184,0-.20557-0.12109-0.2207-0.3623a2.11175,2.11175,0,0,0-.41846-1.19336,1.08407,1.08407,0,0,0-.86328-0.5,1.22162,1.22162,0,0,0-1.04785.75684,3.81245,3.81245,0,0,0-.42236,1.87988,5.822,5.822,0,0,0,.624,2.85938A1.82755,1.82755,0,0,0,49.314,80.457a2.64423,2.64423,0,0,0,1.7251-.78418l0.09082-.05664q0.12158-.00879.12158,0.16113a1.36872,1.36872,0,0,1-.56885.85254,3.13857,3.13857,0,0,1-2.16016.95508,2.52714,2.52714,0,0,1-2.085-1.07422,4.32346,4.32346,0,0,1-.82617-2.71582,5.04229,5.04229,0,0,1,1.03467-3.251A3.20844,3.20844,0,0,1,49.25781,73.251Z" transform="translate(0 -4.62765)"/>
    <path class="cls-1" d="M59.332,73.35547v5.918a3.05386,3.05386,0,0,0,.12109,1.13184,0.71841,0.71841,0,0,0,.65186.21484l0.17432-.00977a0.37,0.37,0,0,1,.13672.01953,0.21436,0.21436,0,0,1,.12891.21387q0,0.33984-.51709.33984H59.66309a4.73206,4.73206,0,0,0-.48633.01953,5.10263,5.10263,0,0,0-1.07959.22949,0.40471,0.40471,0,0,1-.13672.02832c-0.11182,0-.16748-0.11816-0.16748-0.35352a2.92083,2.92083,0,0,1,.01514-0.3252q0.01538-.19043.01514-0.28711,0-.28564-0.09814-0.2959a0.24207,0.24207,0,0,0-.12109.11523l-0.27246.35352a2.05134,2.05134,0,0,1-1.67236.917,1.95068,1.95068,0,0,1-1.6875-.78223,3.93778,3.93778,0,0,1-.56787-2.32031q0-2.0332.06055-3.52246c0.00537-.17773.00781-0.33105,0.00781-0.458a0.56854,0.56854,0,0,0-.44727-0.69727l-0.30322-.02832a0.20975,0.20975,0,0,1-.19727-0.2627,0.26811,0.26811,0,0,1,.23193-0.248,3.82883,3.82883,0,0,1,.86328-0.0625,2.76038,2.76038,0,0,0,1.05664-.19141,0.99966,0.99966,0,0,1,.31934-0.07617q0.12891,0,.12891.21973,0,0.25781-.01514.52441-0.06812,1.01221-.06787,3.542a7.81828,7.81828,0,0,0,.27881,2.60059,1.091,1.091,0,0,0,1.11572.6543,1.167,1.167,0,0,0,1.01025-.49707,2.42334,2.42334,0,0,0,.35449-1.4209V75.00488a2.42456,2.42456,0,0,0-.11768-0.99512A0.97658,0.97658,0,0,0,57.02,73.73828a0.22546,0.22546,0,0,1-.23535-0.2334q0-.30176.45654-0.30176a5.01679,5.01679,0,0,0,1.83252-.22949,0.38443,0.38443,0,0,1,.15967-0.04785c0.0708-.00684.106,0.05762,0.106,0.19043Z" transform="translate(0 -4.62765)"/>
    <path class="cls-1" d="M64.16846,70.2666V78.71l0.00781,0.31543a2.85,2.85,0,0,0,.2124,1.3125,1.18256,1.18256,0,0,0,.8335.502,0.5117,0.5117,0,0,1,.23145.07813,0.31917,0.31917,0,0,1,.03418.18457q0,0.23438-.15186.23438a1.89034,1.89034,0,0,1-.26611-0.0293,9.06379,9.06379,0,0,0-1.49658-.10449,6.82184,6.82184,0,0,0-1.39014.0957,0.91139,0.91139,0,0,1-.17432.02832c-0.10645,0-.15967-0.08105-0.15967-0.24414a0.27862,0.27862,0,0,1,.18945-0.22461,1.26793,1.26793,0,0,0,.57617-1.25l0.01514-.55371,0.00732-.25684V71.09668a5.72878,5.72878,0,0,0-.1626-1.67969,0.60339,0.60339,0,0,0-.603-0.44824,0.21,0.21,0,0,1-.21973-0.25293,0.21953,0.21953,0,0,1,.0835-0.19922,2.23653,2.23653,0,0,1,.45654-0.15039,4.51161,4.51161,0,0,0,1.55225-.69727l0.25781-.19141a0.31548,0.31548,0,0,1,.13623-0.05762c0.07617-.00586.11377,0.05762,0.11377,0.19141q0,0.10547-.01514.47754Q64.1687,69.37793,64.16846,70.2666Z" transform="translate(0 -4.62765)"/>
    <path class="cls-1" d="M68.99023,74.44531v4.66406a2.48245,2.48245,0,0,0,.20068,1.18555,0.759,0.759,0,0,0,.709.335A1.55392,1.55392,0,0,0,70.42676,80.5a1.37933,1.37933,0,0,0,.4585-0.25879,0.23669,0.23669,0,0,1,.12158-0.08008c0.06055,0,.09814.06543,0.11328,0.19531l0.01514,0.09766-0.09082.166a2.50148,2.50148,0,0,1-1.937.96484,1.52219,1.52219,0,0,1-1.24951-.48633,2.35493,2.35493,0,0,1-.39893-1.50879V74.44531h-0.4624q-0.364,0-.36377-0.25293a0.449,0.449,0,0,1,.18994-0.32031,7.754,7.754,0,0,0,.936-1.06152,8.20871,8.20871,0,0,0,.81445-1.19434,0.76342,0.76342,0,0,1,.34863-0.459,0.13049,0.13049,0,0,1,.06836.14355v2.21777h1.09912a0.62749,0.62749,0,0,0,.43213-0.125l0.19727-.16211a0.241,0.241,0,0,1,.13623-0.06738c0.08594-.00586.12646,0.0459,0.12109,0.1543a0.85285,0.85285,0,0,1-.05273.21191,2.23243,2.23243,0,0,0-.09082.42383,0.46442,0.46442,0,0,1-.417.49121H68.99023Z" transform="translate(0 -4.62765)"/>
    <path class="cls-1" d="M79.00391,73.35547v5.918a3.05386,3.05386,0,0,0,.12109,1.13184,0.71841,0.71841,0,0,0,.65186.21484l0.17432-.00977a0.37,0.37,0,0,1,.13672.01953,0.21436,0.21436,0,0,1,.12891.21387q0,0.33984-.51709.33984H79.335a4.73206,4.73206,0,0,0-.48633.01953,5.10263,5.10263,0,0,0-1.07959.22949,0.40471,0.40471,0,0,1-.13672.02832c-0.11182,0-.16748-0.11816-0.16748-0.35352a2.92083,2.92083,0,0,1,.01514-0.3252q0.01538-.19043.01514-0.28711,0-.28564-0.09814-0.2959a0.24207,0.24207,0,0,0-.12109.11523l-0.27246.35352a2.05134,2.05134,0,0,1-1.67236.917,1.95068,1.95068,0,0,1-1.6875-.78223,3.93778,3.93778,0,0,1-.56787-2.32031q0-2.0332.06055-3.52246c0.00537-.17773.00781-0.33105,0.00781-0.458a0.56854,0.56854,0,0,0-.44727-0.69727l-0.30322-.02832a0.20975,0.20975,0,0,1-.19727-0.2627,0.26811,0.26811,0,0,1,.23193-0.248,3.82883,3.82883,0,0,1,.86328-0.0625,2.76038,2.76038,0,0,0,1.05664-.19141,0.99966,0.99966,0,0,1,.31934-0.07617q0.12891,0,.12891.21973,0,0.25781-.01514.52441-0.06812,1.01221-.06787,3.542a7.81828,7.81828,0,0,0,.27881,2.60059,1.091,1.091,0,0,0,1.11572.6543,1.167,1.167,0,0,0,1.01025-.49707,2.42334,2.42334,0,0,0,.35449-1.4209V75.00488a2.42456,2.42456,0,0,0-.11768-0.99512,0.97658,0.97658,0,0,0-.66309-0.27148,0.22546,0.22546,0,0,1-.23535-0.2334q0-.30176.45654-0.30176a5.01679,5.01679,0,0,0,1.83252-.22949,0.38443,0.38443,0,0,1,.15967-0.04785c0.0708-.00684.106,0.05762,0.106,0.19043Z" transform="translate(0 -4.62765)"/>
    <path class="cls-1" d="M83.96924,76.5166v2.68164a1.44279,1.44279,0,0,0,1.12207,1.69922,0.23158,0.23158,0,0,1,.23486.2334c0,0.16309-.05811.24414-0.1748,0.24414a1.0526,1.0526,0,0,1-.2124-0.02832,8.41182,8.41182,0,0,0-1.56494-.14355,6.97807,6.97807,0,0,0-.76709.03809l-0.47119.05762a1.81953,1.81953,0,0,1-.26562.01855,0.20754,0.20754,0,0,1-.21289-0.25293,0.23261,0.23261,0,0,1,.18945-0.23437q0.59912-.18164.59912-1.41992L82.438,79.00977V75.59863a1.94682,1.94682,0,0,0-.14014-0.91016,0.76162,0.76162,0,0,0-.60254-0.27148,0.18134,0.18134,0,0,1-.17432-0.20508,0.23047,0.23047,0,0,1,.20557-0.25391,4.40131,4.40131,0,0,0,1.78027-.73633l0.2959-.21973a0.19073,0.19073,0,0,1,.11377-0.04785c0.07568,0,.11377.07031,0.11377,0.21,0,0.04492-.00293.1377-0.00781,0.27734l-0.02295.53516-0.03027.59277,0.00781,0.10547a0.15245,0.15245,0,0,0,.11279.14355,1.00085,1.00085,0,0,0,.33008-0.459,3.58371,3.58371,0,0,1,.62744-0.7793,1.27985,1.27985,0,0,1,.582-0.416,2.36808,2.36808,0,0,1,1.29639,1.24316,3.63635,3.63635,0,0,1-.24512.66895,1.03853,1.03853,0,0,1-.55078.73633,0.239,0.239,0,0,1-.18066-0.0957l-0.21094-.23926a1.13495,1.13495,0,0,0-.88086-0.44922Q83.96973,75.02832,83.96924,76.5166Z" transform="translate(0 -4.62765)"/>
    <path class="cls-1" d="M90.94336,73.23145a2.46451,2.46451,0,0,1,2.02441,1.166,3.3473,3.3473,0,0,1,.7124,1.96875,0.34623,0.34623,0,0,1-.40869.373l-0.34814-.01953H92.74951l-0.46191.00977-1.42969.0293-0.749.00879-0.25781-.00879a0.40089,0.40089,0,0,0-.27979.06641,0.55721,0.55721,0,0,0-.083.35449,3.91314,3.91314,0,0,0,.6543,2.23828,1.84154,1.84154,0,0,0,1.50928.97266,1.88139,1.88139,0,0,0,1.53613-.7041l0.24219-.29883a0.16589,0.16589,0,0,1,.12891-0.07715,0.16368,0.16368,0,0,1,.1665.2002,1.9068,1.9068,0,0,1-.5835.92773A2.97579,2.97579,0,0,1,90.92822,81.585a2.5333,2.5333,0,0,1-2.1377-1.13672,4.87289,4.87289,0,0,1-.82617-2.93457,5.14275,5.14275,0,0,1,.8833-3.01074A2.53235,2.53235,0,0,1,90.94336,73.23145Zm-0.21191.4873a1.081,1.081,0,0,0-.897.63574,2.83884,2.83884,0,0,0-.38428,1.499,0.35763,0.35763,0,0,0,.10938.332,1.74379,1.74379,0,0,0,.5918.05664c0.16553,0,.34131-0.00586.52734-0.01953q0.67822-.03662.78418-0.03711a0.53027,0.53027,0,0,0,.66309-0.5127,2.27712,2.27712,0,0,0-.42578-1.36133A1.20177,1.20177,0,0,0,90.73145,73.71875Z" transform="translate(0 -4.62765)"/>
    <path class="cls-1" d="M103.36865,76.75879a4.10967,4.10967,0,0,0,.083-0.748,2.99037,2.99037,0,0,0-.36475-1.56152,1.07527,1.07527,0,0,0-.93652-0.60645,0.65922,0.65922,0,0,0-.73.76074,2.40754,2.40754,0,0,0,.01514.27637l0.02246,0.18066q0,0.646-1.17334.64648a0.26977,0.26977,0,0,1-.28955-0.335,0.95128,0.95128,0,0,1,.0376-0.21c0.01563-.07031.03076-0.15332,0.0459-0.248a1.53444,1.53444,0,0,1,.4624-0.9375,2.79519,2.79519,0,0,1,1.94043-.72559,2.43935,2.43935,0,0,1,1.96338.7627,3.14337,3.14337,0,0,1,.50049,2.02441q0,0.7251-.04541,1.82324-0.04614,1.25977-.0459,1.67969,0,0.98291.62158,0.9834a0.62054,0.62054,0,0,0,.32617-0.06738,0.4456,0.4456,0,0,1,.17432-0.06641,0.10779,0.10779,0,0,1,.106.13379,0.57518,0.57518,0,0,1-.29541.44922l-0.2959.19141-0.25732.19043a1.05982,1.05982,0,0,1-.59912.18164,1.39082,1.39082,0,0,1-1.12207-1.08887,4.13947,4.13947,0,0,1-2.34229,1.13672,1.20508,1.20508,0,0,1-1.0083-.46875,2.08084,2.08084,0,0,1-.36377-1.30273,2.44817,2.44817,0,0,1,1.04395-2.20312A9.18869,9.18869,0,0,1,103.36865,76.75879Zm-0.15186.55371a1.50689,1.50689,0,0,0-1.24316.583,2.03292,2.03292,0,0,0-.59131,1.40527q0,1.26123.80371,1.26172a1.357,1.357,0,0,0,.87158-0.2959,0.83675,0.83675,0,0,0,.28027-0.52637,6.92427,6.92427,0,0,0,.07617-1.23242l0.00732-.73633v-0.2002l-0.04541-.21094A0.268,0.268,0,0,0,103.2168,77.3125Z" transform="translate(0 -4.62765)"/>
    <path class="cls-1" d="M114.03418,77.293v1.93555a4.38567,4.38567,0,0,0,.05273.84375,0.92874,0.92874,0,0,0,.24316.42383,1.16434,1.16434,0,0,0,.69727.334,0.231,0.231,0,0,1,.23535.22949c0,0.19141-.18066.28711-0.54,0.28711a2.18084,2.18084,0,0,1-.32617-0.03613l-0.49414-.07227a4.1209,4.1209,0,0,0-.52441-0.04492,4.74923,4.74923,0,0,0-1.1543.1123,1.35363,1.35363,0,0,1-.30371.041,0.16982,0.16982,0,0,1-.167-0.21094,0.262,0.262,0,0,1,.17432-0.23828,0.78018,0.78018,0,0,0,.44727-0.44922,3.29274,3.29274,0,0,0,.11377-1.0332V77.16016a4.35464,4.35464,0,0,0-.41113-2.06055,1.24739,1.24739,0,0,0-1.12012-.75977,1.29864,1.29864,0,0,0-1.022.43945,1.66634,1.66634,0,0,0-.38818,1.14551v3.1875a2.4312,2.4312,0,0,0,.26123,1.2832,1.12206,1.12206,0,0,0,.8833.47266,0.20917,0.20917,0,0,1,.2124.21973,0.2358,0.2358,0,0,1-.26611.26758,4.46591,4.46591,0,0,1-.6001-0.04785,9.27063,9.27063,0,0,0-1.18506-.13379,5.90425,5.90425,0,0,0-1.01758.10254,2.45691,2.45691,0,0,1-.37256.05078,0.17322,0.17322,0,0,1-.18994-0.20117,0.21462,0.21462,0,0,1,.12891-0.2002,0.99173,0.99173,0,0,0,.49268-0.39648,1.99452,1.99452,0,0,0,.10645-0.78906l0.00732-.31543V76.06055l-0.00732-.373a2.78568,2.78568,0,0,0-.10986-0.9502,0.40376,0.40376,0,0,0-.40576-0.26367h-0.34863a0.127,0.127,0,0,1-.11377-0.05664,0.2289,0.2289,0,0,1-.03809-0.14355,0.27626,0.27626,0,0,1,.11426-0.25391,4.122,4.122,0,0,1,.66943-0.24316,4.16182,4.16182,0,0,0,1.58936-.832,0.14271,0.14271,0,0,1,.09863-0.05664q0.09082-.01025.09082,0.18164l-0.02295.47754-0.00732.54492,0.04541,0.36328a0.14006,0.14006,0,0,0,.09912.124,0.5309,0.5309,0,0,0,.24219-0.25781A2.10875,2.10875,0,0,1,111.7417,73.251a1.86275,1.86275,0,0,1,1.76318.93848A6.69727,6.69727,0,0,1,114.03418,77.293Z" transform="translate(0 -4.62765)"/>
    <path class="cls-1" d="M122.94141,70.87793v7.94629a3.00985,3.00985,0,0,0,.18262,1.27539,0.71012,0.71012,0,0,0,.68945.33887,0.21053,0.21053,0,0,1,.24219.2334,0.24159,0.24159,0,0,1-.23437.30176l-0.415.06641-0.665.125a4.00432,4.00432,0,0,0-1.05762.36328,0.55666,0.55666,0,0,1-.22754.06641c-0.05078,0-.07617-0.05762-0.07617-0.17187l0.00781-.78418a0.53838,0.53838,0,0,0-.03809-0.22949l-0.05273-.03809a0.1611,0.1611,0,0,0-.10645.08594,2.98654,2.98654,0,0,1-.9873.80273,2.4723,2.4723,0,0,1-1.14648.3252,2.203,2.203,0,0,1-1.86035-.97852,4.23316,4.23316,0,0,1-.71289-2.55371,5.98546,5.98546,0,0,1,.93457-3.40332A2.708,2.708,0,0,1,119.7002,73.251a3.32156,3.32156,0,0,1,1.44531.3623,0.25447,0.25447,0,0,0,.12891.03906c0.08594,0,.12793-0.11133.12793-0.335V71.07129a4.748,4.748,0,0,0-.16992-1.57715,0.65883,0.65883,0,0,0-.6709-0.40137,0.21816,0.21816,0,0,1-.25-0.24414,0.20762,0.20762,0,0,1,.15137-0.24316l0.42676-.0957a3.6568,3.6568,0,0,0,1.749-.82227,0.45842,0.45842,0,0,1,.23438-0.13379c0.08105-.00586.12207,0.0957,0.12207,0.30566,0,0.03223-.00293.11133-0.00781,0.23926-0.01562.24121-.02344,0.43945-0.02344,0.5918l-0.00684.51563Zm-1.53906,8.30957V75.68164a1.75705,1.75705,0,0,0-.5957-1.30957,1.9536,1.9536,0,0,0-1.38965-.56738,1.29964,1.29964,0,0,0-1.14648.7666,4.03533,4.03533,0,0,0-.43848,2.0127,5.08292,5.08292,0,0,0,.65332,2.65918A1.87553,1.87553,0,0,0,120.082,80.333a1.64827,1.64827,0,0,0,.73926-0.19727,1.01078,1.01078,0,0,0,.498-0.43359A1.222,1.222,0,0,0,121.40234,79.1875Z" transform="translate(0 -4.62765)"/>
    <path class="cls-1" d="M133.05469,78.33887q0,1.78418.33984,2.00391a1.49041,1.49041,0,0,0,.74023.124,3.83741,3.83741,0,0,0,3.64258-1.9043,1.52957,1.52957,0,0,1,.415-0.58105q0.1377,0,.1377.39258a3.8515,3.8515,0,0,1-.62891,2.16895,1.71894,1.71894,0,0,1-1.50879.8418c-0.13086,0-.37109-0.0166-0.71973-0.04785q-0.13623-.01025-0.91016-0.06738l-0.82617-.04785c-0.27734-.01855-0.59375-0.02832-0.94727-0.02832a13.47627,13.47627,0,0,0-1.89551.14551,3.61734,3.61734,0,0,1-.417.0459,0.21079,0.21079,0,0,1-.21973-0.25391,0.24977,0.24977,0,0,1,.19727-0.24316,1.07224,1.07224,0,0,0,.6709-0.66309,4.95917,4.95917,0,0,0,.18555-1.60645V70.64648q0-1.52637-1.00781-1.72559l-0.45508-.0957a0.29526,0.29526,0,0,1-.28809-0.292,0.23344,0.23344,0,0,1,.22754-0.291,1.282,1.282,0,0,1,.2207.02832c0.07031,0.00684.16992,0.01953,0.2959,0.03809l0.32715,0.0293a6.24375,6.24375,0,0,0,.69043.05762,9.27956,9.27956,0,0,0,1.16211-.11523,9.44647,9.44647,0,0,1,1.207-.07617q0.45557,0,.45605.27246a0.27325,0.27325,0,0,1-.32617.25293q-0.76611.06738-.76562,1.32617v8.2832Z" transform="translate(0 -4.62765)"/>
    <path class="cls-1" d="M141.84766,73.66016v5.40625a2.80672,2.80672,0,0,0,.23145,1.35352,1.01811,1.01811,0,0,0,.86035.42969,0.22219,0.22219,0,0,1,.25.22363q0,0.25342-.60059.25391c-0.05078,0-.15918-0.00879-0.32617-0.02734l-0.56934-.07129q-0.47168-.0542-0.623-0.05469a6.02369,6.02369,0,0,0-1.08691.13379,1.26752,1.26752,0,0,1-.25781.03906,0.15457,0.15457,0,0,1-.16016-0.18652,0.22583,0.22583,0,0,1,.09863-0.19629l0.25781-.16211a0.87041,0.87041,0,0,0,.28418-0.49512,2.81,2.81,0,0,0,.11816-0.82031l-0.00781-.39941V75.85645a2.89413,2.89413,0,0,0-.125-1.0293,0.45361,0.45361,0,0,0-.45117-0.28613h-0.1748a0.22108,0.22108,0,0,1-.19629-0.07812,0.28047,0.28047,0,0,1-.02344-0.13574,0.48786,0.48786,0,0,1,.46387-0.36914,4.15845,4.15845,0,0,0,1.81836-.92773,0.24864,0.24864,0,0,1,.12891-0.06641c0.07031,0.00684.10547,0.06641,0.10547,0.18066l-0.00684.08594C141.84961,73.28809,141.84766,73.43066,141.84766,73.66016Zm-0.81543-5.21777a1.36489,1.36489,0,0,1,.56641.65039l0.31738,0.5166a0.7028,0.7028,0,0,1,.12109.334,2.05273,2.05273,0,0,1-.415.87012,1.41107,1.41107,0,0,1-.582.64063,0.27659,0.27659,0,0,1-.2041-0.11523l-0.35449-.54492-0.332-.47754a0.65981,0.65981,0,0,1-.12891-0.3252,2.48631,2.48631,0,0,1,.44531-0.87012A1.7961,1.7961,0,0,1,141.03223,68.44238Z" transform="translate(0 -4.62765)"/>
    <path class="cls-1" d="M147.97266,74.47363h-0.72754c-0.30273,0-.45508.2002-0.45508,0.60059v3.89746a3.37954,3.37954,0,0,0,.19336,1.40137,1.18465,1.18465,0,0,0,.82324.51465,0.28827,0.28827,0,0,1,.25781.28223,0.19721,0.19721,0,0,1-.2207.22461c-0.041,0-.16211-0.0166-0.36523-0.04785a7.41018,7.41018,0,0,0-1.27539-.13379,6.62208,6.62208,0,0,0-1.25391.125,1.50941,1.50941,0,0,1-.23535.02734,0.151,0.151,0,0,1-.15234-0.18555,0.29211,0.29211,0,0,1,.13672-0.24414l0.21973-.16211a1.0014,1.0014,0,0,0,.34082-0.86719V74.93164a0.35532,0.35532,0,0,0-.37109-0.42871l-0.23535-.00977H144.4707c-0.19727,0-.2959-0.05371-0.2959-0.16211a0.68355,0.68355,0,0,1,.03027-0.17285,2.50861,2.50861,0,0,0,.06152-0.36328,0.19732,0.19732,0,0,1,.15918-0.21973l0.36328-.02832a0.51554,0.51554,0,0,0,.375-0.14355,0.89933,0.89933,0,0,0,.125-0.4873,10.03051,10.03051,0,0,1,.70508-3.40234q0.86426-1.94971,1.97852-1.9502,0.728,0,.72852.52539a1.18628,1.18628,0,0,1-.03809.249c-0.10156.44629-.16406,0.76465-0.18945,0.95605-0.01562.15918-.05859,0.23828-0.12891,0.23828a0.13376,0.13376,0,0,1-.13672-0.13281l-0.03027-.19824a0.862,0.862,0,0,0-.2832-0.47852A0.6857,0.6857,0,0,0,147.43848,68.5a0.63418,0.63418,0,0,0-.47852.57715,5.4172,5.4172,0,0,0-.17676,1.541l-0.01562,1.4502-0.00781.71484a1.0056,1.0056,0,0,0,.11816.582,0.54135,0.54135,0,0,0,.45117.15332,4.796,4.796,0,0,0,.78418-0.03418,0.91955,0.91955,0,0,0,.35254-0.291l0.06836-.04785c0.06543-.00684.0957,0.03223,0.09082,0.11523l-0.03809.10645-0.18164.71191a0.82667,0.82667,0,0,1-.14062.33691A0.47753,0.47753,0,0,1,147.97266,74.47363Z" transform="translate(0 -4.62765)"/>
    <path class="cls-1" d="M152.45313,73.23145a2.46516,2.46516,0,0,1,2.02441,1.166,3.34654,3.34654,0,0,1,.71191,1.96875,0.34586,0.34586,0,0,1-.4082.373l-0.34863-.01953h-0.17383l-0.46191.00977-1.42969.0293-0.749.00879-0.25781-.00879a0.39935,0.39935,0,0,0-.2793.06641,0.55721,0.55721,0,0,0-.083.35449,3.91314,3.91314,0,0,0,.6543,2.23828,1.84146,1.84146,0,0,0,1.50879.97266,1.88073,1.88073,0,0,0,1.53613-.7041l0.24219-.29883a0.16589,0.16589,0,0,1,.12891-0.07715,0.16378,0.16378,0,0,1,.167.2002,1.90515,1.90515,0,0,1-.584.92773A2.975,2.975,0,0,1,152.4375,81.585a2.5333,2.5333,0,0,1-2.1377-1.13672,4.87289,4.87289,0,0,1-.82617-2.93457,5.143,5.143,0,0,1,.88379-3.01074A2.53172,2.53172,0,0,1,152.45313,73.23145Zm-0.21191.4873a1.08228,1.08228,0,0,0-.89746.63574,2.84315,2.84315,0,0,0-.38379,1.499,0.35763,0.35763,0,0,0,.10938.332,1.73978,1.73978,0,0,0,.5918.05664c0.165,0,.34082-0.00586.52734-0.01953q0.67822-.03662.78418-0.03711a0.53047,0.53047,0,0,0,.66309-0.5127,2.28042,2.28042,0,0,0-.42578-1.36133A1.2031,1.2031,0,0,0,152.24121,73.71875Z" transform="translate(0 -4.62765)"/>
    <path class="cls-1" d="M164.24023,68.02246a3.05819,3.05819,0,0,1,1.39453.34375l0.50781,0.26758a1.30429,1.30429,0,0,0,.48535.17188,0.42875,0.42875,0,0,0,.21973-0.06641l0.28906-.18164a0.22588,0.22588,0,0,1,.12109-0.03809c0.10645,0,.15918.10449,0.15918,0.31543l-0.01465.77441c0,0.12109.00488,0.23535,0.01465,0.34375l0.09863,0.93652,0.07617,0.87012a1.54614,1.54614,0,0,1,.01465.19043c0,0.27441-.0625.41113-0.18945,0.41113-0.09082,0-.15625-0.12012-0.19629-0.3623a4.4116,4.4116,0,0,0-1.10937-2.30664,2.55762,2.55762,0,0,0-1.88281-.97266,1.54257,1.54257,0,0,0-1.19141.58105,2.012,2.012,0,0,0-.50879,1.37109,1.90569,1.90569,0,0,0,.44727,1.2666,7.36084,7.36084,0,0,0,1.7998,1.11719,6.28352,6.28352,0,0,1,2.38379,1.81641,4.66942,4.66942,0,0,1,.69043,2.582,4.59547,4.59547,0,0,1-.95508,2.89746,2.78218,2.78218,0,0,1-2.23633,1.2334,5.20909,5.20909,0,0,1-1.66016-.44922,6.928,6.928,0,0,0-.78125-0.28613,0.82563,0.82563,0,0,1-.40527-0.168,1.39916,1.39916,0,0,1-.09473-0.49219,10.72693,10.72693,0,0,0-.22754-1.2998,10.50547,10.50547,0,0,1-.28809-1.66309q0-.4585.23535-0.459c0.07031,0,.12109.07715,0.15137,0.22949a6.54148,6.54148,0,0,0,1.291,2.75586,2.54056,2.54056,0,0,0,1.90527,1.11523,1.75008,1.75008,0,0,0,1.37012-.73828,2.5985,2.5985,0,0,0,.60352-1.69141,2.23171,2.23171,0,0,0-.31543-1.23926,2.98482,2.98482,0,0,0-1.08887-.915l-1.1543-.64941a6.88237,6.88237,0,0,1-2.21582-1.73535,3.66628,3.66628,0,0,1-.585-2.17578,4.20971,4.20971,0,0,1,.81445-2.63965A2.465,2.465,0,0,1,164.24023,68.02246Z" transform="translate(0 -4.62765)"/>
    <path class="cls-1" d="M173.20215,73.251a1.74971,1.74971,0,0,1,1.667.7832,1.671,1.671,0,0,1,.28125.793,1.30192,1.30192,0,0,1-.68652.78418l-0.32031.22949a0.26444,0.26444,0,0,1-.12988.05762c-0.13184,0-.20508-0.12109-0.2207-0.3623a2.115,2.115,0,0,0-.418-1.19336,1.08475,1.08475,0,0,0-.86328-0.5,1.22162,1.22162,0,0,0-1.04785.75684,3.80707,3.80707,0,0,0-.42285,1.87988,5.822,5.822,0,0,0,.624,2.85938,1.82809,1.82809,0,0,0,1.59277,1.11816,2.64531,2.64531,0,0,0,1.72559-.78418l0.09082-.05664c0.08105-.00586.12109,0.04785,0.12109,0.16113a1.36958,1.36958,0,0,1-.56836.85254,3.13946,3.13946,0,0,1-2.16016.95508,2.52714,2.52714,0,0,1-2.085-1.07422,4.32346,4.32346,0,0,1-.82617-2.71582,5.042,5.042,0,0,1,1.03418-3.251A3.20934,3.20934,0,0,1,173.20215,73.251Z" transform="translate(0 -4.62765)"/>
    <path class="cls-1" d="M179.02344,73.66016v5.40625a2.80672,2.80672,0,0,0,.23145,1.35352,1.01811,1.01811,0,0,0,.86035.42969,0.22219,0.22219,0,0,1,.25.22363q0,0.25342-.60059.25391c-0.05078,0-.15918-0.00879-0.32617-0.02734l-0.56934-.07129q-0.47168-.0542-0.623-0.05469a6.02369,6.02369,0,0,0-1.08691.13379,1.26752,1.26752,0,0,1-.25781.03906,0.15457,0.15457,0,0,1-.16016-0.18652,0.22583,0.22583,0,0,1,.09863-0.19629l0.25781-.16211a0.87041,0.87041,0,0,0,.28418-0.49512A2.81,2.81,0,0,0,177.5,79.48633l-0.00781-.39941V75.85645a2.89413,2.89413,0,0,0-.125-1.0293A0.45361,0.45361,0,0,0,176.916,74.541h-0.1748a0.22108,0.22108,0,0,1-.19629-0.07812,0.28047,0.28047,0,0,1-.02344-0.13574,0.48786,0.48786,0,0,1,.46387-0.36914,4.15845,4.15845,0,0,0,1.81836-.92773,0.24864,0.24864,0,0,1,.12891-0.06641c0.07031,0.00684.10547,0.06641,0.10547,0.18066l-0.00684.08594C179.02539,73.28809,179.02344,73.43066,179.02344,73.66016ZM178.208,68.44238a1.36489,1.36489,0,0,1,.56641.65039l0.31738,0.5166a0.7028,0.7028,0,0,1,.12109.334,2.05273,2.05273,0,0,1-.415.87012,1.41107,1.41107,0,0,1-.582.64063,0.27659,0.27659,0,0,1-.2041-0.11523l-0.35449-.54492-0.332-.47754a0.65981,0.65981,0,0,1-.12891-0.3252,2.48631,2.48631,0,0,1,.44531-0.87012A1.7961,1.7961,0,0,1,178.208,68.44238Z" transform="translate(0 -4.62765)"/>
    <path class="cls-1" d="M184.459,73.23145a2.46516,2.46516,0,0,1,2.02441,1.166,3.34654,3.34654,0,0,1,.71191,1.96875,0.34586,0.34586,0,0,1-.4082.373l-0.34863-.01953h-0.17383l-0.46191.00977-1.42969.0293-0.749.00879-0.25781-.00879a0.39935,0.39935,0,0,0-.2793.06641,0.55721,0.55721,0,0,0-.083.35449,3.91314,3.91314,0,0,0,.6543,2.23828,1.84146,1.84146,0,0,0,1.50879.97266,1.88073,1.88073,0,0,0,1.53613-.7041l0.24219-.29883a0.16589,0.16589,0,0,1,.12891-0.07715,0.16378,0.16378,0,0,1,.167.2002,1.90515,1.90515,0,0,1-.584.92773,2.975,2.975,0,0,1-2.21387,1.14648,2.5333,2.5333,0,0,1-2.1377-1.13672,4.87289,4.87289,0,0,1-.82617-2.93457,5.143,5.143,0,0,1,.88379-3.01074A2.53172,2.53172,0,0,1,184.459,73.23145Zm-0.21191.4873a1.08228,1.08228,0,0,0-.89746.63574,2.84315,2.84315,0,0,0-.38379,1.499,0.35763,0.35763,0,0,0,.10938.332,1.73978,1.73978,0,0,0,.5918.05664c0.165,0,.34082-0.00586.52734-0.01953q0.67822-.03662.78418-0.03711a0.53047,0.53047,0,0,0,.66309-0.5127,2.28042,2.28042,0,0,0-.42578-1.36133A1.2031,1.2031,0,0,0,184.24707,73.71875Z" transform="translate(0 -4.62765)"/>
    <path class="cls-1" d="M195.73145,77.293v1.93555a4.38567,4.38567,0,0,0,.05273.84375,0.92874,0.92874,0,0,0,.24316.42383,1.16434,1.16434,0,0,0,.69727.334,0.231,0.231,0,0,1,.23535.22949c0,0.19141-.18066.28711-0.54,0.28711a2.18084,2.18084,0,0,1-.32617-0.03613l-0.49414-.07227a4.1209,4.1209,0,0,0-.52441-0.04492,4.74649,4.74649,0,0,0-1.1543.1123,1.35363,1.35363,0,0,1-.30371.041,0.16982,0.16982,0,0,1-.167-0.21094,0.26216,0.26216,0,0,1,.17383-0.23828,0.77879,0.77879,0,0,0,.44727-0.44922,3.27453,3.27453,0,0,0,.11426-1.0332V77.16016a4.36058,4.36058,0,0,0-.41113-2.06055,1.2474,1.2474,0,0,0-1.12012-.75977,1.29966,1.29966,0,0,0-1.02246.43945,1.66608,1.66608,0,0,0-.3877,1.14551v3.1875a2.43657,2.43657,0,0,0,.26074,1.2832,1.12226,1.12226,0,0,0,.88379.47266,0.20877,0.20877,0,0,1,.21191.21973,0.23565,0.23565,0,0,1-.26562.26758,4.47844,4.47844,0,0,1-.60059-0.04785,9.26585,9.26585,0,0,0-1.18457-.13379,5.89966,5.89966,0,0,0-1.01758.10254,2.45308,2.45308,0,0,1-.373.05078,0.17308,0.17308,0,0,1-.18945-0.20117,0.21462,0.21462,0,0,1,.12891-0.2002,0.98787,0.98787,0,0,0,.49219-0.39648,1.98537,1.98537,0,0,0,.10645-0.78906l0.00781-.31543V76.06055l-0.00781-.373a2.7889,2.7889,0,0,0-.10937-0.9502,0.40478,0.40478,0,0,0-.40625-0.26367H188.833a0.12612,0.12612,0,0,1-.11328-0.05664,0.2289,0.2289,0,0,1-.03809-0.14355,0.27626,0.27626,0,0,1,.11426-0.25391,4.10843,4.10843,0,0,1,.66895-0.24316,4.164,4.164,0,0,0,1.58984-.832,0.1418,0.1418,0,0,1,.09863-0.05664q0.09082-.01025.09082,0.18164l-0.02344.47754-0.00684.54492,0.04492,0.36328a0.14043,0.14043,0,0,0,.09961.124,0.5309,0.5309,0,0,0,.24219-0.25781,2.108,2.108,0,0,1,1.83789-1.07031,1.86351,1.86351,0,0,1,1.76367.93848A6.69727,6.69727,0,0,1,195.73145,77.293Z" transform="translate(0 -4.62765)"/>
    <path class="cls-1" d="M201.834,73.251a1.74971,1.74971,0,0,1,1.667.7832,1.671,1.671,0,0,1,.28125.793,1.30192,1.30192,0,0,1-.68652.78418l-0.32031.22949a0.26444,0.26444,0,0,1-.12988.05762c-0.13184,0-.20508-0.12109-0.2207-0.3623a2.115,2.115,0,0,0-.418-1.19336,1.08475,1.08475,0,0,0-.86328-0.5,1.22162,1.22162,0,0,0-1.04785.75684,3.80707,3.80707,0,0,0-.42285,1.87988,5.822,5.822,0,0,0,.624,2.85938,1.82809,1.82809,0,0,0,1.59277,1.11816,2.64531,2.64531,0,0,0,1.72559-.78418l0.09082-.05664c0.08105-.00586.12109,0.04785,0.12109,0.16113a1.36958,1.36958,0,0,1-.56836.85254,3.13946,3.13946,0,0,1-2.16016.95508,2.52714,2.52714,0,0,1-2.085-1.07422,4.32346,4.32346,0,0,1-.82617-2.71582,5.042,5.042,0,0,1,1.03418-3.251A3.20934,3.20934,0,0,1,201.834,73.251Z" transform="translate(0 -4.62765)"/>
    <path class="cls-1" d="M208.14844,73.23145a2.46516,2.46516,0,0,1,2.02441,1.166,3.34654,3.34654,0,0,1,.71191,1.96875,0.34586,0.34586,0,0,1-.4082.373l-0.34863-.01953H209.9541l-0.46191.00977-1.42969.0293-0.749.00879-0.25781-.00879a0.39935,0.39935,0,0,0-.2793.06641,0.55721,0.55721,0,0,0-.083.35449,3.91314,3.91314,0,0,0,.6543,2.23828,1.84146,1.84146,0,0,0,1.50879.97266,1.88073,1.88073,0,0,0,1.53613-.7041l0.24219-.29883a0.16589,0.16589,0,0,1,.12891-0.07715,0.16378,0.16378,0,0,1,.167.2002,1.90515,1.90515,0,0,1-.584.92773,2.975,2.975,0,0,1-2.21387,1.14648,2.5333,2.5333,0,0,1-2.1377-1.13672,4.87289,4.87289,0,0,1-.82617-2.93457,5.143,5.143,0,0,1,.88379-3.01074A2.53172,2.53172,0,0,1,208.14844,73.23145Zm-0.21191.4873a1.08228,1.08228,0,0,0-.89746.63574,2.84315,2.84315,0,0,0-.38379,1.499,0.35763,0.35763,0,0,0,.10938.332,1.73978,1.73978,0,0,0,.5918.05664c0.165,0,.34082-0.00586.52734-0.01953q0.67822-.03662.78418-0.03711a0.53047,0.53047,0,0,0,.66309-0.5127,2.28042,2.28042,0,0,0-.42578-1.36133A1.2031,1.2031,0,0,0,207.93652,73.71875Z" transform="translate(0 -4.62765)"/>
    <path class="cls-1" d="M214.84277,73.251a3.37547,3.37547,0,0,1,1.12891.21973,0.44007,0.44007,0,0,1,.334.37207l0.01465,0.4209,0.03809,0.60254,0.01563,0.32422a0.5533,0.5533,0,0,1,.01465.11523,0.15215,0.15215,0,0,1-.16113.18164,1.14457,1.14457,0,0,1-.39941-0.62793,1.61807,1.61807,0,0,0-1.35254-1.2168,0.92056,0.92056,0,0,0-.70312.32227,1.09274,1.09274,0,0,0-.29492.75977,1.40812,1.40812,0,0,0,.88672,1.2627l0.52344,0.2666a6.39356,6.39356,0,0,1,.91016.5498,2.1159,2.1159,0,0,1,.46191.55859,2.92659,2.92659,0,0,1,.37109,1.52832,3.053,3.053,0,0,1-.59863,1.91113,1.78656,1.78656,0,0,1-1.46289.7832,4.12962,4.12962,0,0,1-1.14453-.2002l-0.52344-.16309-0.34082-.06641a0.2334,0.2334,0,0,1-.167-0.26758c0-.05078.00293-0.13086,0.00781-0.23926,0.00977-.1084.01563-0.23242,0.01563-0.373l-0.02344-1.041-0.00781-.46875a0.64331,0.64331,0,0,1,.03418-0.27246,0.21145,0.21145,0,0,1,.17871-0.05273q0.12158,0,.167.25781a5.15716,5.15716,0,0,0,.5,1.4375,1.472,1.472,0,0,0,1.2959.99023,0.95553,0.95553,0,0,0,.75879-0.35547,1.3423,1.3423,0,0,0,.30273-0.89844,1.44424,1.44424,0,0,0-.292-0.9502,3.53516,3.53516,0,0,0-1.11035-.75977,3.50277,3.50277,0,0,1-1.35645-1.01758,2.49236,2.49236,0,0,1-.37988-1.457,2.45329,2.45329,0,0,1,.63672-1.77734A2.28229,2.28229,0,0,1,214.84277,73.251Z" transform="translate(0 -4.62765)"/>
  </g>
</svg>
