<svg id="Слой_1" data-name="Слой 1" xmlns="http://www.w3.org/2000/svg" width="80.43356mm" height="29.63341mm" viewBox="0 0 228.00063 84.00023">
  <defs>
    <style>
      .cls-1, .cls-5, .cls-6 {
        fill: none;
      }

      .cls-1, .cls-2 {
        stroke: #b2b2b2;
      }

      .cls-1, .cls-2, .cls-5 {
        stroke-miterlimit: 10;
        stroke-width: 2px;
      }

      .cls-2, .cls-4 {
        fill: #207a00;
      }

      .cls-3 {
        fill: #062568;
      }

      .cls-5 {
        stroke: #207a00;
      }

      .cls-6 {
        stroke: #fff;
      }

      .cls-7 {
        fill: #fff;
      }
    </style>
  </defs>
  <title>mjal</title>
  <path class="cls-1" d="M227.00063,45.62777H1V8.31516A3.69835,3.69835,0,0,1,4.68751,4.62765H223.31312a3.69835,3.69835,0,0,1,3.68751,3.68751v37.3126Z" transform="translate(0 -3.62765)"/>
  <path class="cls-2" d="M1,42.00011H227.00063a0,0,0,0,1,0,0V79.31519a3.685,3.685,0,0,1-3.685,3.685H4.685A3.685,3.685,0,0,1,1,79.31519V42.00011A0,0,0,0,1,1,42.00011Z"/>
  <g>
    <g>
      <path class="cls-3" d="M68.53043,34.44141V31.43262h2.4292V16.84717h-2.4292V13.88428h9.0957l4.186,15.28564h0.05176L85.9855,13.88428h9.1084v2.96289H92.652V31.43262H95.0939v3.00879H86.41177V31.43262H88.6857V16.84717H88.63394L83.65982,34.44141H79.422L74.44791,16.84717H74.34439V31.43262h2.39014v3.00879h-8.2041Z" transform="translate(0 -3.62765)"/>
      <path class="cls-3" d="M113.34537,13.88428v2.96289H111.1232V28.18262a8.33137,8.33137,0,0,1-1.28564,4.80615q-1.2854,1.8772-5.49707,1.87744-3.33325,0-4.57373-1.65381a8.17662,8.17662,0,0,1-1.24023-4.938V27.57373h4.06982v0.60889a6.88531,6.88531,0,0,0,.42627,2.71582,1.86337,1.86337,0,0,0,1.91211.959q1.95044,0,1.95068-2.917V16.84717h-3.12646V13.88428h9.58643Z" transform="translate(0 -3.62765)"/>
      <path class="cls-3" d="M116.14517,34.44141V31.43262h1.69238l6.938-17.54834h5.07764l6.9248,17.54834h1.64111v3.00879h-8.4624V31.43262h2.54492l-1.33057-3.2959h-8.15234l-1.2666,3.2959h2.49365v3.00879h-8.10059Zm7.93262-9.314h5.98193l-2.9585-7.855Z" transform="translate(0 -3.62765)"/>
      <path class="cls-3" d="M141.38687,34.44141V31.43262h2.37744V16.84717h-2.37744V13.88428h9.729v2.96289h-3.16553V31.43262h6.44678V27.24072h3.605v7.20068H141.38687Z" transform="translate(0 -3.62765)"/>
    </g>
    <g>
      <path class="cls-4" d="M68.53043,34.44141V31.43262h2.4292V16.84717h-2.4292V13.88428h9.0957l4.186,15.28564h0.05176L85.9855,13.88428h9.1084v2.96289H92.652V31.43262H95.0939v3.00879H86.41177V31.43262H88.6857V16.84717H88.63394L83.65982,34.44141H79.422L74.44791,16.84717H74.34439V31.43262h2.39014v3.00879h-8.2041Z" transform="translate(0 -3.62765)"/>
      <path class="cls-4" d="M113.34537,13.88428v2.96289H111.1232V28.18262a8.33137,8.33137,0,0,1-1.28564,4.80615q-1.2854,1.8772-5.49707,1.87744-3.33325,0-4.57373-1.65381a8.17662,8.17662,0,0,1-1.24023-4.938V27.57373h4.06982v0.60889a6.88531,6.88531,0,0,0,.42627,2.71582,1.86337,1.86337,0,0,0,1.91211.959q1.95044,0,1.95068-2.917V16.84717h-3.12646V13.88428h9.58643Z" transform="translate(0 -3.62765)"/>
      <path class="cls-4" d="M116.14517,34.44141V31.43262h1.69238l6.938-17.54834h5.07764l6.9248,17.54834h1.64111v3.00879h-8.4624V31.43262h2.54492l-1.33057-3.2959h-8.15234l-1.2666,3.2959h2.49365v3.00879h-8.10059Zm7.93262-9.314h5.98193l-2.9585-7.855Z" transform="translate(0 -3.62765)"/>
      <path class="cls-4" d="M141.38687,34.44141V31.43262h2.37744V16.84717h-2.37744V13.88428h9.729v2.96289h-3.16553V31.43262h6.44678V27.24072h3.605v7.20068H141.38687Z" transform="translate(0 -3.62765)"/>
    </g>
    <g>
      <path class="cls-5" d="M68.53043,34.44141V31.43262h2.4292V16.84717h-2.4292V13.88428h9.0957l4.186,15.28564h0.05176L85.9855,13.88428h9.1084v2.96289H92.652V31.43262H95.0939v3.00879H86.41177V31.43262H88.6857V16.84717H88.63394L83.65982,34.44141H79.422L74.44791,16.84717H74.34439V31.43262h2.39014v3.00879h-8.2041Z" transform="translate(0 -3.62765)"/>
      <path class="cls-5" d="M113.34537,13.88428v2.96289H111.1232V28.18262a8.33137,8.33137,0,0,1-1.28564,4.80615q-1.2854,1.8772-5.49707,1.87744-3.33325,0-4.57373-1.65381a8.17662,8.17662,0,0,1-1.24023-4.938V27.57373h4.06982v0.60889a6.88531,6.88531,0,0,0,.42627,2.71582,1.86337,1.86337,0,0,0,1.91211.959q1.95044,0,1.95068-2.917V16.84717h-3.12646V13.88428h9.58643Z" transform="translate(0 -3.62765)"/>
      <path class="cls-5" d="M116.14517,34.44141V31.43262h1.69238l6.938-17.54834h5.07764l6.9248,17.54834h1.64111v3.00879h-8.4624V31.43262h2.54492l-1.33057-3.2959h-8.15234l-1.2666,3.2959h2.49365v3.00879h-8.10059Zm7.93262-9.314h5.98193l-2.9585-7.855Z" transform="translate(0 -3.62765)"/>
      <path class="cls-5" d="M141.38687,34.44141V31.43262h2.37744V16.84717h-2.37744V13.88428h9.729v2.96289h-3.16553V31.43262h6.44678V27.24072h3.605v7.20068H141.38687Z" transform="translate(0 -3.62765)"/>
    </g>
    <g>
      <path class="cls-6" d="M68.53043,34.44141V31.43262h2.4292V16.84717h-2.4292V13.88428h9.0957l4.186,15.28564h0.05176L85.9855,13.88428h9.1084v2.96289H92.652V31.43262H95.0939v3.00879H86.41177V31.43262H88.6857V16.84717H88.63394L83.65982,34.44141H79.422L74.44791,16.84717H74.34439V31.43262h2.39014v3.00879h-8.2041Z" transform="translate(0 -3.62765)"/>
      <path class="cls-6" d="M113.34537,13.88428v2.96289H111.1232V28.18262a8.33137,8.33137,0,0,1-1.28564,4.80615q-1.2854,1.8772-5.49707,1.87744-3.33325,0-4.57373-1.65381a8.17662,8.17662,0,0,1-1.24023-4.938V27.57373h4.06982v0.60889a6.88531,6.88531,0,0,0,.42627,2.71582,1.86337,1.86337,0,0,0,1.91211.959q1.95044,0,1.95068-2.917V16.84717h-3.12646V13.88428h9.58643Z" transform="translate(0 -3.62765)"/>
      <path class="cls-6" d="M116.14517,34.44141V31.43262h1.69238l6.938-17.54834h5.07764l6.9248,17.54834h1.64111v3.00879h-8.4624V31.43262h2.54492l-1.33057-3.2959h-8.15234l-1.2666,3.2959h2.49365v3.00879h-8.10059Zm7.93262-9.314h5.98193l-2.9585-7.855Z" transform="translate(0 -3.62765)"/>
      <path class="cls-6" d="M141.38687,34.44141V31.43262h2.37744V16.84717h-2.37744V13.88428h9.729v2.96289h-3.16553V31.43262h6.44678V27.24072h3.605v7.20068H141.38687Z" transform="translate(0 -3.62765)"/>
    </g>
  </g>
  <g>
    <path class="cls-7" d="M58.01382,51.7373l3.106,8.56494a0.76833,0.76833,0,0,0,.34082.55371,0.52413,0.52413,0,0,0,.2793-0.3916l2.85693-7.67529a9.55386,9.55386,0,0,1,.57764-1.36719A0.52192,0.52192,0,0,1,65.63,51.145a2.89664,2.89664,0,0,1,.33447.02881,3.54615,3.54615,0,0,0,.45605.02832,5.38592,5.38592,0,0,0,.76709-0.06689,3.19785,3.19785,0,0,1,.34961-0.02832,0.23812,0.23812,0,0,1,.26611.27246,0.21168,0.21168,0,0,1-.20508.24365,1.16373,1.16373,0,0,0-.99658.60107,4.12588,4.12588,0,0,0-.28418,1.80371l0.00732,0.64893,0.18213,5.936,0.00732,0.3916a4.01737,4.01737,0,0,0,.36768,1.95117,1.54683,1.54683,0,0,0,1.209.749,0.24913,0.24913,0,0,1,.2124.28223q0,0.26221-.51611.2627a3.98618,3.98618,0,0,1-.48584-0.04785,11.44287,11.44287,0,0,0-1.314-.125,7.715,7.715,0,0,0-1.32861.0957,4.49846,4.49846,0,0,1-.68359.0957,0.19507,0.19507,0,0,1-.18994-0.24316,0.27646,0.27646,0,0,1,.22021-0.26367,1.04875,1.04875,0,0,0,.60986-0.48633,2.17393,2.17393,0,0,0,.17822-0.99316c0-.21-0.00244-0.35937-0.00732-0.44922l-0.22021-6.33887q-0.00732-.25781-0.09863-0.25781a0.82982,0.82982,0,0,0-.31152.52588L61.299,63.38916l-0.10547.28613a0.9348,0.9348,0,0,1-.36084.60254,1.9437,1.9437,0,0,1-.55713-1.05176l-0.38574-.99414-2.42725-6.82422-0.05273-.14307a0.09806,0.09806,0,0,0-.09082-0.06689q-0.12085,0-.12109.3916l-0.00732.30615-0.09863,4.82666-0.00781.38281,0.06836,0.89844a1.88851,1.88851,0,0,0,1.18994,1.71973,0.38337,0.38337,0,0,1,.34131.33105,0.22923,0.22923,0,0,1-.26611.252,2.91735,2.91735,0,0,1-.48584-0.04785l-0.53955-.0957A3.4724,3.4724,0,0,0,56.8,64.12451a5.05,5.05,0,0,0-1.0791.08984,1.713,1.713,0,0,1-.37988.06348,0.21607,0.21607,0,0,1-.23535-0.25293,0.263,0.263,0,0,1,.18213-0.25391,1.57888,1.57888,0,0,0,.85254-0.88281,4.6259,4.6259,0,0,0,.269-1.76074l0.20508-6.26953,0.02246-.63916a3.16989,3.16989,0,0,0-.44336-1.79883,1.394,1.394,0,0,0-1.2168-.65381,0.2477,0.2477,0,0,1-.28809-0.272,0.27054,0.27054,0,0,1,.32568-0.28223c0.04541,0,.10352.00342,0.17432,0.00928l0.43945,0.03857q0.12085,0.00952.31055,0.00928a4.2064,4.2064,0,0,0,.69678-0.05713,6.09279,6.09279,0,0,1,.6665-0.07666A0.74923,0.74923,0,0,1,58.01382,51.7373Z" transform="translate(0 -3.62765)"/>
    <path class="cls-7" d="M73.06461,59.66162a4.10074,4.10074,0,0,0,.083-0.748,2.99278,2.99278,0,0,0-.36475-1.56152,1.07472,1.07472,0,0,0-.93652-0.606,0.65919,0.65919,0,0,0-.73.76123,2.40265,2.40265,0,0,0,.01514.27539L71.154,57.96338q0,0.64746-1.17334.64648a0.26939,0.26939,0,0,1-.28955-0.334,0.94826,0.94826,0,0,1,.0376-0.21094c0.01563-.06934.03076-0.15234,0.0459-0.248a1.53308,1.53308,0,0,1,.4624-0.937,2.79154,2.79154,0,0,1,1.94043-.72656,2.43982,2.43982,0,0,1,1.96338.76367,3.14085,3.14085,0,0,1,.50049,2.02393q0,0.7251-.04541,1.82324-0.04614,1.25977-.0459,1.67969,0,0.98291.62158,0.9834a0.62054,0.62054,0,0,0,.32617-0.06738,0.4456,0.4456,0,0,1,.17432-0.06641,0.10779,0.10779,0,0,1,.106.13379,0.57518,0.57518,0,0,1-.29541.44922l-0.2959.19141-0.25732.19043a1.05982,1.05982,0,0,1-.59912.18164,1.39082,1.39082,0,0,1-1.12207-1.08887,4.13947,4.13947,0,0,1-2.34229,1.13672,1.20508,1.20508,0,0,1-1.0083-.46875,2.08084,2.08084,0,0,1-.36377-1.30273,2.44535,2.44535,0,0,1,1.04395-2.20215A9.21474,9.21474,0,0,1,73.06461,59.66162Zm-0.15186.55371a1.50528,1.50528,0,0,0-1.24316.584,2.02721,2.02721,0,0,0-.59131,1.4043q0,1.26123.80371,1.26172a1.357,1.357,0,0,0,.87158-0.2959,0.83675,0.83675,0,0,0,.28027-0.52637A6.92427,6.92427,0,0,0,73.11,61.41064l0.00732-.73633v-0.2002l-0.04541-.21094A0.268,0.268,0,0,0,72.91275,60.21533Z" transform="translate(0 -3.62765)"/>
    <path class="cls-7" d="M83.73013,60.1958v1.93555a4.38568,4.38568,0,0,0,.05273.84375,0.92757,0.92757,0,0,0,.24268.42383,1.167,1.167,0,0,0,.69727.334,0.23067,0.23067,0,0,1,.23535.22949q0,0.28711-.53955.28711a2.186,2.186,0,0,1-.32666-0.03613l-0.49365-.07227a4.1349,4.1349,0,0,0-.52441-0.04492,4.75089,4.75089,0,0,0-1.15479.1123,1.35363,1.35363,0,0,1-.30371.041,0.16982,0.16982,0,0,1-.167-0.21094,0.262,0.262,0,0,1,.17432-0.23828A0.78018,0.78018,0,0,0,82.07,63.35107a3.29274,3.29274,0,0,0,.11377-1.0332V60.063a4.35036,4.35036,0,0,0-.41113-2.05957,1.24629,1.24629,0,0,0-1.12012-.76025,1.29826,1.29826,0,0,0-1.022.439,1.66634,1.66634,0,0,0-.38818,1.14551v3.1875a2.4312,2.4312,0,0,0,.26123,1.2832,1.12206,1.12206,0,0,0,.8833.47266,0.20917,0.20917,0,0,1,.2124.21973,0.2358,0.2358,0,0,1-.26611.26758,4.46591,4.46591,0,0,1-.6001-0.04785,9.27063,9.27063,0,0,0-1.18506-.13379,5.90425,5.90425,0,0,0-1.01758.10254,2.45691,2.45691,0,0,1-.37256.05078,0.17322,0.17322,0,0,1-.18994-0.20117,0.21462,0.21462,0,0,1,.12891-0.2002,0.99173,0.99173,0,0,0,.49268-0.39648,1.99452,1.99452,0,0,0,.10645-0.78906l0.00732-.31543V58.96338L77.696,58.59131a2.78853,2.78853,0,0,0-.10986-0.95117,0.403,0.403,0,0,0-.40576-0.2627H76.8317a0.12769,0.12769,0,0,1-.11377-0.05762,0.2289,0.2289,0,0,1-.03809-0.14355,0.27538,0.27538,0,0,1,.11426-0.25342,4.0537,4.0537,0,0,1,.66943-0.24365,4.17463,4.17463,0,0,0,1.58936-.83154A0.14273,0.14273,0,0,1,79.15152,55.79q0.09082-.00952.09082,0.18164l-0.02295.478-0.00732.54492,0.04541,0.36328a0.14006,0.14006,0,0,0,.09912.124,0.5309,0.5309,0,0,0,.24219-0.25781,2.10925,2.10925,0,0,1,1.83838-1.0708,1.86261,1.86261,0,0,1,1.76318.939A6.69247,6.69247,0,0,1,83.73013,60.1958Z" transform="translate(0 -3.62765)"/>
    <path class="cls-7" d="M89.78726,59.66162a4.10074,4.10074,0,0,0,.083-0.748,2.99278,2.99278,0,0,0-.36475-1.56152,1.07472,1.07472,0,0,0-.93652-0.606,0.65919,0.65919,0,0,0-.73.76123,2.40265,2.40265,0,0,0,.01514.27539l0.02246,0.18066q0,0.64746-1.17334.64648a0.26939,0.26939,0,0,1-.28955-0.334,0.94826,0.94826,0,0,1,.0376-0.21094c0.01563-.06934.03076-0.15234,0.0459-0.248a1.53308,1.53308,0,0,1,.4624-0.937,2.79154,2.79154,0,0,1,1.94043-.72656,2.43982,2.43982,0,0,1,1.96338.76367,3.14085,3.14085,0,0,1,.50049,2.02393q0,0.7251-.04541,1.82324-0.04614,1.25977-.0459,1.67969,0,0.98291.62158,0.9834a0.62054,0.62054,0,0,0,.32617-0.06738,0.4456,0.4456,0,0,1,.17432-0.06641,0.10779,0.10779,0,0,1,.106.13379,0.57518,0.57518,0,0,1-.29541.44922l-0.2959.19141L91.652,64.2583a1.05982,1.05982,0,0,1-.59912.18164,1.39082,1.39082,0,0,1-1.12207-1.08887,4.13947,4.13947,0,0,1-2.34229,1.13672,1.20508,1.20508,0,0,1-1.0083-.46875,2.08084,2.08084,0,0,1-.36377-1.30273,2.44535,2.44535,0,0,1,1.04395-2.20215A9.21474,9.21474,0,0,1,89.78726,59.66162Zm-0.15186.55371a1.50528,1.50528,0,0,0-1.24316.584,2.02721,2.02721,0,0,0-.59131,1.4043q0,1.26123.80371,1.26172a1.357,1.357,0,0,0,.87158-0.2959,0.83675,0.83675,0,0,0,.28027-0.52637,6.92427,6.92427,0,0,0,.07617-1.23242L89.84,60.67432v-0.2002l-0.04541-.21094A0.268,0.268,0,0,0,89.63541,60.21533Z" transform="translate(0 -3.62765)"/>
    <path class="cls-7" d="M95.87466,56.15332a3.37809,3.37809,0,0,1,1.12939.21973,0.43989,0.43989,0,0,1,.3335.373l0.01514,0.42041L97.39078,57.769l0.01514,0.3252a0.54958,0.54958,0,0,1,.01514.11426,0.15215,0.15215,0,0,1-.16113.18164,1.14383,1.14383,0,0,1-.3999-0.62793,1.61826,1.61826,0,0,0-1.35254-1.2168,0.91917,0.91917,0,0,0-.70264.32275,1.08769,1.08769,0,0,0-.29492.75928,1.40609,1.40609,0,0,0,.88672,1.2627l0.52344,0.2666a6.47479,6.47479,0,0,1,.90967.5498,2.14906,2.14906,0,0,1,.4624.55859,2.92882,2.92882,0,0,1,.37109,1.52832,3.056,3.056,0,0,1-.59863,1.91113,1.78656,1.78656,0,0,1-1.46289.7832,4.13555,4.13555,0,0,1-1.145-.2002l-0.52295-.16309-0.34082-.06641a0.2334,0.2334,0,0,1-.167-0.26758c0-.05078.00244-0.13086,0.00781-0.23926,0.00977-.1084.01514-0.23242,0.01514-0.373l-0.02295-1.041-0.00781-.46875A0.64331,0.64331,0,0,1,93.4523,61.396a0.21025,0.21025,0,0,1,.17822-0.05273q0.12158,0,.167.25781a5.17311,5.17311,0,0,0,.5,1.4375,1.47261,1.47261,0,0,0,1.29639.99023,0.95526,0.95526,0,0,0,.7583-0.35547,1.34009,1.34009,0,0,0,.30322-0.89844,1.44424,1.44424,0,0,0-.292-0.9502,3.54721,3.54721,0,0,0-1.11035-.75977,3.49932,3.49932,0,0,1-1.35693-1.01758,2.49028,2.49028,0,0,1-.37939-1.457,2.45322,2.45322,0,0,1,.63672-1.77783A2.2819,2.2819,0,0,1,95.87466,56.15332Z" transform="translate(0 -3.62765)"/>
    <path class="cls-7" d="M106.95718,53.60986v7.7373l-0.00732.85938a8.27459,8.27459,0,0,1-.22363,2.09668,5.41924,5.41924,0,0,1-.78467,1.65723q-1.0686,1.56738-1.81934,1.56738a0.71976,0.71976,0,0,1-.29541-0.05762l-0.4248-.17187-0.37158-.124a0.46015,0.46015,0,0,1-.15137-0.40234,2.49923,2.49923,0,0,1,.03809-0.40137l0.18164-1.21387c0.02588-.18457.07666-0.27637,0.15332-0.27637a0.84205,0.84205,0,0,1,.52148.43262l0.293,0.41406a0.903,0.903,0,0,0,.57861.47168q0.58374,0,.584-1.8252l-0.01514-.707V56.46875q0-2.217-.042-2.94873a3.73455,3.73455,0,0,0-.18555-1.09424,0.86322,0.86322,0,0,0-.39795-0.46826,3.03432,3.03432,0,0,0-.936-0.21045,0.24575,0.24575,0,0,1-.22754-0.28125,0.30049,0.30049,0,0,1,.34863-0.33057,5.10068,5.10068,0,0,1,.51563.03857q1.0686,0.12378,1.20508.124a5.49117,5.49117,0,0,0,.7959-0.08594q1.092-.1626,1.27344-0.1626a0.27277,0.27277,0,0,1,.34131.26318,0.28468,0.28468,0,0,1-.22754.25293,0.94307,0.94307,0,0,0-.56836.59717A4.85723,4.85723,0,0,0,106.95718,53.60986Z" transform="translate(0 -3.62765)"/>
    <path class="cls-7" d="M113.18863,56.15332a2.9198,2.9198,0,0,1,2.36523,1.146,4.46369,4.46369,0,0,1,.93262,2.91211,4.6328,4.6328,0,0,1-1.01221,3.0498,3.13831,3.13831,0,0,1-2.52051,1.22656,2.94478,2.94478,0,0,1-2.36133-1.13574,4.31662,4.31662,0,0,1-.94385-2.85449,4.71235,4.71235,0,0,1,1.03467-3.07422A3.12982,3.12982,0,0,1,113.18863,56.15332Zm-0.39258.52588a1.29914,1.29914,0,0,0-1.16309.78125,4.37144,4.37144,0,0,0-.43018,2.10352,6.71872,6.71872,0,0,0,.66455,3.10352,1.91421,1.91421,0,0,0,1.60059,1.29492,1.3296,1.3296,0,0,0,1.15918-.73828,3.60629,3.60629,0,0,0,.44922-1.89844,7.41628,7.41628,0,0,0-.66455-3.29395A1.93377,1.93377,0,0,0,112.79605,56.6792Z" transform="translate(0 -3.62765)"/>
    <path class="cls-7" d="M124.85562,56.25781v5.91846a3.05386,3.05386,0,0,0,.12109,1.13184,0.71841,0.71841,0,0,0,.65186.21484l0.17432-.00977a0.37,0.37,0,0,1,.13672.01953,0.21436,0.21436,0,0,1,.12891.21387q0,0.33984-.51709.33984h-0.36475a4.73206,4.73206,0,0,0-.48633.01953,5.10263,5.10263,0,0,0-1.07959.22949,0.40471,0.40471,0,0,1-.13672.02832c-0.11182,0-.16748-0.11816-0.16748-0.35352a2.92083,2.92083,0,0,1,.01514-0.3252q0.01538-.19043.01514-0.28711,0-.28564-0.09814-0.2959a0.24207,0.24207,0,0,0-.12109.11523l-0.27246.35352a2.05134,2.05134,0,0,1-1.67236.917,1.95068,1.95068,0,0,1-1.6875-.78223,3.93778,3.93778,0,0,1-.56787-2.32031q0-2.0332.06055-3.52246c0.00537-.17773.00781-0.33105,0.00781-0.458a0.56828,0.56828,0,0,0-.44727-0.69727l-0.30322-.02832a0.21,0.21,0,0,1-.19727-0.2627,0.26765,0.26765,0,0,1,.23193-0.24756,3.78148,3.78148,0,0,1,.86328-0.06348,2.75124,2.75124,0,0,0,1.05664-.19092,0.98994,0.98994,0,0,1,.31934-0.07666q0.12891,0,.12891.21973c0,0.17188-.00488.34717-0.01514,0.5249q-0.06812,1.01221-.06787,3.542a7.81828,7.81828,0,0,0,.27881,2.60059,1.091,1.091,0,0,0,1.11572.6543,1.167,1.167,0,0,0,1.01025-.49707,2.42334,2.42334,0,0,0,.35449-1.4209V57.90771a2.42619,2.42619,0,0,0-.11768-0.99512,0.981,0.981,0,0,0-.66309-0.272,0.22494,0.22494,0,0,1-.23535-0.2334q0-.30176.45654-0.30176a4.99515,4.99515,0,0,0,1.83252-.22949,0.38989,0.38989,0,0,1,.15967-0.04736q0.1062-.00952.106,0.19043Z" transform="translate(0 -3.62765)"/>
    <path class="cls-7" d="M129.82046,59.42041v2.68066a1.44279,1.44279,0,0,0,1.12207,1.69922,0.23158,0.23158,0,0,1,.23486.2334c0,0.16309-.05811.24414-0.1748,0.24414a1.0526,1.0526,0,0,1-.2124-0.02832,8.41182,8.41182,0,0,0-1.56494-.14355,6.97807,6.97807,0,0,0-.76709.03809l-0.47119.05762a1.81953,1.81953,0,0,1-.26562.01855,0.20754,0.20754,0,0,1-.21289-0.25293,0.23261,0.23261,0,0,1,.18945-0.23437q0.59912-.18164.59912-1.41992l-0.00781-.40039V58.50146a1.94957,1.94957,0,0,0-.14014-0.91016,0.76162,0.76162,0,0,0-.60254-0.27148,0.18079,0.18079,0,0,1-.17432-0.20557,0.23057,0.23057,0,0,1,.20557-0.25342,4.40812,4.40812,0,0,0,1.78027-.73633l0.2959-.21973a0.18774,0.18774,0,0,1,.11377-0.04785q0.11353,0,.11377.21045c0,0.04443-.00293.13721-0.00781,0.27734l-0.02295.53516-0.03027.59229,0.00781,0.10547a0.15037,0.15037,0,0,0,.11279.14355,0.99369,0.99369,0,0,0,.33008-0.459,3.58371,3.58371,0,0,1,.62744-0.7793,1.28135,1.28135,0,0,1,.582-0.41553,2.36941,2.36941,0,0,1,1.29639,1.24268,3.63635,3.63635,0,0,1-.24512.66895,1.03853,1.03853,0,0,1-.55078.73633,0.239,0.239,0,0,1-.18066-0.0957l-0.21094-.23926a1.13794,1.13794,0,0,0-.88086-0.44922Q129.821,57.93115,129.82046,59.42041Z" transform="translate(0 -3.62765)"/>
    <path class="cls-7" d="M140.904,60.1958v1.93555a4.38567,4.38567,0,0,0,.05273.84375,0.92757,0.92757,0,0,0,.24268.42383,1.167,1.167,0,0,0,.69727.334,0.23067,0.23067,0,0,1,.23535.22949q0,0.28711-.53955.28711a2.186,2.186,0,0,1-.32666-0.03613l-0.49365-.07227a4.13491,4.13491,0,0,0-.52441-0.04492,4.75089,4.75089,0,0,0-1.15479.1123,1.35363,1.35363,0,0,1-.30371.041,0.16982,0.16982,0,0,1-.167-0.21094,0.262,0.262,0,0,1,.17432-0.23828,0.78018,0.78018,0,0,0,.44727-0.44922,3.29274,3.29274,0,0,0,.11377-1.0332V60.063a4.35036,4.35036,0,0,0-.41113-2.05957,1.24629,1.24629,0,0,0-1.12012-.76025,1.29826,1.29826,0,0,0-1.022.439,1.66634,1.66634,0,0,0-.38818,1.14551v3.1875a2.4312,2.4312,0,0,0,.26123,1.2832,1.12206,1.12206,0,0,0,.8833.47266,0.20917,0.20917,0,0,1,.2124.21973,0.2358,0.2358,0,0,1-.26611.26758,4.46591,4.46591,0,0,1-.6001-0.04785,9.27063,9.27063,0,0,0-1.18506-.13379,5.90425,5.90425,0,0,0-1.01758.10254,2.45691,2.45691,0,0,1-.37256.05078,0.17322,0.17322,0,0,1-.18994-0.20117,0.21462,0.21462,0,0,1,.12891-0.2002,0.99173,0.99173,0,0,0,.49268-0.39648,1.99452,1.99452,0,0,0,.10645-0.78906l0.00732-.31543V58.96338l-0.00732-.37207a2.78853,2.78853,0,0,0-.10986-0.95117,0.403,0.403,0,0,0-.40576-0.2627h-0.34863a0.12769,0.12769,0,0,1-.11377-0.05762,0.2289,0.2289,0,0,1-.03809-0.14355,0.27538,0.27538,0,0,1,.11426-0.25342,4.0537,4.0537,0,0,1,.66943-0.24365,4.17463,4.17463,0,0,0,1.58936-.83154,0.14273,0.14273,0,0,1,.09863-0.05762q0.09082-.00952.09082,0.18164l-0.02295.478-0.00732.54492,0.04541,0.36328a0.14006,0.14006,0,0,0,.09912.124,0.5309,0.5309,0,0,0,.24219-0.25781,2.10925,2.10925,0,0,1,1.83838-1.0708,1.86261,1.86261,0,0,1,1.76318.939A6.69247,6.69247,0,0,1,140.904,60.1958Z" transform="translate(0 -3.62765)"/>
    <path class="cls-7" d="M146.96109,59.66162a4.10074,4.10074,0,0,0,.083-0.748,2.99278,2.99278,0,0,0-.36475-1.56152,1.07472,1.07472,0,0,0-.93652-0.606,0.65919,0.65919,0,0,0-.73.76123,2.40265,2.40265,0,0,0,.01514.27539l0.02246,0.18066q0,0.64746-1.17334.64648a0.26939,0.26939,0,0,1-.28955-0.334,0.94826,0.94826,0,0,1,.0376-0.21094c0.01563-.06934.03076-0.15234,0.0459-0.248a1.53308,1.53308,0,0,1,.4624-0.937,2.79154,2.79154,0,0,1,1.94043-.72656,2.43982,2.43982,0,0,1,1.96338.76367,3.14085,3.14085,0,0,1,.50049,2.02393q0,0.7251-.04541,1.82324-0.04614,1.25977-.0459,1.67969,0,0.98291.62158,0.9834a0.62054,0.62054,0,0,0,.32617-0.06738,0.4456,0.4456,0,0,1,.17432-0.06641,0.10779,0.10779,0,0,1,.106.13379,0.57518,0.57518,0,0,1-.29541.44922l-0.2959.19141-0.25732.19043a1.05982,1.05982,0,0,1-.59912.18164,1.39082,1.39082,0,0,1-1.12207-1.08887,4.13947,4.13947,0,0,1-2.34229,1.13672,1.20508,1.20508,0,0,1-1.0083-.46875,2.08084,2.08084,0,0,1-.36377-1.30273,2.44535,2.44535,0,0,1,1.04395-2.20215A9.21474,9.21474,0,0,1,146.96109,59.66162Zm-0.15186.55371a1.50528,1.50528,0,0,0-1.24316.584,2.02721,2.02721,0,0,0-.59131,1.4043q0,1.26123.80371,1.26172a1.357,1.357,0,0,0,.87158-0.2959,0.83675,0.83675,0,0,0,.28027-0.52637,6.92428,6.92428,0,0,0,.07617-1.23242l0.00732-.73633v-0.2002l-0.04541-.21094A0.268,0.268,0,0,0,146.80923,60.21533Z" transform="translate(0 -3.62765)"/>
    <path class="cls-7" d="M153.00211,53.16895v8.44385l0.00781,0.31543a2.85,2.85,0,0,0,.2124,1.3125,1.18256,1.18256,0,0,0,.8335.502,0.5117,0.5117,0,0,1,.23145.07813,0.31917,0.31917,0,0,1,.03418.18457q0,0.23438-.15186.23438a1.89034,1.89034,0,0,1-.26611-0.0293,9.06379,9.06379,0,0,0-1.49658-.10449,6.82184,6.82184,0,0,0-1.39014.0957,0.91139,0.91139,0,0,1-.17432.02832c-0.10645,0-.15967-0.08105-0.15967-0.24414a0.27862,0.27862,0,0,1,.18945-0.22461,1.26793,1.26793,0,0,0,.57617-1.25l0.01514-.55371,0.00732-.25684V53.99951a5.72652,5.72652,0,0,0-.1626-1.67969,0.60339,0.60339,0,0,0-.603-0.44824,0.21022,0.21022,0,0,1-.21973-0.25293,0.21805,0.21805,0,0,1,.0835-0.19873,2.16282,2.16282,0,0,1,.45654-0.15088,4.50258,4.50258,0,0,0,1.55225-.69775l0.25781-.19092a0.32152,0.32152,0,0,1,.13623-0.05762c0.07617-.00586.11377,0.05762,0.11377,0.19141q0,0.10474-.01514.47754Q153.00235,52.28076,153.00211,53.16895Z" transform="translate(0 -3.62765)"/>
    <path class="cls-7" d="M163.53189,56.15332a2.9198,2.9198,0,0,1,2.36523,1.146,4.46369,4.46369,0,0,1,.93262,2.91211,4.6328,4.6328,0,0,1-1.01221,3.0498,3.13831,3.13831,0,0,1-2.52051,1.22656,2.94478,2.94478,0,0,1-2.36133-1.13574,4.31662,4.31662,0,0,1-.94385-2.85449,4.71235,4.71235,0,0,1,1.03467-3.07422A3.12982,3.12982,0,0,1,163.53189,56.15332Zm-0.39258.52588a1.29914,1.29914,0,0,0-1.16309.78125,4.37144,4.37144,0,0,0-.43018,2.10352,6.71872,6.71872,0,0,0,.66455,3.10352,1.91421,1.91421,0,0,0,1.60059,1.29492,1.3296,1.3296,0,0,0,1.15918-.73828,3.60629,3.60629,0,0,0,.44922-1.89844,7.41628,7.41628,0,0,0-.66455-3.29395A1.93377,1.93377,0,0,0,163.13931,56.6792Z" transform="translate(0 -3.62765)"/>
    <path class="cls-7" d="M172.12857,57.37744H171.401q-0.45483,0-.45508.59961v3.89746a3.37953,3.37953,0,0,0,.19336,1.40137,1.1835,1.1835,0,0,0,.82275.51465,0.28784,0.28784,0,0,1,.25781.28223,0.197,0.197,0,0,1-.2207.22461c-0.04053,0-.16211-0.0166-0.36475-0.04785a7.41047,7.41047,0,0,0-1.27588-.13379,6.62209,6.62209,0,0,0-1.25391.125,1.50324,1.50324,0,0,1-.23535.02734,0.15088,0.15088,0,0,1-.15186-0.18555,0.29159,0.29159,0,0,1,.13623-0.24414l0.22021-.16211a1.0027,1.0027,0,0,0,.34082-0.86719V57.83447a0.35552,0.35552,0,0,0-.37109-0.42871l-0.23535-.00977h-0.18164c-0.19727,0-.2959-0.05371-0.2959-0.1626a0.65937,0.65937,0,0,1,.03027-0.17187,2.57963,2.57963,0,0,0,.061-0.36328,0.19737,0.19737,0,0,1,.15918-0.21973l0.36377-.02881a0.51554,0.51554,0,0,0,.375-0.14355,0.90232,0.90232,0,0,0,.125-0.4873,10.03359,10.03359,0,0,1,.70508-3.40283q0.86426-1.94971,1.97852-1.94971,0.728,0,.728.52588a1.18716,1.18716,0,0,1-.03809.24854q-0.15161.6687-.18945,0.95557-0.02271.23877-.12891,0.23877a0.13394,0.13394,0,0,1-.13672-0.13232l-0.02979-.19873a0.86486,0.86486,0,0,0-.2832-0.47852,0.68668,0.68668,0,0,0-.45605-0.22266,0.63511,0.63511,0,0,0-.479.57715,5.4172,5.4172,0,0,0-.17676,1.541l-0.01514,1.44971-0.00781.71582a1.01354,1.01354,0,0,0,.11768.582,0.54435,0.54435,0,0,0,.45117.15234,4.85149,4.85149,0,0,0,.78418-0.0332,0.92854,0.92854,0,0,0,.35254-0.2915l0.06836-.04785c0.06543-.00635.09619,0.03223,0.09082,0.11572l-0.0376.10547-0.18213.7124a0.82838,0.82838,0,0,1-.14014.33691A0.47686,0.47686,0,0,1,172.12857,57.37744Z" transform="translate(0 -3.62765)"/>
    <path class="cls-7" d="M20.57193,68.43408l3.44922,9.98047a3.11314,3.11314,0,0,0,.60645,1.127,1.70862,1.70862,0,0,0,.90186.49707,0.233,0.233,0,0,1,.13623.27246c0,0.1748-.05811.25879-0.17432,0.25293a2.15591,2.15591,0,0,1-.28857-0.05762,7.763,7.763,0,0,0-1.8833-.16211,6.79537,6.79537,0,0,0-1.77686.15137,0.61674,0.61674,0,0,1-.19727.04,0.21919,0.21919,0,0,1-.2124-0.27344,0.22259,0.22259,0,0,1,.1665-0.20508,1.33386,1.33386,0,0,0,.84131-1.2041,9.5373,9.5373,0,0,0-.65723-2.35156,0.97887,0.97887,0,0,0-.4502-0.63574,9.59451,9.59451,0,0,0-1.74219-.08105H18.26285l-0.68066.15332a2.59726,2.59726,0,0,0-.63477,1.25781l-0.23437.73438a1.98779,1.98779,0,0,0-.106.63965,1.32363,1.32363,0,0,0,1.334,1.3916,0.27458,0.27458,0,0,1,.28076.28223,0.24214,0.24214,0,0,1-.27344.25391,1.89306,1.89306,0,0,1-.3877-0.05762,3.7575,3.7575,0,0,0-.896-0.124,10.97967,10.97967,0,0,0-1.15479.09473q-0.59253.07764-.73682,0.07715a0.198,0.198,0,0,1-.21289-0.2334,0.31389,0.31389,0,0,1,.2124-0.293,1.29734,1.29734,0,0,0,.65576-0.5957,13.51639,13.51639,0,0,0,.73145-1.82812l2.06934-6.01172q0.25049-.71631.34912-0.9834l0.70459-1.82227,0.36426-.89746v0.0293a1.67674,1.67674,0,0,1,.32568-0.72656,1.57452,1.57452,0,0,1,.417.80273Zm0.28418,5.97559-0.99023-2.917a2.05269,2.05269,0,0,0-.50635-1.04785,1.42593,1.42593,0,0,0-.33252.67676l-0.144.40039-0.88428,2.54492-0.0835.23828a0.72109,0.72109,0,0,0-.05322.248q0,0.32373.54492,0.32324h2.23779q0.28711,0,.28711-0.19922a0.60307,0.60307,0,0,0-.03809-0.16211Z" transform="translate(0 -3.62765)"/>
    <path class="cls-7" d="M31.41226,73.13428a1.38794,1.38794,0,0,0,.81494-0.34766A1.32693,1.32693,0,0,0,32.55679,71.98a0.16337,0.16337,0,0,1,.15186-0.19043c0.08545,0,.12842.083,0.12842,0.248,0,0.15918-.03027.498-0.09082,1.01953-0.04053.35547-.063,0.58789-0.06836,0.69531a0.54469,0.54469,0,0,1-.106.32422,2.30141,2.30141,0,0,1-.47754.334,2.6384,2.6384,0,0,0,.02295.2959q0.03735,0.4585.0376,0.56348a2.257,2.257,0,0,1-.78467,1.748,2.78477,2.78477,0,0,1-1.93652.707,3.33536,3.33536,0,0,1-.76562-0.0957,1.10844,1.10844,0,0,0-.26562-0.03809,0.47268,0.47268,0,0,0-.3999.23438,0.99557,0.99557,0,0,0-.16113.57813q0,0.82178,1.13965.82227a7.92513,7.92513,0,0,1,2.93457.34961,1.41947,1.41947,0,0,1,.72461,1.42188,2.7502,2.7502,0,0,1-.81689,2.01172,3.28835,3.28835,0,0,1-2.43457.82324,4.36272,4.36272,0,0,1-2.14795-.42676,1.34641,1.34641,0,0,1-.74072-1.23145,1.40688,1.40688,0,0,1,.23438-0.77637,0.92907,0.92907,0,0,1,.55273-0.44141,0.5424,0.5424,0,0,0,.36328-0.17285l-0.06055-.124-0.22705-.28711a1.66351,1.66351,0,0,1-.33984-1.03223,2.13008,2.13008,0,0,1,.51514-1.43262l0.24268-.28711a0.28966,0.28966,0,0,0,.06836-0.18164,0.65463,0.65463,0,0,0-.311-0.37207,1.933,1.933,0,0,1-.5874-0.84961,3.0059,3.0059,0,0,1-.25391-1.1543,2.62266,2.62266,0,0,1,2.71387-2.709A2.89435,2.89435,0,0,1,31.41226,73.13428Zm-3.05811,7.83105a0.58491,0.58491,0,0,0-.48486.2627,1.05828,1.05828,0,0,0-.19434.64551,1.35124,1.35124,0,0,0,.53076,1.123,2.28635,2.28635,0,0,0,1.44775.416,2.15894,2.15894,0,0,0,1.29639-.3584,1.12228,1.12228,0,0,0,.49268-0.95117A0.68912,0.68912,0,0,0,31.1398,81.439a4.45257,4.45257,0,0,0-1.40771-.27246,8.64975,8.64975,0,0,1-.99951-0.13379l-0.19678-.04785A0.961,0.961,0,0,0,28.35416,80.96533Zm1.05664-8.20117a1.02408,1.02408,0,0,0-.91553.57031,3.0715,3.0715,0,0,0-.33545,1.55762,3.78555,3.78555,0,0,0,.36182,1.75781,1.054,1.054,0,0,0,.9043.69336,1.0164,1.0164,0,0,0,.89648-0.56543,2.86523,2.86523,0,0,0,.33936-1.48633Q30.66177,72.76465,29.4108,72.76416Z" transform="translate(0 -3.62765)"/>
    <path class="cls-7" d="M36.567,75.61963v2.68164a1.44279,1.44279,0,0,0,1.12207,1.69922,0.23158,0.23158,0,0,1,.23486.2334c0,0.16309-.05811.24414-0.1748,0.24414a1.0526,1.0526,0,0,1-.2124-0.02832,8.41182,8.41182,0,0,0-1.56494-.14355,6.97807,6.97807,0,0,0-.76709.03809l-0.47119.05762a1.81953,1.81953,0,0,1-.26562.01855,0.20754,0.20754,0,0,1-.21289-0.25293,0.23261,0.23261,0,0,1,.18945-0.23437q0.59912-.18164.59912-1.41992l-0.00781-.40039V74.70166a1.94681,1.94681,0,0,0-.14014-0.91016A0.76162,0.76162,0,0,0,34.29312,73.52a0.18134,0.18134,0,0,1-.17432-0.20508,0.23047,0.23047,0,0,1,.20557-0.25391,4.40131,4.40131,0,0,0,1.78027-.73633l0.2959-.21973a0.19073,0.19073,0,0,1,.11377-0.04785c0.07568,0,.11377.07031,0.11377,0.21,0,0.04492-.00293.1377-0.00781,0.27734l-0.02295.53516-0.03027.59277,0.00781,0.10547a0.15245,0.15245,0,0,0,.11279.14355,1.00085,1.00085,0,0,0,.33008-0.459,3.58371,3.58371,0,0,1,.62744-0.7793,1.27985,1.27985,0,0,1,.582-0.416,2.36808,2.36808,0,0,1,1.29639,1.24316,3.63635,3.63635,0,0,1-.24512.66895,1.03853,1.03853,0,0,1-.55078.73633,0.239,0.239,0,0,1-.18066-0.0957l-0.21094-.23926a1.13495,1.13495,0,0,0-.88086-0.44922Q36.56754,74.13135,36.567,75.61963Z" transform="translate(0 -3.62765)"/>
    <path class="cls-7" d="M43.15445,72.76318v5.40625a2.80672,2.80672,0,0,0,.23145,1.35352,1.01946,1.01946,0,0,0,.86035.42969,0.22194,0.22194,0,0,1,.25.22363q0,0.25342-.6001.25391c-0.05078,0-.15967-0.00879-0.32666-0.02734l-0.56934-.07129q-0.47168-.0542-0.623-0.05469a6.01433,6.01433,0,0,0-1.08643.13379,1.27124,1.27124,0,0,1-.2583.03906,0.15426,0.15426,0,0,1-.15967-0.18652,0.22471,0.22471,0,0,1,.09863-0.19629l0.25781-.16211a0.87041,0.87041,0,0,0,.28418-0.49512,2.82634,2.82634,0,0,0,.11768-0.82031l-0.00781-.39941V74.95947a2.88267,2.88267,0,0,0-.125-1.0293A0.45278,0.45278,0,0,0,41.047,73.644H40.87271a0.22207,0.22207,0,0,1-.19678-0.07812,0.28771,0.28771,0,0,1-.02295-0.13574,0.48731,0.48731,0,0,1,.46387-0.36914,4.15644,4.15644,0,0,0,1.81787-.92773,0.24864,0.24864,0,0,1,.12891-0.06641c0.0708,0.00684.106,0.06641,0.106,0.18066l-0.00732.08594C43.15689,72.39111,43.15445,72.53369,43.15445,72.76318Zm-0.81494-5.21777a1.3702,1.3702,0,0,1,.56641.65039l0.31738,0.5166a0.70679,0.70679,0,0,1,.12061.334,2.03992,2.03992,0,0,1-.415.87012,1.41135,1.41135,0,0,1-.58154.64063,0.27579,0.27579,0,0,1-.2041-0.11523l-0.355-.54492-0.332-.47754a0.65811,0.65811,0,0,1-.12842-0.3252,2.48631,2.48631,0,0,1,.44531-0.87012A1.78646,1.78646,0,0,1,42.33951,67.54541Z" transform="translate(0 -3.62765)"/>
    <path class="cls-7" d="M49.25748,72.354a1.751,1.751,0,0,1,1.66748.7832,1.67467,1.67467,0,0,1,.28076.793,1.30054,1.30054,0,0,1-.686.78418l-0.32031.22949a0.268,0.268,0,0,1-.12988.05762c-0.13184,0-.20557-0.12109-0.2207-0.3623a2.11175,2.11175,0,0,0-.41846-1.19336,1.08407,1.08407,0,0,0-.86328-0.5,1.22162,1.22162,0,0,0-1.04785.75684,3.81245,3.81245,0,0,0-.42236,1.87988,5.822,5.822,0,0,0,.624,2.85938,1.82755,1.82755,0,0,0,1.59277,1.11816,2.64423,2.64423,0,0,0,1.7251-.78418l0.09082-.05664q0.12158-.00879.12158,0.16113a1.36872,1.36872,0,0,1-.56885.85254,3.13857,3.13857,0,0,1-2.16016.95508,2.52714,2.52714,0,0,1-2.085-1.07422,4.32346,4.32346,0,0,1-.82617-2.71582,5.04229,5.04229,0,0,1,1.03467-3.251A3.20844,3.20844,0,0,1,49.25748,72.354Z" transform="translate(0 -3.62765)"/>
    <path class="cls-7" d="M59.3317,72.4585v5.918a3.05386,3.05386,0,0,0,.12109,1.13184,0.71841,0.71841,0,0,0,.65186.21484l0.17432-.00977a0.37,0.37,0,0,1,.13672.01953,0.21436,0.21436,0,0,1,.12891.21387q0,0.33984-.51709.33984H59.66275a4.73206,4.73206,0,0,0-.48633.01953,5.10263,5.10263,0,0,0-1.07959.22949,0.40471,0.40471,0,0,1-.13672.02832c-0.11182,0-.16748-0.11816-0.16748-0.35352a2.92083,2.92083,0,0,1,.01514-0.3252q0.01538-.19043.01514-0.28711,0-.28564-0.09814-0.2959a0.24207,0.24207,0,0,0-.12109.11523l-0.27246.35352a2.05134,2.05134,0,0,1-1.67236.917,1.95068,1.95068,0,0,1-1.6875-.78223,3.93778,3.93778,0,0,1-.56787-2.32031q0-2.0332.06055-3.52246c0.00537-.17773.00781-0.33105,0.00781-0.458a0.56854,0.56854,0,0,0-.44727-0.69727l-0.30322-.02832a0.20975,0.20975,0,0,1-.19727-0.2627,0.26811,0.26811,0,0,1,.23193-0.248,3.82883,3.82883,0,0,1,.86328-0.0625,2.76038,2.76038,0,0,0,1.05664-.19141,0.99966,0.99966,0,0,1,.31934-0.07617q0.12891,0,.12891.21973,0,0.25781-.01514.52441-0.06812,1.01221-.06787,3.542A7.81828,7.81828,0,0,0,55.32,78.92529a1.091,1.091,0,0,0,1.11572.6543,1.167,1.167,0,0,0,1.01025-.49707,2.42334,2.42334,0,0,0,.35449-1.4209V74.10791a2.42456,2.42456,0,0,0-.11768-0.99512,0.97658,0.97658,0,0,0-.66309-0.27148,0.22546,0.22546,0,0,1-.23535-0.2334q0-.30176.45654-0.30176a5.01679,5.01679,0,0,0,1.83252-.22949,0.38443,0.38443,0,0,1,.15967-0.04785c0.0708-.00684.106,0.05762,0.106,0.19043Z" transform="translate(0 -3.62765)"/>
    <path class="cls-7" d="M64.16812,69.36963V77.813l0.00781,0.31543a2.85,2.85,0,0,0,.2124,1.3125,1.18256,1.18256,0,0,0,.8335.502,0.5117,0.5117,0,0,1,.23145.07813,0.31917,0.31917,0,0,1,.03418.18457q0,0.23438-.15186.23438a1.89035,1.89035,0,0,1-.26611-0.0293,9.06379,9.06379,0,0,0-1.49658-.10449,6.82184,6.82184,0,0,0-1.39014.0957,0.91139,0.91139,0,0,1-.17432.02832c-0.10645,0-.15967-0.08105-0.15967-0.24414a0.27862,0.27862,0,0,1,.18945-0.22461,1.26793,1.26793,0,0,0,.57617-1.25l0.01514-.55371,0.00732-.25684V70.19971a5.72878,5.72878,0,0,0-.1626-1.67969,0.60339,0.60339,0,0,0-.603-0.44824,0.21,0.21,0,0,1-.21973-0.25293,0.21953,0.21953,0,0,1,.0835-0.19922,2.23653,2.23653,0,0,1,.45654-0.15039A4.51161,4.51161,0,0,0,63.7438,66.772l0.25781-.19141a0.31548,0.31548,0,0,1,.13623-0.05762c0.07617-.00586.11377,0.05762,0.11377,0.19141q0,0.10547-.01514.47754Q64.16837,68.481,64.16812,69.36963Z" transform="translate(0 -3.62765)"/>
    <path class="cls-7" d="M68.9899,73.54834V78.2124a2.48245,2.48245,0,0,0,.20068,1.18555,0.759,0.759,0,0,0,.709.335,1.55392,1.55392,0,0,0,.52686-0.12988,1.37933,1.37933,0,0,0,.4585-0.25879,0.23669,0.23669,0,0,1,.12158-0.08008c0.06055,0,.09814.06543,0.11328,0.19531l0.01514,0.09766-0.09082.166a2.50148,2.50148,0,0,1-1.937.96484,1.52219,1.52219,0,0,1-1.24951-.48633,2.35493,2.35493,0,0,1-.39893-1.50879V73.54834h-0.4624q-0.364,0-.36377-0.25293a0.449,0.449,0,0,1,.18994-0.32031,7.754,7.754,0,0,0,.936-1.06152,8.20871,8.20871,0,0,0,.81445-1.19434,0.76342,0.76342,0,0,1,.34863-0.459,0.13049,0.13049,0,0,1,.06836.14355v2.21777H70.089a0.62749,0.62749,0,0,0,.43213-0.125l0.19727-.16211a0.241,0.241,0,0,1,.13623-0.06738c0.08594-.00586.12646,0.0459,0.12109,0.1543a0.85285,0.85285,0,0,1-.05273.21191,2.23243,2.23243,0,0,0-.09082.42383,0.46442,0.46442,0,0,1-.417.49121H68.9899Z" transform="translate(0 -3.62765)"/>
    <path class="cls-7" d="M79.00357,72.4585v5.918a3.05386,3.05386,0,0,0,.12109,1.13184,0.71841,0.71841,0,0,0,.65186.21484l0.17432-.00977a0.37,0.37,0,0,1,.13672.01953,0.21436,0.21436,0,0,1,.12891.21387q0,0.33984-.51709.33984H79.33462a4.73206,4.73206,0,0,0-.48633.01953,5.10263,5.10263,0,0,0-1.07959.22949,0.40471,0.40471,0,0,1-.13672.02832c-0.11182,0-.16748-0.11816-0.16748-0.35352a2.92083,2.92083,0,0,1,.01514-0.3252q0.01538-.19043.01514-0.28711,0-.28564-0.09814-0.2959a0.24207,0.24207,0,0,0-.12109.11523l-0.27246.35352a2.05134,2.05134,0,0,1-1.67236.917,1.95068,1.95068,0,0,1-1.6875-.78223,3.93778,3.93778,0,0,1-.56787-2.32031q0-2.0332.06055-3.52246c0.00537-.17773.00781-0.33105,0.00781-0.458a0.56854,0.56854,0,0,0-.44727-0.69727l-0.30322-.02832a0.20975,0.20975,0,0,1-.19727-0.2627,0.26811,0.26811,0,0,1,.23193-0.248,3.82883,3.82883,0,0,1,.86328-0.0625,2.76038,2.76038,0,0,0,1.05664-.19141,0.99966,0.99966,0,0,1,.31934-0.07617q0.12891,0,.12891.21973,0,0.25781-.01514.52441-0.06812,1.01221-.06787,3.542a7.81828,7.81828,0,0,0,.27881,2.60059,1.091,1.091,0,0,0,1.11572.6543,1.167,1.167,0,0,0,1.01025-.49707,2.42334,2.42334,0,0,0,.35449-1.4209V74.10791a2.42456,2.42456,0,0,0-.11768-0.99512,0.97658,0.97658,0,0,0-.66309-0.27148,0.22546,0.22546,0,0,1-.23535-0.2334q0-.30176.45654-0.30176a5.01679,5.01679,0,0,0,1.83252-.22949,0.38443,0.38443,0,0,1,.15967-0.04785c0.0708-.00684.106,0.05762,0.106,0.19043Z" transform="translate(0 -3.62765)"/>
    <path class="cls-7" d="M83.9689,75.61963v2.68164A1.44279,1.44279,0,0,0,85.091,80.00049a0.23158,0.23158,0,0,1,.23486.2334c0,0.16309-.05811.24414-0.1748,0.24414a1.0526,1.0526,0,0,1-.2124-0.02832,8.41182,8.41182,0,0,0-1.56494-.14355,6.97807,6.97807,0,0,0-.76709.03809l-0.47119.05762a1.81953,1.81953,0,0,1-.26562.01855,0.20754,0.20754,0,0,1-.21289-0.25293,0.23261,0.23261,0,0,1,.18945-0.23437q0.59912-.18164.59912-1.41992l-0.00781-.40039V74.70166a1.94681,1.94681,0,0,0-.14014-0.91016A0.76162,0.76162,0,0,0,81.695,73.52a0.18134,0.18134,0,0,1-.17432-0.20508,0.23047,0.23047,0,0,1,.20557-0.25391,4.40131,4.40131,0,0,0,1.78027-.73633l0.2959-.21973a0.19073,0.19073,0,0,1,.11377-0.04785c0.07568,0,.11377.07031,0.11377,0.21,0,0.04492-.00293.1377-0.00781,0.27734l-0.02295.53516-0.03027.59277,0.00781,0.10547a0.15245,0.15245,0,0,0,.11279.14355,1.00085,1.00085,0,0,0,.33008-0.459,3.58371,3.58371,0,0,1,.62744-0.7793,1.27985,1.27985,0,0,1,.582-0.416,2.36808,2.36808,0,0,1,1.29639,1.24316,3.63635,3.63635,0,0,1-.24512.66895,1.03853,1.03853,0,0,1-.55078.73633,0.239,0.239,0,0,1-.18066-0.0957l-0.21094-.23926a1.13495,1.13495,0,0,0-.88086-0.44922Q83.96939,74.13135,83.9689,75.61963Z" transform="translate(0 -3.62765)"/>
    <path class="cls-7" d="M90.943,72.33447a2.46451,2.46451,0,0,1,2.02441,1.166,3.3473,3.3473,0,0,1,.7124,1.96875,0.34623,0.34623,0,0,1-.40869.373L92.923,75.82275H92.74918l-0.46191.00977-1.42969.0293-0.749.00879-0.25781-.00879a0.40089,0.40089,0,0,0-.27979.06641,0.55721,0.55721,0,0,0-.083.35449,3.91314,3.91314,0,0,0,.6543,2.23828,1.84154,1.84154,0,0,0,1.50928.97266,1.88139,1.88139,0,0,0,1.53613-.7041l0.24219-.29883a0.16589,0.16589,0,0,1,.12891-0.07715,0.16368,0.16368,0,0,1,.1665.2002,1.9068,1.9068,0,0,1-.5835.92773A2.97579,2.97579,0,0,1,90.92789,80.688a2.5333,2.5333,0,0,1-2.1377-1.13672A4.87289,4.87289,0,0,1,87.964,76.6167a5.14275,5.14275,0,0,1,.8833-3.01074A2.53235,2.53235,0,0,1,90.943,72.33447Zm-0.21191.4873a1.081,1.081,0,0,0-.897.63574,2.83884,2.83884,0,0,0-.38428,1.499,0.35763,0.35763,0,0,0,.10938.332,1.74379,1.74379,0,0,0,.5918.05664c0.16553,0,.34131-0.00586.52734-0.01953q0.67822-.03662.78418-0.03711a0.53027,0.53027,0,0,0,.66309-0.5127,2.27712,2.27712,0,0,0-.42578-1.36133A1.20177,1.20177,0,0,0,90.73111,72.82178Z" transform="translate(0 -3.62765)"/>
    <path class="cls-7" d="M103.36832,75.86182a4.10968,4.10968,0,0,0,.083-0.748,2.99037,2.99037,0,0,0-.36475-1.56152,1.07527,1.07527,0,0,0-.93652-0.60645,0.65922,0.65922,0,0,0-.73.76074,2.40754,2.40754,0,0,0,.01514.27637l0.02246,0.18066q0,0.646-1.17334.64648a0.26977,0.26977,0,0,1-.28955-0.335,0.95127,0.95127,0,0,1,.0376-0.21c0.01563-.07031.03076-0.15332,0.0459-0.248a1.53444,1.53444,0,0,1,.4624-0.9375,2.79519,2.79519,0,0,1,1.94043-.72559,2.43935,2.43935,0,0,1,1.96338.7627,3.14337,3.14337,0,0,1,.50049,2.02441q0,0.7251-.04541,1.82324-0.04614,1.25977-.0459,1.67969,0,0.98291.62158,0.9834a0.62054,0.62054,0,0,0,.32617-0.06738,0.4456,0.4456,0,0,1,.17432-0.06641,0.10779,0.10779,0,0,1,.106.13379,0.57518,0.57518,0,0,1-.29541.44922l-0.2959.19141-0.25732.19043a1.05982,1.05982,0,0,1-.59912.18164,1.39082,1.39082,0,0,1-1.12207-1.08887,4.13947,4.13947,0,0,1-2.34229,1.13672,1.20508,1.20508,0,0,1-1.0083-.46875,2.08084,2.08084,0,0,1-.36377-1.30273,2.44817,2.44817,0,0,1,1.04395-2.20312A9.18869,9.18869,0,0,1,103.36832,75.86182Zm-0.15186.55371a1.50689,1.50689,0,0,0-1.24316.583,2.03292,2.03292,0,0,0-.59131,1.40527q0,1.26123.80371,1.26172a1.357,1.357,0,0,0,.87158-0.2959,0.83675,0.83675,0,0,0,.28027-0.52637,6.92427,6.92427,0,0,0,.07617-1.23242l0.00732-.73633v-0.2002l-0.04541-.21094A0.268,0.268,0,0,0,103.21646,76.41553Z" transform="translate(0 -3.62765)"/>
    <path class="cls-7" d="M114.03433,76.396v1.93555a4.38567,4.38567,0,0,0,.05273.84375,0.92757,0.92757,0,0,0,.24268.42383,1.167,1.167,0,0,0,.69727.334,0.23067,0.23067,0,0,1,.23535.22949q0,0.28711-.53955.28711a2.186,2.186,0,0,1-.32666-0.03613l-0.49365-.07227a4.13491,4.13491,0,0,0-.52441-0.04492,4.75089,4.75089,0,0,0-1.15479.1123,1.35363,1.35363,0,0,1-.30371.041,0.16982,0.16982,0,0,1-.167-0.21094,0.262,0.262,0,0,1,.17432-0.23828,0.78018,0.78018,0,0,0,.44727-0.44922,3.29274,3.29274,0,0,0,.11377-1.0332V76.26318a4.35464,4.35464,0,0,0-.41113-2.06055,1.2474,1.2474,0,0,0-1.12012-.75977,1.29864,1.29864,0,0,0-1.022.43945,1.66634,1.66634,0,0,0-.38818,1.14551v3.1875a2.4312,2.4312,0,0,0,.26123,1.2832,1.12206,1.12206,0,0,0,.8833.47266,0.20917,0.20917,0,0,1,.2124.21973,0.2358,0.2358,0,0,1-.26611.26758,4.46591,4.46591,0,0,1-.6001-0.04785,9.27063,9.27063,0,0,0-1.18506-.13379,5.90425,5.90425,0,0,0-1.01758.10254,2.45691,2.45691,0,0,1-.37256.05078,0.17322,0.17322,0,0,1-.18994-0.20117,0.21462,0.21462,0,0,1,.12891-0.2002,0.99173,0.99173,0,0,0,.49268-0.39648,1.99452,1.99452,0,0,0,.10645-0.78906l0.00732-.31543V75.16357l-0.00732-.373a2.78568,2.78568,0,0,0-.10986-0.9502,0.40376,0.40376,0,0,0-.40576-0.26367h-0.34863a0.127,0.127,0,0,1-.11377-0.05664,0.2289,0.2289,0,0,1-.03809-0.14355,0.27626,0.27626,0,0,1,.11426-0.25391,4.122,4.122,0,0,1,.66943-0.24316,4.16182,4.16182,0,0,0,1.58936-.832,0.14271,0.14271,0,0,1,.09863-0.05664q0.09082-.01025.09082,0.18164l-0.02295.47754-0.00732.54492,0.04541,0.36328a0.14006,0.14006,0,0,0,.09912.124,0.5309,0.5309,0,0,0,.24219-0.25781,2.10875,2.10875,0,0,1,1.83838-1.07031,1.86226,1.86226,0,0,1,1.76318.93848A6.68973,6.68973,0,0,1,114.03433,76.396Z" transform="translate(0 -3.62765)"/>
    <path class="cls-7" d="M122.94156,69.981v7.94629a3.01979,3.01979,0,0,0,.18213,1.27539,0.71059,0.71059,0,0,0,.68945.33887,0.21069,0.21069,0,0,1,.24268.2334,0.24159,0.24159,0,0,1-.23437.30176l-0.41553.06641-0.665.125a4.016,4.016,0,0,0-1.05762.36328,0.55466,0.55466,0,0,1-.22754.06641c-0.05078,0-.07568-0.05762-0.07568-0.17187l0.00732-.78418a0.54719,0.54719,0,0,0-.0376-0.22949l-0.05322-.03809a0.16315,0.16315,0,0,0-.10645.08594,2.98953,2.98953,0,0,1-.98682.80273,2.47386,2.47386,0,0,1-1.14648.3252,2.20235,2.20235,0,0,1-1.86035-.97852,4.23326,4.23326,0,0,1-.71338-2.55371,5.98546,5.98546,0,0,1,.93457-3.40332,2.708,2.708,0,0,1,2.28223-1.39844,3.31992,3.31992,0,0,1,1.44531.3623,0.25722,0.25722,0,0,0,.12891.03906c0.08594,0,.12842-0.11133.12842-0.335V70.17432a4.73075,4.73075,0,0,0-.17041-1.57715,0.658,0.658,0,0,0-.6709-0.40137,0.21816,0.21816,0,0,1-.25-0.24414,0.20751,0.20751,0,0,1,.15186-0.24316l0.42627-.0957a3.65248,3.65248,0,0,0,1.749-.82227,0.45944,0.45944,0,0,1,.23486-0.13379c0.08105-.00586.12158,0.0957,0.12158,0.30566,0,0.03223-.00293.11133-0.00781,0.23926-0.01514.24121-.02295,0.43945-0.02295,0.5918l-0.00732.51563Zm-1.53906,8.30957V74.78467a1.75759,1.75759,0,0,0-.59619-1.30957,1.9533,1.9533,0,0,0-1.38916-.56738,1.30084,1.30084,0,0,0-1.147.7666,4.03555,4.03555,0,0,0-.438,2.0127,5.08746,5.08746,0,0,0,.65283,2.65918A1.87553,1.87553,0,0,0,120.0817,79.436a1.65015,1.65015,0,0,0,.73975-0.19727,1.01078,1.01078,0,0,0,.498-0.43359A1.222,1.222,0,0,0,121.4025,78.29053Z" transform="translate(0 -3.62765)"/>
    <path class="cls-7" d="M133.05435,77.44189q0,1.78418.33984,2.00391a1.49139,1.49139,0,0,0,.74072.124,3.83615,3.83615,0,0,0,3.64209-1.9043,1.54152,1.54152,0,0,1,.415-0.58105q0.13843,0,.13818.39258a3.85533,3.85533,0,0,1-.62891,2.16895,1.71894,1.71894,0,0,1-1.50879.8418c-0.13135,0-.37109-0.0166-0.72021-0.04785q-0.13623-.01025-0.90967-0.06738l-0.82617-.04785q-0.41675-.02783-0.94727-0.02832a13.46544,13.46544,0,0,0-1.89551.14551,3.62839,3.62839,0,0,1-.417.0459,0.21079,0.21079,0,0,1-.21973-0.25391,0.24925,0.24925,0,0,1,.19727-0.24316,1.07224,1.07224,0,0,0,.6709-0.66309,4.973,4.973,0,0,0,.18555-1.60645V69.74951q0-1.52637-1.0083-1.72559l-0.45459-.0957a0.29526,0.29526,0,0,1-.28809-0.292,0.23323,0.23323,0,0,1,.22754-0.291,1.27209,1.27209,0,0,1,.22021.02832c0.0708,0.00684.16992,0.01953,0.29639,0.03809l0.32666,0.0293a6.24145,6.24145,0,0,0,.69092.05762,9.27394,9.27394,0,0,0,1.16162-.11523,9.45413,9.45413,0,0,1,1.20752-.07617q0.45557,0,.45557.27246a0.273,0.273,0,0,1-.32617.25293q-0.76611.06738-.76562,1.32617v8.2832Z" transform="translate(0 -3.62765)"/>
    <path class="cls-7" d="M141.84732,72.76318v5.40625a2.80672,2.80672,0,0,0,.23145,1.35352,1.01946,1.01946,0,0,0,.86035.42969,0.22194,0.22194,0,0,1,.25.22363q0,0.25342-.6001.25391c-0.05078,0-.15967-0.00879-0.32666-0.02734l-0.56934-.07129q-0.47168-.0542-0.623-0.05469a6.01433,6.01433,0,0,0-1.08643.13379,1.27124,1.27124,0,0,1-.2583.03906,0.15426,0.15426,0,0,1-.15967-0.18652,0.22471,0.22471,0,0,1,.09863-0.19629l0.25781-.16211a0.87041,0.87041,0,0,0,.28418-0.49512,2.82634,2.82634,0,0,0,.11768-0.82031l-0.00781-.39941V74.95947a2.88267,2.88267,0,0,0-.125-1.0293,0.45278,0.45278,0,0,0-.45117-0.28613h-0.17432a0.22207,0.22207,0,0,1-.19678-0.07812,0.28771,0.28771,0,0,1-.02295-0.13574,0.48731,0.48731,0,0,1,.46387-0.36914,4.15644,4.15644,0,0,0,1.81787-.92773,0.24864,0.24864,0,0,1,.12891-0.06641c0.0708,0.00684.106,0.06641,0.106,0.18066l-0.00732.08594C141.84976,72.39111,141.84732,72.53369,141.84732,72.76318Zm-0.81494-5.21777a1.3702,1.3702,0,0,1,.56641.65039l0.31738,0.5166a0.70679,0.70679,0,0,1,.12061.334,2.03992,2.03992,0,0,1-.415.87012,1.41135,1.41135,0,0,1-.58154.64063,0.27579,0.27579,0,0,1-.2041-0.11523l-0.355-.54492-0.332-.47754a0.65811,0.65811,0,0,1-.12842-0.3252,2.48631,2.48631,0,0,1,.44531-0.87012A1.78647,1.78647,0,0,1,141.03238,67.54541Z" transform="translate(0 -3.62765)"/>
    <path class="cls-7" d="M147.97281,73.57666h-0.72754q-0.45483,0-.45508.60059v3.89746a3.37954,3.37954,0,0,0,.19336,1.40137,1.1835,1.1835,0,0,0,.82275.51465,0.28784,0.28784,0,0,1,.25781.28223,0.197,0.197,0,0,1-.2207.22461c-0.04053,0-.16211-0.0166-0.36475-0.04785a7.41047,7.41047,0,0,0-1.27588-.13379,6.62209,6.62209,0,0,0-1.25391.125,1.50324,1.50324,0,0,1-.23535.02734,0.15088,0.15088,0,0,1-.15186-0.18555,0.29159,0.29159,0,0,1,.13623-0.24414l0.22021-.16211a1.0027,1.0027,0,0,0,.34082-0.86719V74.03467a0.35552,0.35552,0,0,0-.37109-0.42871l-0.23535-.00977h-0.18164c-0.19727,0-.2959-0.05371-0.2959-0.16211a0.66225,0.66225,0,0,1,.03027-0.17285,2.52685,2.52685,0,0,0,.061-0.36328,0.19805,0.19805,0,0,1,.15918-0.21973l0.36377-.02832a0.51554,0.51554,0,0,0,.375-0.14355,0.90374,0.90374,0,0,0,.125-0.4873,10.03051,10.03051,0,0,1,.70508-3.40234q0.86426-1.94971,1.97852-1.9502,0.728,0,.728.52539a1.18628,1.18628,0,0,1-.03809.249q-0.15161.66943-.18945,0.95605c-0.01514.15918-.05811,0.23828-0.12891,0.23828a0.134,0.134,0,0,1-.13672-0.13281l-0.02979-.19824a0.86486,0.86486,0,0,0-.2832-0.47852,0.68668,0.68668,0,0,0-.45605-0.22266,0.63451,0.63451,0,0,0-.479.57715,5.4172,5.4172,0,0,0-.17676,1.541l-0.01514,1.4502-0.00781.71484a1.01033,1.01033,0,0,0,.11768.582,0.54135,0.54135,0,0,0,.45117.15332,4.796,4.796,0,0,0,.78418-0.03418,0.916,0.916,0,0,0,.35254-0.291l0.06836-.04785c0.06543-.00684.09619,0.03223,0.09082,0.11523l-0.0376.10645-0.18213.71191a0.82144,0.82144,0,0,1-.14014.33691A0.47854,0.47854,0,0,1,147.97281,73.57666Z" transform="translate(0 -3.62765)"/>
    <path class="cls-7" d="M152.45279,72.33447a2.46451,2.46451,0,0,1,2.02441,1.166,3.3473,3.3473,0,0,1,.7124,1.96875,0.34623,0.34623,0,0,1-.40869.373l-0.34814-.01953h-0.17383l-0.46191.00977-1.42969.0293-0.749.00879-0.25781-.00879a0.40089,0.40089,0,0,0-.27979.06641,0.55721,0.55721,0,0,0-.083.35449,3.91314,3.91314,0,0,0,.6543,2.23828,1.84154,1.84154,0,0,0,1.50928.97266,1.88139,1.88139,0,0,0,1.53613-.7041l0.24219-.29883a0.16589,0.16589,0,0,1,.12891-0.07715,0.16368,0.16368,0,0,1,.1665.2002,1.9068,1.9068,0,0,1-.5835.92773,2.97579,2.97579,0,0,1-2.21387,1.14648A2.5333,2.5333,0,0,1,150.3,79.55127a4.87289,4.87289,0,0,1-.82617-2.93457,5.14275,5.14275,0,0,1,.8833-3.01074A2.53235,2.53235,0,0,1,152.45279,72.33447Zm-0.21191.4873a1.081,1.081,0,0,0-.897.63574,2.83884,2.83884,0,0,0-.38428,1.499,0.35763,0.35763,0,0,0,.10938.332,1.74379,1.74379,0,0,0,.5918.05664c0.16553,0,.34131-0.00586.52734-0.01953q0.67822-.03662.78418-0.03711a0.53027,0.53027,0,0,0,.66309-0.5127,2.27712,2.27712,0,0,0-.42578-1.36133A1.20177,1.20177,0,0,0,152.24087,72.82178Z" transform="translate(0 -3.62765)"/>
    <path class="cls-7" d="M164.24039,67.12549a3.06119,3.06119,0,0,1,1.39453.34375l0.50781,0.26758a1.30006,1.30006,0,0,0,.48486.17188,0.43037,0.43037,0,0,0,.22021-0.06641l0.28857-.18164a0.22743,0.22743,0,0,1,.12158-0.03809c0.106,0,.15918.10449,0.15918,0.31543l-0.01514.77441c0,0.12109.00537,0.23535,0.01514,0.34375l0.09863,0.93652,0.07568,0.87012a1.46766,1.46766,0,0,1,.01514.19043q0,0.41162-.18945.41113c-0.09082,0-.15674-0.12012-0.19678-0.3623a4.41092,4.41092,0,0,0-1.10889-2.30664,2.55762,2.55762,0,0,0-1.88281-.97266,1.54279,1.54279,0,0,0-1.19189.58105,2.01438,2.01438,0,0,0-.50879,1.37109,1.90609,1.90609,0,0,0,.44775,1.2666,7.36449,7.36449,0,0,0,1.79932,1.11719,6.28352,6.28352,0,0,1,2.38379,1.81641,4.66538,4.66538,0,0,1,.69043,2.582,4.59547,4.59547,0,0,1-.95508,2.89746,2.78151,2.78151,0,0,1-2.23633,1.2334,5.21223,5.21223,0,0,1-1.66016-.44922,6.92926,6.92926,0,0,0-.78076-0.28613,0.82316,0.82316,0,0,1-.40527-0.168,1.38724,1.38724,0,0,1-.09473-0.49219,10.72693,10.72693,0,0,0-.22754-1.2998,10.50547,10.50547,0,0,1-.28809-1.66309q0-.4585.23486-0.459c0.0708,0,.12158.07715,0.15186,0.22949a6.54091,6.54091,0,0,0,1.29053,2.75586,2.54134,2.54134,0,0,0,1.90527,1.11523,1.75094,1.75094,0,0,0,1.37061-.73828,2.5985,2.5985,0,0,0,.60352-1.69141,2.23577,2.23577,0,0,0-.31543-1.23926,2.987,2.987,0,0,0-1.08936-.915l-1.15381-.64941a6.88538,6.88538,0,0,1-2.21631-1.73535,3.66624,3.66624,0,0,1-.58447-2.17578A4.20971,4.20971,0,0,1,162.213,68.187,2.465,2.465,0,0,1,164.24039,67.12549Z" transform="translate(0 -3.62765)"/>
    <path class="cls-7" d="M173.20181,72.354a1.751,1.751,0,0,1,1.66748.7832,1.67467,1.67467,0,0,1,.28076.793,1.30054,1.30054,0,0,1-.686.78418l-0.32031.22949a0.268,0.268,0,0,1-.12988.05762c-0.13184,0-.20557-0.12109-0.2207-0.3623a2.11175,2.11175,0,0,0-.41846-1.19336,1.08407,1.08407,0,0,0-.86328-0.5,1.22162,1.22162,0,0,0-1.04785.75684,3.81245,3.81245,0,0,0-.42236,1.87988,5.822,5.822,0,0,0,.624,2.85938,1.82755,1.82755,0,0,0,1.59277,1.11816,2.64423,2.64423,0,0,0,1.7251-.78418l0.09082-.05664q0.12158-.00879.12158,0.16113a1.36872,1.36872,0,0,1-.56885.85254,3.13857,3.13857,0,0,1-2.16016.95508,2.52714,2.52714,0,0,1-2.085-1.07422,4.32346,4.32346,0,0,1-.82617-2.71582A5.04229,5.04229,0,0,1,170.59,73.647,3.20844,3.20844,0,0,1,173.20181,72.354Z" transform="translate(0 -3.62765)"/>
    <path class="cls-7" d="M179.0231,72.76318v5.40625a2.80672,2.80672,0,0,0,.23145,1.35352,1.01946,1.01946,0,0,0,.86035.42969,0.22194,0.22194,0,0,1,.25.22363q0,0.25342-.6001.25391c-0.05078,0-.15967-0.00879-0.32666-0.02734l-0.56934-.07129q-0.47168-.0542-0.623-0.05469a6.01433,6.01433,0,0,0-1.08643.13379,1.27124,1.27124,0,0,1-.2583.03906,0.15426,0.15426,0,0,1-.15967-0.18652,0.22471,0.22471,0,0,1,.09863-0.19629l0.25781-.16211a0.87041,0.87041,0,0,0,.28418-0.49512,2.82634,2.82634,0,0,0,.11768-0.82031l-0.00781-.39941V74.95947a2.88267,2.88267,0,0,0-.125-1.0293,0.45278,0.45278,0,0,0-.45117-0.28613h-0.17432a0.22207,0.22207,0,0,1-.19678-0.07812,0.28771,0.28771,0,0,1-.02295-0.13574,0.48731,0.48731,0,0,1,.46387-0.36914,4.15644,4.15644,0,0,0,1.81787-.92773,0.24864,0.24864,0,0,1,.12891-0.06641c0.0708,0.00684.106,0.06641,0.106,0.18066l-0.00732.08594C179.02554,72.39111,179.0231,72.53369,179.0231,72.76318Zm-0.81494-5.21777a1.3702,1.3702,0,0,1,.56641.65039l0.31738,0.5166a0.70679,0.70679,0,0,1,.12061.334,2.03992,2.03992,0,0,1-.415.87012,1.41135,1.41135,0,0,1-.58154.64063,0.27579,0.27579,0,0,1-.2041-0.11523l-0.355-.54492-0.332-.47754a0.65811,0.65811,0,0,1-.12842-0.3252,2.48631,2.48631,0,0,1,.44531-0.87012A1.78646,1.78646,0,0,1,178.20816,67.54541Z" transform="translate(0 -3.62765)"/>
    <path class="cls-7" d="M184.45865,72.33447a2.46451,2.46451,0,0,1,2.02441,1.166,3.3473,3.3473,0,0,1,.7124,1.96875,0.34623,0.34623,0,0,1-.40869.373l-0.34814-.01953H186.2648l-0.46191.00977-1.42969.0293-0.749.00879-0.25781-.00879a0.40089,0.40089,0,0,0-.27979.06641,0.55721,0.55721,0,0,0-.083.35449,3.91314,3.91314,0,0,0,.6543,2.23828,1.84154,1.84154,0,0,0,1.50928.97266,1.88139,1.88139,0,0,0,1.53613-.7041l0.24219-.29883a0.16589,0.16589,0,0,1,.12891-0.07715,0.16368,0.16368,0,0,1,.1665.2002,1.9068,1.9068,0,0,1-.5835.92773,2.97579,2.97579,0,0,1-2.21387,1.14648,2.5333,2.5333,0,0,1-2.1377-1.13672,4.87289,4.87289,0,0,1-.82617-2.93457,5.14275,5.14275,0,0,1,.8833-3.01074A2.53235,2.53235,0,0,1,184.45865,72.33447Zm-0.21191.4873a1.081,1.081,0,0,0-.897.63574,2.83884,2.83884,0,0,0-.38428,1.499,0.35763,0.35763,0,0,0,.10938.332,1.74379,1.74379,0,0,0,.5918.05664c0.16553,0,.34131-0.00586.52734-0.01953q0.67822-.03662.78418-0.03711a0.53027,0.53027,0,0,0,.66309-0.5127,2.27712,2.27712,0,0,0-.42578-1.36133A1.20177,1.20177,0,0,0,184.24673,72.82178Z" transform="translate(0 -3.62765)"/>
    <path class="cls-7" d="M195.7316,76.396v1.93555a4.38567,4.38567,0,0,0,.05273.84375,0.92757,0.92757,0,0,0,.24268.42383,1.167,1.167,0,0,0,.69727.334,0.23067,0.23067,0,0,1,.23535.22949q0,0.28711-.53955.28711a2.186,2.186,0,0,1-.32666-0.03613l-0.49365-.07227a4.13491,4.13491,0,0,0-.52441-0.04492,4.75089,4.75089,0,0,0-1.15479.1123,1.35363,1.35363,0,0,1-.30371.041,0.16982,0.16982,0,0,1-.167-0.21094,0.262,0.262,0,0,1,.17432-0.23828,0.78018,0.78018,0,0,0,.44727-0.44922,3.29274,3.29274,0,0,0,.11377-1.0332V76.26318a4.35464,4.35464,0,0,0-.41113-2.06055,1.2474,1.2474,0,0,0-1.12012-.75977,1.29864,1.29864,0,0,0-1.022.43945,1.66634,1.66634,0,0,0-.38818,1.14551v3.1875a2.4312,2.4312,0,0,0,.26123,1.2832,1.12206,1.12206,0,0,0,.8833.47266,0.20917,0.20917,0,0,1,.2124.21973,0.2358,0.2358,0,0,1-.26611.26758,4.46592,4.46592,0,0,1-.6001-0.04785,9.27063,9.27063,0,0,0-1.18506-.13379,5.90425,5.90425,0,0,0-1.01758.10254,2.45691,2.45691,0,0,1-.37256.05078,0.17322,0.17322,0,0,1-.18994-0.20117,0.21462,0.21462,0,0,1,.12891-0.2002,0.99173,0.99173,0,0,0,.49268-0.39648,1.99452,1.99452,0,0,0,.10645-0.78906l0.00732-.31543V75.16357l-0.00732-.373a2.78568,2.78568,0,0,0-.10986-0.9502,0.40376,0.40376,0,0,0-.40576-0.26367h-0.34863a0.127,0.127,0,0,1-.11377-0.05664,0.2289,0.2289,0,0,1-.03809-0.14355,0.27626,0.27626,0,0,1,.11426-0.25391,4.122,4.122,0,0,1,.66943-0.24316,4.16182,4.16182,0,0,0,1.58936-.832,0.14271,0.14271,0,0,1,.09863-0.05664q0.09082-.01025.09082,0.18164l-0.02295.47754-0.00732.54492,0.04541,0.36328a0.14006,0.14006,0,0,0,.09912.124,0.5309,0.5309,0,0,0,.24219-0.25781,2.10875,2.10875,0,0,1,1.83838-1.07031,1.86226,1.86226,0,0,1,1.76318.93848A6.68973,6.68973,0,0,1,195.7316,76.396Z" transform="translate(0 -3.62765)"/>
    <path class="cls-7" d="M201.83365,72.354a1.751,1.751,0,0,1,1.66748.7832,1.67467,1.67467,0,0,1,.28076.793,1.30054,1.30054,0,0,1-.686.78418l-0.32031.22949a0.268,0.268,0,0,1-.12988.05762c-0.13184,0-.20557-0.12109-0.2207-0.3623a2.11175,2.11175,0,0,0-.41846-1.19336,1.08407,1.08407,0,0,0-.86328-0.5,1.22162,1.22162,0,0,0-1.04785.75684,3.81245,3.81245,0,0,0-.42236,1.87988,5.822,5.822,0,0,0,.624,2.85938,1.82755,1.82755,0,0,0,1.59277,1.11816,2.64423,2.64423,0,0,0,1.7251-.78418l0.09082-.05664q0.12158-.00879.12158,0.16113a1.36872,1.36872,0,0,1-.56885.85254,3.13857,3.13857,0,0,1-2.16016.95508,2.52714,2.52714,0,0,1-2.085-1.07422,4.32346,4.32346,0,0,1-.82617-2.71582,5.04229,5.04229,0,0,1,1.03467-3.251A3.20844,3.20844,0,0,1,201.83365,72.354Z" transform="translate(0 -3.62765)"/>
    <path class="cls-7" d="M208.1481,72.33447a2.46451,2.46451,0,0,1,2.02441,1.166,3.3473,3.3473,0,0,1,.7124,1.96875,0.34623,0.34623,0,0,1-.40869.373l-0.34814-.01953h-0.17383l-0.46191.00977-1.42969.0293-0.749.00879-0.25781-.00879a0.40089,0.40089,0,0,0-.27979.06641,0.55721,0.55721,0,0,0-.083.35449,3.91314,3.91314,0,0,0,.6543,2.23828,1.84154,1.84154,0,0,0,1.50928.97266,1.88139,1.88139,0,0,0,1.53613-.7041l0.24219-.29883a0.16589,0.16589,0,0,1,.12891-0.07715,0.16368,0.16368,0,0,1,.1665.2002,1.9068,1.9068,0,0,1-.5835.92773A2.97579,2.97579,0,0,1,208.133,80.688a2.5333,2.5333,0,0,1-2.1377-1.13672,4.87289,4.87289,0,0,1-.82617-2.93457,5.14275,5.14275,0,0,1,.8833-3.01074A2.53235,2.53235,0,0,1,208.1481,72.33447Zm-0.21191.4873a1.081,1.081,0,0,0-.897.63574,2.83884,2.83884,0,0,0-.38428,1.499,0.35763,0.35763,0,0,0,.10938.332,1.74379,1.74379,0,0,0,.5918.05664c0.16553,0,.34131-0.00586.52734-0.01953q0.67822-.03662.78418-0.03711a0.53027,0.53027,0,0,0,.66309-0.5127,2.27712,2.27712,0,0,0-.42578-1.36133A1.20177,1.20177,0,0,0,207.93619,72.82178Z" transform="translate(0 -3.62765)"/>
    <path class="cls-7" d="M214.84244,72.354a3.37809,3.37809,0,0,1,1.12939.21973,0.43883,0.43883,0,0,1,.3335.37207l0.01514,0.4209,0.03809,0.60254,0.01514,0.32422a0.55785,0.55785,0,0,1,.01514.11523,0.15215,0.15215,0,0,1-.16113.18164,1.14383,1.14383,0,0,1-.3999-0.62793,1.61753,1.61753,0,0,0-1.35254-1.2168,0.92031,0.92031,0,0,0-.70264.32227,1.09055,1.09055,0,0,0-.29492.75977,1.40812,1.40812,0,0,0,.88672,1.2627l0.52344,0.2666a6.38044,6.38044,0,0,1,.90967.5498,2.11672,2.11672,0,0,1,.4624.55859,2.93125,2.93125,0,0,1,.37109,1.52832,3.056,3.056,0,0,1-.59863,1.91113,1.78656,1.78656,0,0,1-1.46289.7832,4.13555,4.13555,0,0,1-1.145-.2002l-0.52295-.16309-0.34082-.06641a0.2334,0.2334,0,0,1-.167-0.26758c0-.05078.00244-0.13086,0.00781-0.23926,0.00977-.1084.01514-0.23242,0.01514-0.373l-0.02295-1.041-0.00781-.46875a0.64331,0.64331,0,0,1,.03418-0.27246,0.21025,0.21025,0,0,1,.17822-0.05273q0.12158,0,.167.25781a5.17311,5.17311,0,0,0,.5,1.4375,1.47261,1.47261,0,0,0,1.29639.99023,0.95526,0.95526,0,0,0,.7583-0.35547,1.34009,1.34009,0,0,0,.30322-0.89844,1.44424,1.44424,0,0,0-.292-0.9502,3.5472,3.5472,0,0,0-1.11035-.75977,3.50881,3.50881,0,0,1-1.35693-1.01758,2.49237,2.49237,0,0,1-.37939-1.457,2.45123,2.45123,0,0,1,.63672-1.77734A2.2819,2.2819,0,0,1,214.84244,72.354Z" transform="translate(0 -3.62765)"/>
  </g>
</svg>
