<svg id="Слой_1" data-name="Слой 1" xmlns="http://www.w3.org/2000/svg" width="80.43356mm" height="29.63341mm" viewBox="0 0 228.00063 84.00023">
  <defs>
    <style>
      .cls-1, .cls-4, .cls-5 {
        fill: none;
      }

      .cls-1, .cls-2 {
        stroke: #b2b2b2;
      }

      .cls-1, .cls-2, .cls-4 {
        stroke-miterlimit: 10;
        stroke-width: 2px;
      }

      .cls-2, .cls-3 {
        fill: #062568;
      }

      .cls-4 {
        stroke: #062568;
      }

      .cls-5 {
        stroke: #fff;
      }

      .cls-6 {
        fill: #fff;
      }
    </style>
  </defs>
  <title>mjen</title>
  <g>
    <path class="cls-1" d="M227.00063,45.62777H1V8.31516A3.69835,3.69835,0,0,1,4.68751,4.62765H223.31312a3.69835,3.69835,0,0,1,3.68751,3.68751v37.3126Z" transform="translate(0 -3.62765)"/>
    <path class="cls-2" d="M1,42.00011H227.00063a0,0,0,0,1,0,0V79.31519a3.685,3.685,0,0,1-3.685,3.685H4.685A3.685,3.685,0,0,1,1,79.31519V42.00011A0,0,0,0,1,1,42.00011Z"/>
  </g>
  <g>
    <g>
      <path class="cls-3" d="M67.67789,34.44141V31.43262h2.4292V16.84717h-2.4292V13.88428h9.0957l4.186,15.28564h0.05176L85.133,13.88428h9.1084v2.96289H91.79947V31.43262h2.44189v3.00879H85.55923V31.43262h2.27393V16.84717H87.7814L82.80728,34.44141H78.56949L73.59537,16.84717H73.49185V31.43262H75.882v3.00879h-8.2041Z" transform="translate(0 -3.62765)"/>
      <path class="cls-3" d="M112.49283,13.88428v2.96289h-2.22217V28.18262a8.33137,8.33137,0,0,1-1.28564,4.80615q-1.2854,1.8772-5.49707,1.87744-3.33325,0-4.57373-1.65381a8.17662,8.17662,0,0,1-1.24023-4.938V27.57373h4.06982v0.60889a6.88531,6.88531,0,0,0,.42627,2.71582,1.86337,1.86337,0,0,0,1.91211.959q1.95044,0,1.95068-2.917V16.84717H102.9064V13.88428h9.58643Z" transform="translate(0 -3.62765)"/>
      <path class="cls-3" d="M115.66714,34.44141V31.43262h2.37744V16.84717h-2.37744V13.88428h17.82959v6.12109h-3.48828v-3.1582h-7.77783v5.65039h3.01025v-2.8252h3.17822v8.37207h-3.17822V25.31152h-3.01025v6.12109h7.77783V27.71143h3.48828v6.73H115.66714Z" transform="translate(0 -3.62765)"/>
      <path class="cls-3" d="M136.87808,34.44141V31.43262h2.49316V16.84717h-2.49316V13.88428h8.41064l7.51953,15.28564h0.10352V16.84717h-2.481V13.88428h8.66943v2.96289h-2.4292V34.44141h-5.50391l-8.04883-15.89453h-0.05176V31.43262H145.612v3.00879h-8.73389Z" transform="translate(0 -3.62765)"/>
    </g>
    <g>
      <path class="cls-3" d="M67.67789,34.44141V31.43262h2.4292V16.84717h-2.4292V13.88428h9.0957l4.186,15.28564h0.05176L85.133,13.88428h9.1084v2.96289H91.79947V31.43262h2.44189v3.00879H85.55923V31.43262h2.27393V16.84717H87.7814L82.80728,34.44141H78.56949L73.59537,16.84717H73.49185V31.43262H75.882v3.00879h-8.2041Z" transform="translate(0 -3.62765)"/>
      <path class="cls-3" d="M112.49283,13.88428v2.96289h-2.22217V28.18262a8.33137,8.33137,0,0,1-1.28564,4.80615q-1.2854,1.8772-5.49707,1.87744-3.33325,0-4.57373-1.65381a8.17662,8.17662,0,0,1-1.24023-4.938V27.57373h4.06982v0.60889a6.88531,6.88531,0,0,0,.42627,2.71582,1.86337,1.86337,0,0,0,1.91211.959q1.95044,0,1.95068-2.917V16.84717H102.9064V13.88428h9.58643Z" transform="translate(0 -3.62765)"/>
      <path class="cls-3" d="M115.66714,34.44141V31.43262h2.37744V16.84717h-2.37744V13.88428h17.82959v6.12109h-3.48828v-3.1582h-7.77783v5.65039h3.01025v-2.8252h3.17822v8.37207h-3.17822V25.31152h-3.01025v6.12109h7.77783V27.71143h3.48828v6.73H115.66714Z" transform="translate(0 -3.62765)"/>
      <path class="cls-3" d="M136.87808,34.44141V31.43262h2.49316V16.84717h-2.49316V13.88428h8.41064l7.51953,15.28564h0.10352V16.84717h-2.481V13.88428h8.66943v2.96289h-2.4292V34.44141h-5.50391l-8.04883-15.89453h-0.05176V31.43262H145.612v3.00879h-8.73389Z" transform="translate(0 -3.62765)"/>
    </g>
    <g>
      <path class="cls-4" d="M67.67789,34.44141V31.43262h2.4292V16.84717h-2.4292V13.88428h9.0957l4.186,15.28564h0.05176L85.133,13.88428h9.1084v2.96289H91.79947V31.43262h2.44189v3.00879H85.55923V31.43262h2.27393V16.84717H87.7814L82.80728,34.44141H78.56949L73.59537,16.84717H73.49185V31.43262H75.882v3.00879h-8.2041Z" transform="translate(0 -3.62765)"/>
      <path class="cls-4" d="M112.49283,13.88428v2.96289h-2.22217V28.18262a8.33137,8.33137,0,0,1-1.28564,4.80615q-1.2854,1.8772-5.49707,1.87744-3.33325,0-4.57373-1.65381a8.17662,8.17662,0,0,1-1.24023-4.938V27.57373h4.06982v0.60889a6.88531,6.88531,0,0,0,.42627,2.71582,1.86337,1.86337,0,0,0,1.91211.959q1.95044,0,1.95068-2.917V16.84717H102.9064V13.88428h9.58643Z" transform="translate(0 -3.62765)"/>
      <path class="cls-4" d="M115.66714,34.44141V31.43262h2.37744V16.84717h-2.37744V13.88428h17.82959v6.12109h-3.48828v-3.1582h-7.77783v5.65039h3.01025v-2.8252h3.17822v8.37207h-3.17822V25.31152h-3.01025v6.12109h7.77783V27.71143h3.48828v6.73H115.66714Z" transform="translate(0 -3.62765)"/>
      <path class="cls-4" d="M136.87808,34.44141V31.43262h2.49316V16.84717h-2.49316V13.88428h8.41064l7.51953,15.28564h0.10352V16.84717h-2.481V13.88428h8.66943v2.96289h-2.4292V34.44141h-5.50391l-8.04883-15.89453h-0.05176V31.43262H145.612v3.00879h-8.73389Z" transform="translate(0 -3.62765)"/>
    </g>
    <g>
      <path class="cls-5" d="M67.67789,34.44141V31.43262h2.4292V16.84717h-2.4292V13.88428h9.0957l4.186,15.28564h0.05176L85.133,13.88428h9.1084v2.96289H91.79947V31.43262h2.44189v3.00879H85.55923V31.43262h2.27393V16.84717H87.7814L82.80728,34.44141H78.56949L73.59537,16.84717H73.49185V31.43262H75.882v3.00879h-8.2041Z" transform="translate(0 -3.62765)"/>
      <path class="cls-5" d="M112.49283,13.88428v2.96289h-2.22217V28.18262a8.33137,8.33137,0,0,1-1.28564,4.80615q-1.2854,1.8772-5.49707,1.87744-3.33325,0-4.57373-1.65381a8.17662,8.17662,0,0,1-1.24023-4.938V27.57373h4.06982v0.60889a6.88531,6.88531,0,0,0,.42627,2.71582,1.86337,1.86337,0,0,0,1.91211.959q1.95044,0,1.95068-2.917V16.84717H102.9064V13.88428h9.58643Z" transform="translate(0 -3.62765)"/>
      <path class="cls-5" d="M115.66714,34.44141V31.43262h2.37744V16.84717h-2.37744V13.88428h17.82959v6.12109h-3.48828v-3.1582h-7.77783v5.65039h3.01025v-2.8252h3.17822v8.37207h-3.17822V25.31152h-3.01025v6.12109h7.77783V27.71143h3.48828v6.73H115.66714Z" transform="translate(0 -3.62765)"/>
      <path class="cls-5" d="M136.87808,34.44141V31.43262h2.49316V16.84717h-2.49316V13.88428h8.41064l7.51953,15.28564h0.10352V16.84717h-2.481V13.88428h8.66943v2.96289h-2.4292V34.44141h-5.50391l-8.04883-15.89453h-0.05176V31.43262H145.612v3.00879h-8.73389Z" transform="translate(0 -3.62765)"/>
    </g>
  </g>
  <g>
    <path class="cls-6" d="M10.0773,57.0249l3.22021,8.88184a0.80072,0.80072,0,0,0,.35352.57422,0.54235,0.54235,0,0,0,.29-0.40625l2.96289-7.959a9.87291,9.87291,0,0,1,.59863-1.418,0.54232,0.54232,0,0,1,.47266-0.2876,3.18018,3.18018,0,0,1,.34668.02979,3.62808,3.62808,0,0,0,.47266.02979,5.61731,5.61731,0,0,0,.7959-0.06934,3.277,3.277,0,0,1,.3623-0.02979,0.24685,0.24685,0,0,1,.27588.28271,0.219,0.219,0,0,1-.21191.25244,1.208,1.208,0,0,0-1.03418.624,4.28037,4.28037,0,0,0-.29443,1.87012L18.696,60.07275,18.88443,66.229l0.00781,0.40527a4.159,4.159,0,0,0,.38135,2.02344,1.6028,1.6028,0,0,0,1.25391.77734,0.258,0.258,0,0,1,.22021.292q0,0.27246-.53564.27246a4.13623,4.13623,0,0,1-.50391-0.04883,11.85565,11.85565,0,0,0-1.3623-.12891,8.05184,8.05184,0,0,0-1.37793.09863,4.604,4.604,0,0,1-.709.09961,0.203,0.203,0,0,1-.19678-0.25293,0.28572,0.28572,0,0,1,.228-0.27246,1.09318,1.09318,0,0,0,.63281-0.50488,2.257,2.257,0,0,0,.18457-1.03027c0-.21777-0.00244-0.373-0.00781-0.46484l-0.22754-6.57422c-0.00537-.17871-0.03955-0.26758-0.10254-0.26758a0.85916,0.85916,0,0,0-.32324.54492l-2.96289,7.91016-0.10889.29688a0.96683,0.96683,0,0,1-.375.625,2.02584,2.02584,0,0,1-.57715-1.09082l-0.3999-1.03027L9.505,60.83154l-0.05469-.14844a0.101,0.101,0,0,0-.09424-0.07031q-0.12524,0-.12549.40723l-0.00781.31641L9.12076,66.34229l-0.00781.39648,0.0708,0.93164a1.95878,1.95878,0,0,0,1.23389,1.78418,0.39816,0.39816,0,0,1,.354.34277,0.23779,0.23779,0,0,1-.27588.26172,3.05264,3.05264,0,0,1-.50391-0.0498l-0.55957-.09863a3.58367,3.58367,0,0,0-.61426-0.04,5.17747,5.17747,0,0,0-1.11865.09375,1.8103,1.8103,0,0,1-.394.06543,0.22436,0.22436,0,0,1-.24414-0.2627,0.27282,0.27282,0,0,1,.18848-0.2627,1.64365,1.64365,0,0,0,.88428-0.915,4.80876,4.80876,0,0,0,.2793-1.82617l0.2124-6.502,0.02344-.66309a3.28514,3.28514,0,0,0-.46-1.86523,1.446,1.446,0,0,0-1.26172-.67822,0.25711,0.25711,0,0,1-.29883-0.28223,0.2806,0.2806,0,0,1,.33789-0.293c0.04688,0,.10742.00342,0.18066,0.01025L7.60269,56.5293c0.084,0.00684.19141,0.00977,0.32227,0.00977a4.30869,4.30869,0,0,0,.72266-0.05957,6.26583,6.26583,0,0,1,.69092-0.0791A0.778,0.778,0,0,1,10.0773,57.0249Z" transform="translate(0 -3.62765)"/>
    <path class="cls-6" d="M25.68472,65.24268a4.22649,4.22649,0,0,0,.08643-0.77637,3.10221,3.10221,0,0,0-.37842-1.61914,1.11484,1.11484,0,0,0-.97119-0.62793,0.68364,0.68364,0,0,0-.75732.78906,2.563,2.563,0,0,0,.01563.28516l0.02393,0.1875q0,0.6709-1.2168.6709a0.27928,0.27928,0,0,1-.30029-0.34668,0.96242,0.96242,0,0,1,.03906-0.21875c0.01563-.07227.03125-0.1582,0.04736-0.25684a1.59157,1.59157,0,0,1,.47949-0.97168A2.89575,2.89575,0,0,1,24.7648,61.604a2.53146,2.53146,0,0,1,2.03613.792,3.2565,3.2565,0,0,1,.519,2.09863q0,0.75293-.04736,1.89063-0.04687,1.30664-.04687,1.74219,0,1.01953.64453,1.01953a0.64076,0.64076,0,0,0,.33789-0.06934,0.46106,0.46106,0,0,1,.18066-0.06934,0.112,0.112,0,0,1,.11035.13867,0.5948,0.5948,0,0,1-.30664.46582l-0.30664.19824-0.26709.19824a1.09619,1.09619,0,0,1-.62109.18848,1.441,1.441,0,0,1-1.16357-1.12988,4.28721,4.28721,0,0,1-2.4292,1.17969,1.24917,1.24917,0,0,1-1.04541-.48633,2.15212,2.15212,0,0,1-.37744-1.35059,2.53629,2.53629,0,0,1,1.08252-2.28418A9.52857,9.52857,0,0,1,25.68472,65.24268Zm-0.15723.57422a1.5641,1.5641,0,0,0-1.28906.60449,2.1037,2.1037,0,0,0-.61328,1.457q0,1.30811.833,1.30859a1.40576,1.40576,0,0,0,.9043-0.30762,0.86535,0.86535,0,0,0,.291-0.54492,7.2367,7.2367,0,0,0,.07861-1.27832l0.00781-.76367v-0.208l-0.04736-.21777A0.27452,0.27452,0,0,0,25.5275,65.81689Z" transform="translate(0 -3.62765)"/>
    <path class="cls-6" d="M36.74576,65.79639v2.00684a4.52745,4.52745,0,0,0,.05469.875,0.96669,0.96669,0,0,0,.25146.44043,1.20676,1.20676,0,0,0,.72363.3457,0.23926,0.23926,0,0,1,.24365.23828q0,0.29736-.55957.29688a2.24971,2.24971,0,0,1-.33887-0.03711L36.609,69.88818a4.32514,4.32514,0,0,0-.54395-0.04687,4.967,4.967,0,0,0-1.19727.11621,1.408,1.408,0,0,1-.31543.042,0.17562,0.17562,0,0,1-.17334-0.21777,0.27455,0.27455,0,0,1,.18115-0.248,0.80264,0.80264,0,0,0,.46387-0.46582,3.403,3.403,0,0,0,.11768-1.07031V65.65869a4.50887,4.50887,0,0,0-.42627-2.13574,1.29185,1.29185,0,0,0-1.16113-.78809,1.34663,1.34663,0,0,0-1.06006.45508,1.72575,1.72575,0,0,0-.40283,1.1875v3.30566a2.52282,2.52282,0,0,0,.27148,1.33105,1.16365,1.16365,0,0,0,.91553.49023,0.21605,0.21605,0,0,1,.22021.22754,0.244,0.244,0,0,1-.27539.27734,4.82354,4.82354,0,0,1-.62256-0.04883,9.48724,9.48724,0,0,0-1.229-.13867,6.17627,6.17627,0,0,0-1.05566.10547,2.579,2.579,0,0,1-.38574.05273,0.17933,0.17933,0,0,1-.19727-0.208,0.22158,0.22158,0,0,1,.13379-0.208,1.03225,1.03225,0,0,0,.51123-0.41211,2.06917,2.06917,0,0,0,.10986-0.81738l0.00781-.32715V64.519l-0.00781-.38672a2.90241,2.90241,0,0,0-.11377-0.98633,0.41863,0.41863,0,0,0-.4209-0.27246H29.59195a0.1335,0.1335,0,0,1-.11816-0.05957,0.2362,0.2362,0,0,1-.03906-0.14844,0.2837,0.2837,0,0,1,.11816-0.2627,4.16706,4.16706,0,0,1,.69385-0.25293,4.32548,4.32548,0,0,0,1.64844-.8623,0.14868,0.14868,0,0,1,.10205-0.05957c0.063-.00684.09424,0.05566,0.09424,0.18848l-0.02344.49512-0.00781.56543,0.04736,0.376a0.14382,0.14382,0,0,0,.10254.12891,0.54934,0.54934,0,0,0,.251-0.26758A2.19076,2.19076,0,0,1,34.36783,61.604a1.93177,1.93177,0,0,1,1.82861.97461A6.9329,6.9329,0,0,1,36.74576,65.79639Z" transform="translate(0 -3.62765)"/>
    <path class="cls-6" d="M43.027,65.24268a4.22649,4.22649,0,0,0,.08643-0.77637,3.10221,3.10221,0,0,0-.37842-1.61914,1.11484,1.11484,0,0,0-.97119-0.62793,0.68364,0.68364,0,0,0-.75732.78906,2.563,2.563,0,0,0,.01563.28516l0.02393,0.1875q0,0.6709-1.2168.6709a0.27928,0.27928,0,0,1-.30029-0.34668,0.96242,0.96242,0,0,1,.03906-0.21875c0.01563-.07227.03125-0.1582,0.04736-0.25684a1.59157,1.59157,0,0,1,.47949-0.97168,2.89575,2.89575,0,0,1,2.01221-.75391,2.53146,2.53146,0,0,1,2.03613.792,3.2565,3.2565,0,0,1,.519,2.09863q0,0.75293-.04736,1.89063Q44.568,67.69189,44.568,68.12744q0,1.01953.64453,1.01953a0.64076,0.64076,0,0,0,.33789-0.06934,0.46106,0.46106,0,0,1,.18066-0.06934,0.112,0.112,0,0,1,.11035.13867,0.5948,0.5948,0,0,1-.30664.46582l-0.30664.19824-0.26709.19824a1.09619,1.09619,0,0,1-.62109.18848,1.441,1.441,0,0,1-1.16357-1.12988,4.28721,4.28721,0,0,1-2.4292,1.17969,1.24917,1.24917,0,0,1-1.04541-.48633,2.15212,2.15212,0,0,1-.37744-1.35059,2.53629,2.53629,0,0,1,1.08252-2.28418A9.52857,9.52857,0,0,1,43.027,65.24268Zm-0.15723.57422a1.5641,1.5641,0,0,0-1.28906.60449,2.1037,2.1037,0,0,0-.61328,1.457q0,1.30811.833,1.30859a1.40576,1.40576,0,0,0,.9043-0.30762,0.86535,0.86535,0,0,0,.291-0.54492,7.2367,7.2367,0,0,0,.07861-1.27832l0.00781-.76367v-0.208l-0.04736-.21777A0.27452,0.27452,0,0,0,42.86978,65.81689Z" transform="translate(0 -3.62765)"/>
    <path class="cls-6" d="M49.33951,61.604a3.49073,3.49073,0,0,1,1.17139.22852,0.45641,0.45641,0,0,1,.34619.38672l0.01563,0.43555,0.03906,0.625L50.9274,63.6167a0.53629,0.53629,0,0,1,.01611.11914,0.15838,0.15838,0,0,1-.16748.18848,1.18747,1.18747,0,0,1-.41455-0.65137,1.67814,1.67814,0,0,0-1.40234-1.26172,0.95516,0.95516,0,0,0-.729.334,1.133,1.133,0,0,0-.30566.78809,1.46025,1.46025,0,0,0,.91992,1.30957l0.54248,0.27637a6.71423,6.71423,0,0,1,.94336.56934,2.22132,2.22132,0,0,1,.47949.58008,3.03951,3.03951,0,0,1,.38525,1.585,3.16715,3.16715,0,0,1-.62109,1.98145,1.85287,1.85287,0,0,1-1.51709.8125,4.29035,4.29035,0,0,1-1.187-.208l-0.54248-.16895-0.354-.06934a0.24176,0.24176,0,0,1-.17285-0.27734c0-.05273.00244-0.13574,0.00781-0.248q0.01538-.16846.01563-0.38672l-0.02344-1.08008-0.00781-.48535a0.66207,0.66207,0,0,1,.03516-0.28223,0.21691,0.21691,0,0,1,.18506-0.05469q0.12524,0,.17285.2666a5.37406,5.37406,0,0,0,.51855,1.49121A1.52789,1.52789,0,0,0,49.04849,69.772a0.9904,0.9904,0,0,0,.78613-0.36914,1.38828,1.38828,0,0,0,.31445-0.93164,1.49537,1.49537,0,0,0-.30225-0.98535,3.67137,3.67137,0,0,0-1.15186-.78809,3.63932,3.63932,0,0,1-1.40723-1.05469,2.5868,2.5868,0,0,1-.39307-1.51172,2.54049,2.54049,0,0,1,.66064-1.84277A2.36379,2.36379,0,0,1,49.33951,61.604Z" transform="translate(0 -3.62765)"/>
    <path class="cls-6" d="M60.83365,58.96631v8.02441l-0.00781.8916a8.59277,8.59277,0,0,1-.23193,2.17383,5.63807,5.63807,0,0,1-.814,1.71875q-1.10815,1.62451-1.88672,1.625a0.75825,0.75825,0,0,1-.30664-0.05957l-0.43994-.17871-0.38525-.12891a0.47275,0.47275,0,0,1-.15723-0.416,2.62149,2.62149,0,0,1,.03906-0.416l0.189-1.25879c0.02637-.19238.07959-0.28809,0.15918-0.28809a0.88106,0.88106,0,0,1,.54053.44922l0.30371,0.42969a0.93658,0.93658,0,0,0,.6001.48926q0.60571,0,.60547-1.89355l-0.01562-.7334V61.93115q0-2.29834-.04346-3.05762a3.8774,3.8774,0,0,0-.19238-1.13477,0.89549,0.89549,0,0,0-.41309-0.48584,3.14455,3.14455,0,0,0-.9707-0.21826,0.25477,0.25477,0,0,1-.23584-0.292,0.31153,0.31153,0,0,1,.36182-0.34229,5.2365,5.2365,0,0,1,.53418.03955q1.10889,0.12891,1.25.12891a5.66307,5.66307,0,0,0,.82568-0.08936q1.13159-.16846,1.3208-0.16846a0.28242,0.28242,0,0,1,.35352.27295,0.29574,0.29574,0,0,1-.23584.26221,0.976,0.976,0,0,0-.58936.62012A5.02526,5.02526,0,0,0,60.83365,58.96631Z" transform="translate(0 -3.62765)"/>
    <path class="cls-6" d="M67.29507,61.604a3.02846,3.02846,0,0,1,2.45264,1.18848A4.62685,4.62685,0,0,1,70.715,65.812a4.80414,4.80414,0,0,1-1.0498,3.16309,3.255,3.255,0,0,1-2.61377,1.27246,3.05575,3.05575,0,0,1-2.44873-1.17773,4.47911,4.47911,0,0,1-.979-2.96,4.88539,4.88539,0,0,1,1.07324-3.18848A3.24639,3.24639,0,0,1,67.29507,61.604Zm-0.40723.5459a1.34649,1.34649,0,0,0-1.20605.80957,4.53188,4.53188,0,0,0-.44629,2.18164,6.97269,6.97269,0,0,0,.689,3.21875,1.98637,1.98637,0,0,0,1.66016,1.34277,1.3778,1.3778,0,0,0,1.20215-.76562,3.73909,3.73909,0,0,0,.46582-1.96973,7.69424,7.69424,0,0,0-.689-3.416A2.00531,2.00531,0,0,0,66.88785,62.1499Z" transform="translate(0 -3.62765)"/>
    <path class="cls-6" d="M79.39371,61.71338V67.8501a3.15332,3.15332,0,0,0,.126,1.17383,0.74335,0.74335,0,0,0,.67627.22266l0.18066-.00977a0.3981,0.3981,0,0,1,.1416.01953,0.22259,0.22259,0,0,1,.1333.22168q0,0.353-.53564.35352H79.73746c-0.21582,0-.38379.00684-0.50488,0.01953a5.29234,5.29234,0,0,0-1.11914.23828,0.41459,0.41459,0,0,1-.14209.0293q-0.17358,0-.17334-0.36621a3.13195,3.13195,0,0,1,.01563-0.33789c0.01074-.13184.01611-0.23047,0.01611-0.29687q0-.29736-0.10254-0.30762a0.25765,0.25765,0,0,0-.12549.11914l-0.28223.36719a2.12757,2.12757,0,0,1-1.73437.95117,2.022,2.022,0,0,1-1.75-.81152,4.08065,4.08065,0,0,1-.58887-2.40625q0-2.10791.063-3.65234c0.00537-.18457.00781-0.34375,0.00781-0.47559a0.58945,0.58945,0,0,0-.46387-0.72266l-0.31445-.0293a0.21741,0.21741,0,0,1-.2041-0.27246,0.27643,0.27643,0,0,1,.24023-0.25684,3.93252,3.93252,0,0,1,.895-0.06543,2.86238,2.86238,0,0,0,1.09619-.19824,1.03043,1.03043,0,0,1,.33105-0.0791c0.08936,0,.13379.0752,0.13379,0.22754,0,0.17773-.00537.35938-0.01562,0.54395q-0.071,1.05029-.0708,3.67285a8.11135,8.11135,0,0,0,.28906,2.69727,1.13217,1.13217,0,0,0,1.15723.67871,1.20975,1.20975,0,0,0,1.04785-.51562,2.51866,2.51866,0,0,0,.36719-1.47363V63.42432a2.53618,2.53618,0,0,0-.12158-1.0332,1.022,1.022,0,0,0-.688-0.28125,0.23271,0.23271,0,0,1-.24365-0.24219q0-.312.47314-0.3125a5.16993,5.16993,0,0,0,1.8999-.23828,0.40667,0.40667,0,0,1,.166-0.0498c0.07324-.00586.11035,0.05957,0.11035,0.19824Z" transform="translate(0 -3.62765)"/>
    <path class="cls-6" d="M84.54312,64.9917v2.78125q0,1.563,1.16357,1.76074a0.24164,0.24164,0,0,1,.24365.24316c0,0.168-.06055.25293-0.18115,0.25293a1.023,1.023,0,0,1-.2207-0.03027,8.76961,8.76961,0,0,0-1.62256-.14844,7.21833,7.21833,0,0,0-.79541.04l-0.48877.05957a1.95527,1.95527,0,0,1-.27539.01953,0.21561,0.21561,0,0,1-.2207-0.2627,0.24214,0.24214,0,0,1,.19629-0.24316q0.62109-.1875.62109-1.47266l-0.00781-.415V64.03955a2.01657,2.01657,0,0,0-.14551-0.94434,0.79315,0.79315,0,0,0-.625-0.28125,0.1877,0.1877,0,0,1-.18066-0.21289,0.23862,0.23862,0,0,1,.21289-0.2627,4.58491,4.58491,0,0,0,1.84668-.76367l0.30664-.22754a0.19449,0.19449,0,0,1,.11816-0.0498c0.07861,0,.11768.07227,0.11768,0.21777q0,0.07031-.00781.28711l-0.02344.55566-0.03174.61426,0.00781,0.10938a0.1571,0.1571,0,0,0,.11719.14844,1.02816,1.02816,0,0,0,.34229-0.47559,3.71158,3.71158,0,0,1,.65088-0.80762,1.32563,1.32563,0,0,1,.60352-0.43164A2.45523,2.45523,0,0,1,87.609,62.8042a3.78845,3.78845,0,0,1-.25391.69336,1.079,1.079,0,0,1-.57129.76367,0.24664,0.24664,0,0,1-.1875-0.09961l-0.21875-.248a1.17784,1.17784,0,0,0-.91309-0.46582Q84.54312,63.44775,84.54312,64.9917Z" transform="translate(0 -3.62765)"/>
    <path class="cls-6" d="M96.03677,65.79639v2.00684a4.52745,4.52745,0,0,0,.05469.875,0.96669,0.96669,0,0,0,.25146.44043,1.20676,1.20676,0,0,0,.72363.3457,0.23926,0.23926,0,0,1,.24365.23828q0,0.29736-.55957.29688a2.24971,2.24971,0,0,1-.33887-0.03711l-0.51172-.07422a4.32514,4.32514,0,0,0-.54395-0.04687,4.967,4.967,0,0,0-1.19727.11621,1.408,1.408,0,0,1-.31543.042,0.17562,0.17562,0,0,1-.17334-0.21777,0.27455,0.27455,0,0,1,.18115-0.248,0.80264,0.80264,0,0,0,.46387-0.46582,3.403,3.403,0,0,0,.11768-1.07031V65.65869a4.50887,4.50887,0,0,0-.42627-2.13574,1.29185,1.29185,0,0,0-1.16113-.78809,1.34663,1.34663,0,0,0-1.06006.45508,1.72575,1.72575,0,0,0-.40283,1.1875v3.30566a2.52282,2.52282,0,0,0,.27148,1.33105,1.16365,1.16365,0,0,0,.91553.49023,0.21605,0.21605,0,0,1,.22021.22754,0.244,0.244,0,0,1-.27539.27734,4.82354,4.82354,0,0,1-.62256-0.04883,9.48724,9.48724,0,0,0-1.229-.13867,6.17627,6.17627,0,0,0-1.05566.10547,2.579,2.579,0,0,1-.38574.05273,0.17933,0.17933,0,0,1-.19727-0.208,0.22158,0.22158,0,0,1,.13379-0.208,1.03225,1.03225,0,0,0,.51123-0.41211,2.06917,2.06917,0,0,0,.10986-0.81738l0.00781-.32715V64.519L89.779,64.13232a2.90241,2.90241,0,0,0-.11377-0.98633,0.41863,0.41863,0,0,0-.4209-0.27246H88.883A0.1335,0.1335,0,0,1,88.7648,62.814a0.2362,0.2362,0,0,1-.03906-0.14844,0.2837,0.2837,0,0,1,.11816-0.2627,4.16706,4.16706,0,0,1,.69385-0.25293,4.32548,4.32548,0,0,0,1.64844-.8623,0.14868,0.14868,0,0,1,.10205-0.05957c0.063-.00684.09424,0.05566,0.09424,0.18848l-0.02344.49512-0.00781.56543,0.04736,0.376a0.14382,0.14382,0,0,0,.10254.12891,0.54934,0.54934,0,0,0,.251-0.26758A2.19076,2.19076,0,0,1,93.65884,61.604a1.93177,1.93177,0,0,1,1.82861.97461A6.9329,6.9329,0,0,1,96.03677,65.79639Z" transform="translate(0 -3.62765)"/>
    <path class="cls-6" d="M102.318,65.24268a4.22649,4.22649,0,0,0,.08643-0.77637,3.10221,3.10221,0,0,0-.37842-1.61914,1.11484,1.11484,0,0,0-.97119-0.62793,0.68364,0.68364,0,0,0-.75732.78906,2.563,2.563,0,0,0,.01563.28516l0.02393,0.1875q0,0.6709-1.2168.6709A0.27928,0.27928,0,0,1,98.82,63.80518a0.96242,0.96242,0,0,1,.03906-0.21875c0.01563-.07227.03125-0.1582,0.04736-0.25684a1.59157,1.59157,0,0,1,.47949-0.97168,2.89575,2.89575,0,0,1,2.01221-.75391,2.53146,2.53146,0,0,1,2.03613.792,3.2565,3.2565,0,0,1,.519,2.09863q0,0.75293-.04736,1.89063-0.04687,1.30664-.04687,1.74219,0,1.01953.64453,1.01953a0.64076,0.64076,0,0,0,.33789-0.06934,0.46106,0.46106,0,0,1,.18066-0.06934,0.112,0.112,0,0,1,.11035.13867,0.5948,0.5948,0,0,1-.30664.46582l-0.30664.19824-0.26709.19824a1.09619,1.09619,0,0,1-.62109.18848,1.441,1.441,0,0,1-1.16357-1.12988,4.28721,4.28721,0,0,1-2.4292,1.17969,1.24917,1.24917,0,0,1-1.04541-.48633,2.15212,2.15212,0,0,1-.37744-1.35059,2.53629,2.53629,0,0,1,1.08252-2.28418A9.52857,9.52857,0,0,1,102.318,65.24268Zm-0.15723.57422a1.5641,1.5641,0,0,0-1.28906.60449,2.1037,2.1037,0,0,0-.61328,1.457q0,1.30811.833,1.30859a1.40576,1.40576,0,0,0,.9043-0.30762,0.86535,0.86535,0,0,0,.291-0.54492,7.2367,7.2367,0,0,0,.07861-1.27832l0.00781-.76367v-0.208l-0.04736-.21777A0.27452,0.27452,0,0,0,102.1608,65.81689Z" transform="translate(0 -3.62765)"/>
    <path class="cls-6" d="M108.58414,58.50928v8.75586l0.00781,0.32715a2.964,2.964,0,0,0,.21973,1.3623,1.23038,1.23038,0,0,0,.86523.51953,0.55926,0.55926,0,0,1,.23975.08105,0.33371,0.33371,0,0,1,.03516.19238c0,0.16113-.05273.24219-0.15771,0.24219a2.02427,2.02427,0,0,1-.27539-0.0293,9.247,9.247,0,0,0-1.55225-.10937,7.09569,7.09569,0,0,0-1.44141.09961,0.92041,0.92041,0,0,1-.18115.0293c-0.11035,0-.16553-0.084-0.16553-0.25293a0.28692,0.28692,0,0,1,.19678-0.23242,1.31741,1.31741,0,0,0,.59717-1.29687l0.01563-.57422,0.00781-.2666V59.37061a5.91772,5.91772,0,0,0-.16895-1.74121,0.62509,0.62509,0,0,0-.625-0.46582,0.21763,0.21763,0,0,1-.228-0.26172,0.22717,0.22717,0,0,1,.08691-0.20654,2.22855,2.22855,0,0,1,.47363-0.15625,4.67468,4.67468,0,0,0,1.60938-.72363l0.26709-.19824a0.336,0.336,0,0,1,.1416-0.05957q0.11792-.00952.11816,0.19824,0,0.10913-.01611.49561Q108.58414,57.58813,108.58414,58.50928Z" transform="translate(0 -3.62765)"/>
    <path class="cls-6" d="M119.50308,61.604a3.02846,3.02846,0,0,1,2.45264,1.18848A4.62685,4.62685,0,0,1,122.923,65.812a4.80414,4.80414,0,0,1-1.0498,3.16309,3.255,3.255,0,0,1-2.61377,1.27246,3.05575,3.05575,0,0,1-2.44873-1.17773,4.47911,4.47911,0,0,1-.979-2.96,4.88539,4.88539,0,0,1,1.07324-3.18848A3.24639,3.24639,0,0,1,119.50308,61.604Zm-0.40723.5459a1.34649,1.34649,0,0,0-1.20605.80957,4.53188,4.53188,0,0,0-.44629,2.18164,6.97269,6.97269,0,0,0,.689,3.21875,1.98637,1.98637,0,0,0,1.66016,1.34277,1.3778,1.3778,0,0,0,1.20215-.76562,3.73909,3.73909,0,0,0,.46582-1.96973,7.69424,7.69424,0,0,0-.689-3.416A2.00531,2.00531,0,0,0,119.09586,62.1499Z" transform="translate(0 -3.62765)"/>
    <path class="cls-6" d="M128.41812,62.87354h-0.75488q-0.47168,0-.47168.62207v4.042a3.50478,3.50478,0,0,0,.20068,1.45313,1.22864,1.22864,0,0,0,.853.5332,0.299,0.299,0,0,1,.26709.293,0.2036,0.2036,0,0,1-.22852.23242q-0.063,0-.37793-0.0498a7.83239,7.83239,0,0,0-1.32373-.13867,6.79469,6.79469,0,0,0-1.2998.13086,1.66086,1.66086,0,0,1-.24414.02832,0.157,0.157,0,0,1-.15771-0.19336,0.30131,0.30131,0,0,1,.1416-0.25293l0.228-.168a1.04076,1.04076,0,0,0,.35352-0.89941V63.34717a0.369,0.369,0,0,0-.38525-0.44434l-0.24365-.00977h-0.18848c-0.20459,0-.30664-0.05566-0.30664-0.16895a0.66662,0.66662,0,0,1,.03125-0.17773,2.68771,2.68771,0,0,0,.063-0.377,0.204,0.204,0,0,1,.165-0.22754l0.37744-.03027a0.53361,0.53361,0,0,0,.38916-0.14844,0.94367,0.94367,0,0,0,.12988-0.50586,10.38729,10.38729,0,0,1,.731-3.52832q0.89575-2.02295,2.05176-2.02246,0.75439,0,.75439.54492a1.21849,1.21849,0,0,1-.03906.25781q-0.15747.69434-.19629,0.99121c-0.01611.166-.06055,0.248-0.13379,0.248a0.13866,0.13866,0,0,1-.1416-0.1377l-0.03125-.20605a0.89934,0.89934,0,0,0-.29346-0.49609,0.71327,0.71327,0,0,0-.47314-0.231,0.65834,0.65834,0,0,0-.49658.59863,5.6175,5.6175,0,0,0-.18359,1.59814l-0.01562,1.50391-0.00781.74219a1.05428,1.05428,0,0,0,.12158.60352,0.56509,0.56509,0,0,0,.46777.1582,4.98391,4.98391,0,0,0,.814-0.03516,0.95934,0.95934,0,0,0,.36523-0.30176l0.0708-.0498c0.06836-.00684.09961,0.0332,0.09473,0.12012l-0.03955.10938-0.18848.73926a0.86773,0.86773,0,0,1-.14551.34863A0.49937,0.49937,0,0,1,128.41812,62.87354Z" transform="translate(0 -3.62765)"/>
    <path class="cls-6" d="M138.17447,58.71045v2.15039a3.83434,3.83434,0,0,0,.106,1.16992,0.497,0.497,0,0,0,.51465.248l0.23584-.00977,0.34619-.01074h0.668a1.36547,1.36547,0,0,0,1.20313-1.08008l0.18066-.48535a0.26242,0.26242,0,0,1,.23584-0.18848c0.11523-.00684.17285,0.083,0.17285,0.26855q0,0.0791-.02344.43652c-0.01074.17188-.01562,0.31836-0.01562,0.43652q0,0.31934.07031,1.49023,0.04761,0.76465.04736,1.33105l0.00781,0.50684a0.504,0.504,0,0,1-.02344.18848,0.14539,0.14539,0,0,1-.126.06934c-0.13086.01367-.21191-0.1123-0.24365-0.376a2.3956,2.3956,0,0,0-.47168-1.2793,0.92326,0.92326,0,0,0-.499-0.30664,5.679,5.679,0,0,0-1.10449-.06934h-0.53467a0.71,0.71,0,0,0-.51514.14355,1.03425,1.03425,0,0,0-.18457.57813q-0.04687.49512-.04687,1.56348v0.89063a8.19663,8.19663,0,0,0,.17285,2.00879,1.30851,1.30851,0,0,0,.31445.60352,0.83056,0.83056,0,0,0,.55811.1582q3.19116,0,4.17432-2.44727a0.22431,0.22431,0,0,1,.09424-0.12891,0.13678,0.13678,0,0,1,.14551.06445,0.33417,0.33417,0,0,1,.06689.21387,4.50577,4.50577,0,0,1-.417,1.8877,2.44741,2.44741,0,0,1-.86426,1.1084,2.52071,2.52071,0,0,1-1.376.333,8.78677,8.78677,0,0,1-1.11621-.0791l-0.91211-.10937a12.31713,12.31713,0,0,0-1.35986-.05957q-0.57422,0-1.74512.08984c-0.21533.01953-.36963,0.0293-0.46387,0.0293a0.19859,0.19859,0,0,1-.20459-0.22266,0.27574,0.27574,0,0,1,.17285-0.27246,1.50738,1.50738,0,0,0,.60938-0.46094,2.29611,2.29611,0,0,0,.25537-0.86523,9.20671,9.20671,0,0,0,.08643-1.4248V58.95459a2.75076,2.75076,0,0,0-.28662-1.50391,1.818,1.818,0,0,0-1.19092-.55469,0.25713,0.25713,0,0,1-.2124-0.293,0.21816,0.21816,0,0,1,.25928-0.23242c0.03662,0,.11523.00684,0.23584,0.02q0.14136,0.00952.38525,0.00977l0.79395,0.03955,2.97949,0.03955a31.53938,31.53938,0,0,0,3.168-.08887,0.70131,0.70131,0,0,1,.11035-0.01025c0.15186,0,.228.10938,0.228,0.32715q0,0.22852.04688,0.81348,0.063,0.86133.063,1.23828,0,0.75439-.30664.77344c-0.09961.00684-.14941-0.13965-0.14941-0.4375a1.6973,1.6973,0,0,0-.56982-1.42871,3.02285,3.02285,0,0,0-1.84326-.44336h-0.959l-0.53467.0791a0.968,0.968,0,0,0-.40088,1.002Z" transform="translate(0 -3.62765)"/>
    <path class="cls-6" d="M152.34879,65.79639v2.00684a4.52745,4.52745,0,0,0,.05469.875,0.96669,0.96669,0,0,0,.25146.44043,1.20676,1.20676,0,0,0,.72363.3457,0.23926,0.23926,0,0,1,.24365.23828q0,0.29736-.55957.29688a2.24971,2.24971,0,0,1-.33887-0.03711l-0.51172-.07422a4.32514,4.32514,0,0,0-.54395-0.04687,4.967,4.967,0,0,0-1.19727.11621,1.408,1.408,0,0,1-.31543.042,0.17562,0.17562,0,0,1-.17334-0.21777,0.27455,0.27455,0,0,1,.18115-0.248,0.80264,0.80264,0,0,0,.46387-0.46582,3.403,3.403,0,0,0,.11768-1.07031V65.65869a4.50887,4.50887,0,0,0-.42627-2.13574,1.29185,1.29185,0,0,0-1.16113-.78809,1.34663,1.34663,0,0,0-1.06006.45508,1.72575,1.72575,0,0,0-.40283,1.1875v3.30566a2.52282,2.52282,0,0,0,.27148,1.33105,1.16365,1.16365,0,0,0,.91553.49023,0.21605,0.21605,0,0,1,.22021.22754,0.244,0.244,0,0,1-.27539.27734,4.82354,4.82354,0,0,1-.62256-0.04883,9.48724,9.48724,0,0,0-1.229-.13867,6.17627,6.17627,0,0,0-1.05566.10547,2.579,2.579,0,0,1-.38574.05273,0.17933,0.17933,0,0,1-.19727-0.208,0.22158,0.22158,0,0,1,.13379-0.208,1.03225,1.03225,0,0,0,.51123-0.41211,2.06917,2.06917,0,0,0,.10986-0.81738l0.00781-.32715V64.519l-0.00781-.38672a2.90241,2.90241,0,0,0-.11377-0.98633,0.41863,0.41863,0,0,0-.4209-0.27246H145.195a0.1335,0.1335,0,0,1-.11816-0.05957,0.2362,0.2362,0,0,1-.03906-0.14844,0.2837,0.2837,0,0,1,.11816-0.2627,4.16706,4.16706,0,0,1,.69385-0.25293,4.32548,4.32548,0,0,0,1.64844-.8623,0.14868,0.14868,0,0,1,.10205-0.05957c0.063-.00684.09424,0.05566,0.09424,0.18848l-0.02344.49512-0.00781.56543,0.04736,0.376a0.14382,0.14382,0,0,0,.10254.12891,0.54934,0.54934,0,0,0,.251-0.26758,2.19076,2.19076,0,0,1,1.90674-1.11035,1.93177,1.93177,0,0,1,1.82861.97461A6.9329,6.9329,0,0,1,152.34879,65.79639Z" transform="translate(0 -3.62765)"/>
    <path class="cls-6" d="M159.80045,62.41455a1.43959,1.43959,0,0,0,.8457-0.36133,1.37486,1.37486,0,0,0,.3418-0.83594,0.169,0.169,0,0,1,.15723-0.19727c0.08887,0,.13379.085,0.13379,0.25684q0,0.24609-.09473,1.05664c-0.042.36914-.06543,0.61035-0.07031,0.72168a0.56972,0.56972,0,0,1-.11035.33594,2.33385,2.33385,0,0,1-.49512.3457,2.697,2.697,0,0,0,.02344.30762c0.02637,0.31738.03906,0.51172,0.03906,0.585a2.34,2.34,0,0,1-.81348,1.8125,2.89183,2.89183,0,0,1-2.0083.7334,3.482,3.482,0,0,1-.79395-0.09961,1.148,1.148,0,0,0-.27539-0.03906,0.49237,0.49237,0,0,0-.415.24219,1.03829,1.03829,0,0,0-.1665.59961q0,0.85254,1.18115.85254a8.23483,8.23483,0,0,1,3.04346.3623,1.473,1.473,0,0,1,.752,1.47559,2.8527,2.8527,0,0,1-.84766,2.08594,3.40937,3.40937,0,0,1-2.5249.85352,4.53237,4.53237,0,0,1-2.22705-.44238,1.39809,1.39809,0,0,1-.76855-1.27734,1.46324,1.46324,0,0,1,.24316-0.80566,0.96628,0.96628,0,0,1,.57324-0.457,0.55936,0.55936,0,0,0,.377-0.17871l-0.063-.12891-0.23535-.29785a1.72616,1.72616,0,0,1-.35254-1.07031,2.21082,2.21082,0,0,1,.53467-1.48633l0.25146-.29785a0.29744,0.29744,0,0,0,.0708-0.18848,0.67949,0.67949,0,0,0-.32227-0.38477,2.00237,2.00237,0,0,1-.60937-0.88086,3.11788,3.11788,0,0,1-.26318-1.19727,2.7211,2.7211,0,0,1,2.814-2.81055A2.99978,2.99978,0,0,1,159.80045,62.41455ZM156.63,70.53467a0.60441,0.60441,0,0,0-.50293.27344,1.09037,1.09037,0,0,0-.20166.66895,1.40036,1.40036,0,0,0,.55029,1.16406,2.369,2.369,0,0,0,1.50146.43164,2.23012,2.23012,0,0,0,1.34375-.37207,1.1618,1.1618,0,0,0,.51172-0.98633,0.71521,0.71521,0,0,0-.31445-0.68848,4.6347,4.6347,0,0,0-1.46-.28223,8.605,8.605,0,0,1-1.03613-.13965l-0.2041-.04883A0.95937,0.95937,0,0,0,156.63,70.53467Zm1.09521-8.50391a1.062,1.062,0,0,0-.94922.59082,3.18629,3.18629,0,0,0-.34766,1.61523,3.91746,3.91746,0,0,0,.375,1.82227,1.09282,1.09282,0,0,0,.9375.71973,1.05361,1.05361,0,0,0,.92969-0.58594,2.97426,2.97426,0,0,0,.35254-1.542Q159.0231,62.03027,157.72525,62.03076Z" transform="translate(0 -3.62765)"/>
    <path class="cls-6" d="M165.14712,62.02881v5.60645a2.91371,2.91371,0,0,0,.23926,1.4043,1.056,1.056,0,0,0,.89258.44434,0.23053,0.23053,0,0,1,.25879.2334q0,0.26221-.62207.2627c-0.05273,0-.165-0.00977-0.33887-0.02832l-0.59082-.07422c-0.3252-.03711-0.541-0.05566-0.64551-0.05566a6.18686,6.18686,0,0,0-1.127.13867,1.29129,1.29129,0,0,1-.26758.03906,0.15909,0.15909,0,0,1-.165-0.19238,0.23281,0.23281,0,0,1,.10156-0.2041l0.26758-.168a0.902,0.902,0,0,0,.29492-0.51367,2.94439,2.94439,0,0,0,.12207-0.84961l-0.00781-.415V64.30615a3.0089,3.0089,0,0,0-.12988-1.06738,0.46993,0.46993,0,0,0-.46777-0.2959h-0.18066a0.2326,0.2326,0,0,1-.20508-0.08105,0.29813,0.29813,0,0,1-.02344-0.14062,0.50505,0.50505,0,0,1,.48145-0.38281,4.31591,4.31591,0,0,0,1.88477-.96191,0.25739,0.25739,0,0,1,.13379-0.06934c0.07324,0.00684.11035,0.06934,0.11035,0.1875l-0.00781.08984C165.14908,61.64307,165.14712,61.7915,165.14712,62.02881Zm-0.8457-5.41016a1.4236,1.4236,0,0,1,.58789.67383l0.3291,0.53516a0.74713,0.74713,0,0,1,.125.34766,2.13,2.13,0,0,1-.43066.90137,1.45281,1.45281,0,0,1-.60352.66406,0.28031,0.28031,0,0,1-.21094-0.11914l-0.36816-.56445-0.34473-.49609a0.68306,0.68306,0,0,1-.13281-0.33691,2.55367,2.55367,0,0,1,.46191-0.90137A1.84557,1.84557,0,0,1,164.30142,56.61865Z" transform="translate(0 -3.62765)"/>
    <path class="cls-6" d="M174.93423,65.79639v2.00684a4.463,4.463,0,0,0,.05566.875,0.96112,0.96112,0,0,0,.251.44043,1.20543,1.20543,0,0,0,.72363.3457,0.23882,0.23882,0,0,1,.24316.23828q0,0.29736-.55859.29688a2.23713,2.23713,0,0,1-.33887-0.03711l-0.5127-.07422a4.30526,4.30526,0,0,0-.543-0.04687,4.97866,4.97866,0,0,0-1.19824.11621,1.39675,1.39675,0,0,1-.31445.042,0.17549,0.17549,0,0,1-.17383-0.21777,0.27475,0.27475,0,0,1,.18066-0.248,0.80127,0.80127,0,0,0,.46387-0.46582,3.38484,3.38484,0,0,0,.11816-1.07031V65.65869a4.50931,4.50931,0,0,0-.42578-2.13574,1.29264,1.29264,0,0,0-1.16211-.78809,1.3463,1.3463,0,0,0-1.05957.45508,1.72548,1.72548,0,0,0-.40234,1.1875v3.30566a2.524,2.524,0,0,0,.27051,1.33105,1.16622,1.16622,0,0,0,.916.49023,0.21675,0.21675,0,0,1,.2207.22754,0.24471,0.24471,0,0,1-.27637.27734,4.81675,4.81675,0,0,1-.62207-0.04883,9.50016,9.50016,0,0,0-1.22852-.13867,6.167,6.167,0,0,0-1.05566.10547,2.59477,2.59477,0,0,1-.38672.05273,0.17886,0.17886,0,0,1-.19629-0.208,0.22082,0.22082,0,0,1,.13379-0.208,1.03064,1.03064,0,0,0,.51074-0.41211,2.06691,2.06691,0,0,0,.11035-0.81738l0.00781-.32715V64.519l-0.00781-.38672a2.88658,2.88658,0,0,0-.11426-0.98633,0.419,0.419,0,0,0-.4209-0.27246h-0.36133a0.1335,0.1335,0,0,1-.11816-0.05957,0.2362,0.2362,0,0,1-.03906-0.14844,0.2837,0.2837,0,0,1,.11816-0.2627,4.19933,4.19933,0,0,1,.69434-0.25293,4.31752,4.31752,0,0,0,1.64746-.8623,0.15046,0.15046,0,0,1,.10254-0.05957c0.06348-.00684.09473,0.05566,0.09473,0.18848l-0.02344.49512-0.00781.56543,0.04688,0.376a0.14382,0.14382,0,0,0,.10254.12891,0.54709,0.54709,0,0,0,.251-0.26758,2.191,2.191,0,0,1,1.90723-1.11035,1.93149,1.93149,0,0,1,1.82813.97461A6.934,6.934,0,0,1,174.93423,65.79639Z" transform="translate(0 -3.62765)"/>
    <path class="cls-6" d="M180.571,61.58447a2.55513,2.55513,0,0,1,2.09863,1.209,3.47082,3.47082,0,0,1,.73926,2.042,0.35926,0.35926,0,0,1-.42383.38672l-0.36133-.01953H182.444l-0.47949.00977-1.48242.03027-0.77734.00977-0.2666-.00977a0.40656,0.40656,0,0,0-.29.06934,0.57463,0.57463,0,0,0-.08691.36719,4.0582,4.0582,0,0,0,.67871,2.32031,1.91007,1.91007,0,0,0,1.56543,1.00879,1.95262,1.95262,0,0,0,1.59277-.72949l0.251-.31055a0.1768,0.1768,0,0,1,.13379-0.08008,0.17008,0.17008,0,0,1,.17285.208,1.97131,1.97131,0,0,1-.60547.96191,3.08546,3.08546,0,0,1-2.29492,1.18945,2.624,2.624,0,0,1-2.2168-1.17969,5.0512,5.0512,0,0,1-.85742-3.043,5.3368,5.3368,0,0,1,.916-3.12207A2.6268,2.6268,0,0,1,180.571,61.58447Zm-0.21973.50586a1.12138,1.12138,0,0,0-.93066.65918,2.94482,2.94482,0,0,0-.39844,1.55371,0.37191,0.37191,0,0,0,.11328.34473,1.82459,1.82459,0,0,0,.61328.05859c0.17285,0,.35449-0.00586.54785-0.01953,0.46875-.02637.74023-0.03906,0.8125-0.03906a0.55,0.55,0,0,0,.68848-0.53125,2.35711,2.35711,0,0,0-.44238-1.41211A1.24441,1.24441,0,0,0,180.35123,62.09033Z" transform="translate(0 -3.62765)"/>
    <path class="cls-6" d="M188.11,61.58447a2.55513,2.55513,0,0,1,2.09863,1.209,3.47082,3.47082,0,0,1,.73926,2.042,0.35926,0.35926,0,0,1-.42383.38672l-0.36133-.01953h-0.17969l-0.47949.00977-1.48242.03027-0.77734.00977-0.2666-.00977a0.40656,0.40656,0,0,0-.29.06934,0.57463,0.57463,0,0,0-.08691.36719,4.0582,4.0582,0,0,0,.67871,2.32031,1.91007,1.91007,0,0,0,1.56543,1.00879,1.95262,1.95262,0,0,0,1.59277-.72949l0.251-.31055a0.1768,0.1768,0,0,1,.13379-0.08008,0.17008,0.17008,0,0,1,.17285.208,1.97131,1.97131,0,0,1-.60547.96191,3.08546,3.08546,0,0,1-2.29492,1.18945,2.624,2.624,0,0,1-2.2168-1.17969,5.0512,5.0512,0,0,1-.85742-3.043,5.3368,5.3368,0,0,1,.916-3.12207A2.6268,2.6268,0,0,1,188.11,61.58447Zm-0.21973.50586a1.12138,1.12138,0,0,0-.93066.65918,2.94482,2.94482,0,0,0-.39844,1.55371,0.37191,0.37191,0,0,0,.11328.34473,1.82459,1.82459,0,0,0,.61328.05859c0.17285,0,.35449-0.00586.54785-0.01953,0.46875-.02637.74023-0.03906,0.8125-0.03906a0.55,0.55,0,0,0,.68848-0.53125,2.35711,2.35711,0,0,0-.44238-1.41211A1.24441,1.24441,0,0,0,187.89029,62.09033Z" transform="translate(0 -3.62765)"/>
    <path class="cls-6" d="M195.13834,64.9917v2.78125q0,1.563,1.16309,1.76074a0.24241,0.24241,0,0,1,.24414.24316c0,0.168-.06055.25293-0.18164,0.25293a1.01913,1.01913,0,0,1-.2207-0.03027,8.771,8.771,0,0,0-1.623-.14844,7.209,7.209,0,0,0-.79492.04l-0.48828.05957a1.96922,1.96922,0,0,1-.27637.01953,0.216,0.216,0,0,1-.2207-0.2627,0.24208,0.24208,0,0,1,.19727-0.24316q0.62109-.1875.62109-1.47266l-0.00781-.415V64.03955a2.02306,2.02306,0,0,0-.14551-0.94434,0.79562,0.79562,0,0,0-.625-0.28125,0.18742,0.18742,0,0,1-.18066-0.21289,0.23828,0.23828,0,0,1,.21289-0.2627,4.58781,4.58781,0,0,0,1.84668-.76367l0.30664-.22754a0.19213,0.19213,0,0,1,.11719-0.0498c0.0791,0,.11816.07227,0.11816,0.21777,0,0.04688-.00293.14258-0.00781,0.28711l-0.02344.55566-0.03125.61426,0.00781,0.10938a0.15693,0.15693,0,0,0,.11621.14844,1.03081,1.03081,0,0,0,.34277-0.47559,3.72235,3.72235,0,0,1,.65039-0.80762,1.32638,1.32638,0,0,1,.60449-0.43164,2.46063,2.46063,0,0,1,1.34375,1.28906,3.83176,3.83176,0,0,1-.25391.69336,1.079,1.079,0,0,1-.57129.76367,0.24815,0.24815,0,0,1-.1875-0.09961l-0.21875-.248a1.17784,1.17784,0,0,0-.91309-0.46582Q195.13785,63.44775,195.13834,64.9917Z" transform="translate(0 -3.62765)"/>
    <path class="cls-6" d="M201.97037,62.02881v5.60645a2.91371,2.91371,0,0,0,.23926,1.4043,1.056,1.056,0,0,0,.89258.44434,0.23053,0.23053,0,0,1,.25879.2334q0,0.26221-.62207.2627c-0.05273,0-.165-0.00977-0.33887-0.02832l-0.59082-.07422c-0.3252-.03711-0.541-0.05566-0.64551-0.05566a6.18686,6.18686,0,0,0-1.127.13867,1.29129,1.29129,0,0,1-.26758.03906,0.15909,0.15909,0,0,1-.165-0.19238,0.23281,0.23281,0,0,1,.10156-0.2041l0.26758-.168a0.902,0.902,0,0,0,.29492-0.51367,2.94439,2.94439,0,0,0,.12207-0.84961l-0.00781-.415V64.30615a3.0089,3.0089,0,0,0-.12988-1.06738,0.46993,0.46993,0,0,0-.46777-0.2959h-0.18066a0.2326,0.2326,0,0,1-.20508-0.08105,0.29813,0.29813,0,0,1-.02344-0.14062,0.50505,0.50505,0,0,1,.48145-0.38281,4.31591,4.31591,0,0,0,1.88477-.96191,0.25739,0.25739,0,0,1,.13379-0.06934c0.07324,0.00684.11035,0.06934,0.11035,0.1875l-0.00781.08984C201.97232,61.64307,201.97037,61.7915,201.97037,62.02881Zm-0.8457-5.41016a1.4236,1.4236,0,0,1,.58789.67383l0.3291,0.53516a0.74713,0.74713,0,0,1,.125.34766,2.13,2.13,0,0,1-.43066.90137,1.45281,1.45281,0,0,1-.60352.66406,0.28031,0.28031,0,0,1-.21094-0.11914l-0.36816-.56445-0.34473-.49609a0.68306,0.68306,0,0,1-.13281-0.33691,2.55367,2.55367,0,0,1,.46191-0.90137A1.84557,1.84557,0,0,1,201.12466,56.61865Z" transform="translate(0 -3.62765)"/>
    <path class="cls-6" d="M211.75748,65.79639v2.00684a4.463,4.463,0,0,0,.05566.875,0.96112,0.96112,0,0,0,.251.44043,1.20543,1.20543,0,0,0,.72363.3457,0.23882,0.23882,0,0,1,.24316.23828q0,0.29736-.55859.29688a2.23713,2.23713,0,0,1-.33887-0.03711l-0.5127-.07422a4.30526,4.30526,0,0,0-.543-0.04687,4.97866,4.97866,0,0,0-1.19824.11621,1.39675,1.39675,0,0,1-.31445.042,0.17549,0.17549,0,0,1-.17383-0.21777,0.27475,0.27475,0,0,1,.18066-0.248,0.80127,0.80127,0,0,0,.46387-0.46582,3.38484,3.38484,0,0,0,.11816-1.07031V65.65869a4.50931,4.50931,0,0,0-.42578-2.13574,1.29264,1.29264,0,0,0-1.16211-.78809,1.3463,1.3463,0,0,0-1.05957.45508,1.72548,1.72548,0,0,0-.40234,1.1875v3.30566a2.524,2.524,0,0,0,.27051,1.33105,1.16621,1.16621,0,0,0,.916.49023,0.21675,0.21675,0,0,1,.2207.22754,0.24471,0.24471,0,0,1-.27637.27734,4.81675,4.81675,0,0,1-.62207-0.04883,9.50016,9.50016,0,0,0-1.22852-.13867,6.167,6.167,0,0,0-1.05566.10547,2.59477,2.59477,0,0,1-.38672.05273,0.17886,0.17886,0,0,1-.19629-0.208,0.22082,0.22082,0,0,1,.13379-0.208,1.03064,1.03064,0,0,0,.51074-0.41211,2.06691,2.06691,0,0,0,.11035-0.81738l0.00781-.32715V64.519l-0.00781-.38672a2.88658,2.88658,0,0,0-.11426-0.98633,0.419,0.419,0,0,0-.4209-0.27246h-0.36133A0.1335,0.1335,0,0,1,204.486,62.814a0.2362,0.2362,0,0,1-.03906-0.14844,0.2837,0.2837,0,0,1,.11816-0.2627,4.19933,4.19933,0,0,1,.69434-0.25293,4.31751,4.31751,0,0,0,1.64746-.8623,0.15046,0.15046,0,0,1,.10254-0.05957c0.06348-.00684.09473,0.05566,0.09473,0.18848l-0.02344.49512-0.00781.56543,0.04688,0.376a0.14382,0.14382,0,0,0,.10254.12891,0.54709,0.54709,0,0,0,.251-0.26758,2.191,2.191,0,0,1,1.90723-1.11035,1.93149,1.93149,0,0,1,1.82813.97461A6.934,6.934,0,0,1,211.75748,65.79639Z" transform="translate(0 -3.62765)"/>
    <path class="cls-6" d="M219.20962,62.41455a1.43959,1.43959,0,0,0,.8457-0.36133,1.37486,1.37486,0,0,0,.3418-0.83594,0.169,0.169,0,0,1,.15723-0.19727c0.08887,0,.13379.085,0.13379,0.25684q0,0.24609-.09473,1.05664c-0.042.36914-.06543,0.61035-0.07031,0.72168a0.56972,0.56972,0,0,1-.11035.33594,2.33385,2.33385,0,0,1-.49512.3457,2.697,2.697,0,0,0,.02344.30762c0.02637,0.31738.03906,0.51172,0.03906,0.585a2.34,2.34,0,0,1-.81348,1.8125,2.89221,2.89221,0,0,1-2.00879.7334,3.48863,3.48863,0,0,1-.79395-0.09961,1.1407,1.1407,0,0,0-.27441-0.03906,0.49056,0.49056,0,0,0-.415.24219,1.03483,1.03483,0,0,0-.167.59961q0,0.85254,1.18164.85254a8.23346,8.23346,0,0,1,3.043.3623,1.473,1.473,0,0,1,.752,1.47559,2.8527,2.8527,0,0,1-.84766,2.08594,3.40891,3.40891,0,0,1-2.52441.85352,4.53447,4.53447,0,0,1-2.22754-.44238,1.39722,1.39722,0,0,1-.76855-1.27734,1.46324,1.46324,0,0,1,.24316-0.80566,0.96492,0.96492,0,0,1,.57324-0.457,0.56092,0.56092,0,0,0,.377-0.17871l-0.06348-.12891-0.23437-.29785a1.72317,1.72317,0,0,1-.35254-1.07031,2.21041,2.21041,0,0,1,.53418-1.48633l0.251-.29785a0.29534,0.29534,0,0,0,.07129-0.18848,0.67949,0.67949,0,0,0-.32227-0.38477,2.00633,2.00633,0,0,1-.60937-0.88086,3.119,3.119,0,0,1-.26367-1.19727,2.72112,2.72112,0,0,1,2.81445-2.81055A2.99978,2.99978,0,0,1,219.20962,62.41455Zm-3.1709,8.12012a0.605,0.605,0,0,0-.50293.27344,1.09644,1.09644,0,0,0-.20117.66895,1.40258,1.40258,0,0,0,.5498,1.16406,2.37052,2.37052,0,0,0,1.502.43164,2.23012,2.23012,0,0,0,1.34375-.37207,1.1618,1.1618,0,0,0,.51172-0.98633,0.71521,0.71521,0,0,0-.31445-0.68848,4.6347,4.6347,0,0,0-1.46-.28223,8.605,8.605,0,0,1-1.03613-.13965l-0.2041-.04883A0.95629,0.95629,0,0,0,216.03873,70.53467Zm1.0957-8.50391a1.06094,1.06094,0,0,0-.94922.59082,3.19138,3.19138,0,0,0-.34766,1.61523,3.91746,3.91746,0,0,0,.375,1.82227,1.09282,1.09282,0,0,0,.9375.71973,1.05361,1.05361,0,0,0,.92969-0.58594,2.97426,2.97426,0,0,0,.35254-1.542Q218.43228,62.03027,217.13443,62.03076Z" transform="translate(0 -3.62765)"/>
  </g>
</svg>
