<svg id="Слой_1" data-name="Слой 1" xmlns="http://www.w3.org/2000/svg" width="80.43356mm" height="29.63341mm" viewBox="0 0 228.00063 84.00023">
  <defs>
    <style>
      .cls-1 {
        fill: #062568;
      }

      .cls-2, .cls-4, .cls-5 {
        fill: none;
      }

      .cls-2 {
        stroke: #b2b2b2;
        stroke-miterlimit: 10;
      }

      .cls-2, .cls-4 {
        stroke-width: 2px;
      }

      .cls-3 {
        fill: #fff;
      }

      .cls-4 {
        stroke: #fff;
      }

      .cls-5 {
        stroke: #062568;
      }
    </style>
  </defs>
  <title>mjen2</title>
  <g>
    <path class="cls-1" d="M227.00063,46.62777H1V9.31516A3.69835,3.69835,0,0,1,4.68751,5.62765H223.31312a3.69835,3.69835,0,0,1,3.68751,3.68751v37.3126Z" transform="translate(0 -4.62765)"/>
    <path class="cls-2" d="M227.00063,46.62777H1V9.31516A3.69835,3.69835,0,0,1,4.68751,5.62765H223.31312a3.69835,3.69835,0,0,1,3.68751,3.68751v37.3126Z" transform="translate(0 -4.62765)"/>
  </g>
  <path class="cls-2" d="M1,42.00011H227.00063a0,0,0,0,1,0,0V79.31519a3.685,3.685,0,0,1-3.685,3.685H4.685A3.685,3.685,0,0,1,1,79.31519V42.00011a0,0,0,0,1,0,0Z"/>
  <g>
    <g>
      <path class="cls-3" d="M67.67773,35.44141V32.43262h2.42871V17.84717H67.67773V14.88428h9.0957L80.959,30.16992h0.05176l4.12207-15.28564h9.1084v2.96289H91.79883V32.43262h2.44238v3.00879H85.55859V32.43262H87.833V17.84717H87.78125L82.80664,35.44141h-4.2373L73.59473,17.84717H73.49121V32.43262h2.39063v3.00879h-8.2041Z" transform="translate(0 -4.62765)"/>
      <path class="cls-3" d="M112.49219,14.88428v2.96289h-2.22168V29.18262a8.32776,8.32776,0,0,1-1.28613,4.80615q-1.28467,1.8772-5.49707,1.87744-3.33252,0-4.57324-1.65381a8.17662,8.17662,0,0,1-1.24023-4.938V28.57373h4.06934v0.60889a6.88415,6.88415,0,0,0,.42676,2.71582,1.86294,1.86294,0,0,0,1.91211.959q1.94971,0,1.9502-2.917V17.84717h-3.126V14.88428h9.58594Z" transform="translate(0 -4.62765)"/>
      <path class="cls-3" d="M115.667,35.44141V32.43262h2.377V17.84717h-2.377V14.88428h17.8291v6.12109h-3.48828v-3.1582h-7.77734v5.65039h3.00977v-2.8252h3.17871v8.37207h-3.17871V26.31152h-3.00977v6.12109h7.77734V28.71143h3.48828v6.73H115.667Z" transform="translate(0 -4.62765)"/>
      <path class="cls-3" d="M136.87793,35.44141V32.43262h2.49316V17.84717h-2.49316V14.88428h8.41016l7.51953,15.28564h0.10352V17.84717h-2.48047V14.88428h8.66895v2.96289H156.6709V35.44141H151.167l-8.04883-15.89453h-0.05176V32.43262h2.54492v3.00879h-8.7334Z" transform="translate(0 -4.62765)"/>
    </g>
    <g>
      <path class="cls-4" d="M67.67773,35.44141V32.43262h2.42871V17.84717H67.67773V14.88428h9.0957L80.959,30.16992h0.05176l4.12207-15.28564h9.1084v2.96289H91.79883V32.43262h2.44238v3.00879H85.55859V32.43262H87.833V17.84717H87.78125L82.80664,35.44141h-4.2373L73.59473,17.84717H73.49121V32.43262h2.39063v3.00879h-8.2041Z" transform="translate(0 -4.62765)"/>
      <path class="cls-4" d="M112.49219,14.88428v2.96289h-2.22168V29.18262a8.32776,8.32776,0,0,1-1.28613,4.80615q-1.28467,1.8772-5.49707,1.87744-3.33252,0-4.57324-1.65381a8.17662,8.17662,0,0,1-1.24023-4.938V28.57373h4.06934v0.60889a6.88415,6.88415,0,0,0,.42676,2.71582,1.86294,1.86294,0,0,0,1.91211.959q1.94971,0,1.9502-2.917V17.84717h-3.126V14.88428h9.58594Z" transform="translate(0 -4.62765)"/>
      <path class="cls-4" d="M115.667,35.44141V32.43262h2.377V17.84717h-2.377V14.88428h17.8291v6.12109h-3.48828v-3.1582h-7.77734v5.65039h3.00977v-2.8252h3.17871v8.37207h-3.17871V26.31152h-3.00977v6.12109h7.77734V28.71143h3.48828v6.73H115.667Z" transform="translate(0 -4.62765)"/>
      <path class="cls-4" d="M136.87793,35.44141V32.43262h2.49316V17.84717h-2.49316V14.88428h8.41016l7.51953,15.28564h0.10352V17.84717h-2.48047V14.88428h8.66895v2.96289H156.6709V35.44141H151.167l-8.04883-15.89453h-0.05176V32.43262h2.54492v3.00879h-8.7334Z" transform="translate(0 -4.62765)"/>
    </g>
    <g>
      <path class="cls-5" d="M67.67773,35.44141V32.43262h2.42871V17.84717H67.67773V14.88428h9.0957L80.959,30.16992h0.05176l4.12207-15.28564h9.1084v2.96289H91.79883V32.43262h2.44238v3.00879H85.55859V32.43262H87.833V17.84717H87.78125L82.80664,35.44141h-4.2373L73.59473,17.84717H73.49121V32.43262h2.39063v3.00879h-8.2041Z" transform="translate(0 -4.62765)"/>
      <path class="cls-5" d="M112.49219,14.88428v2.96289h-2.22168V29.18262a8.32776,8.32776,0,0,1-1.28613,4.80615q-1.28467,1.8772-5.49707,1.87744-3.33252,0-4.57324-1.65381a8.17662,8.17662,0,0,1-1.24023-4.938V28.57373h4.06934v0.60889a6.88415,6.88415,0,0,0,.42676,2.71582,1.86294,1.86294,0,0,0,1.91211.959q1.94971,0,1.9502-2.917V17.84717h-3.126V14.88428h9.58594Z" transform="translate(0 -4.62765)"/>
      <path class="cls-5" d="M115.667,35.44141V32.43262h2.377V17.84717h-2.377V14.88428h17.8291v6.12109h-3.48828v-3.1582h-7.77734v5.65039h3.00977v-2.8252h3.17871v8.37207h-3.17871V26.31152h-3.00977v6.12109h7.77734V28.71143h3.48828v6.73H115.667Z" transform="translate(0 -4.62765)"/>
      <path class="cls-5" d="M136.87793,35.44141V32.43262h2.49316V17.84717h-2.49316V14.88428h8.41016l7.51953,15.28564h0.10352V17.84717h-2.48047V14.88428h8.66895v2.96289H156.6709V35.44141H151.167l-8.04883-15.89453h-0.05176V32.43262h2.54492v3.00879h-8.7334Z" transform="translate(0 -4.62765)"/>
    </g>
  </g>
  <g>
    <path class="cls-1" d="M10.07715,58.02539l3.22021,8.88086a0.804,0.804,0,0,0,.35352.5752,0.54685,0.54685,0,0,0,.29-0.40625l2.96289-7.96a9.86805,9.86805,0,0,1,.59863-1.417,0.54284,0.54284,0,0,1,.47266-0.28809,3.21212,3.21212,0,0,1,.34668.03027,3.71692,3.71692,0,0,0,.47266.0293,5.54564,5.54564,0,0,0,.7959-0.06934,3.37252,3.37252,0,0,1,.3623-0.0293,0.2465,0.2465,0,0,1,.27588.28223,0.21942,0.21942,0,0,1-.21191.25293,1.2082,1.2082,0,0,0-1.03418.623,4.28539,4.28539,0,0,0-.29443,1.87109l0.00781,0.67285,0.18848,6.15527,0.00781,0.40625a4.159,4.159,0,0,0,.38135,2.02344,1.6028,1.6028,0,0,0,1.25391.77734,0.258,0.258,0,0,1,.22021.292q0,0.27246-.53564.27246a4.13623,4.13623,0,0,1-.50391-0.04883,11.85565,11.85565,0,0,0-1.3623-.12891,8.05184,8.05184,0,0,0-1.37793.09863,4.604,4.604,0,0,1-.709.09961,0.203,0.203,0,0,1-.19678-0.25293,0.28572,0.28572,0,0,1,.228-0.27246,1.09318,1.09318,0,0,0,.63281-0.50488A2.257,2.257,0,0,0,17.10742,68.96c0-.21777-0.00244-0.373-0.00781-0.46484l-0.22754-6.5752q-0.00806-.2666-0.10254-0.2666a0.85916,0.85916,0,0,0-.32324.54492L13.4834,70.1084l-0.10889.29688a0.96683,0.96683,0,0,1-.375.625,2.02584,2.02584,0,0,1-.57715-1.09082l-0.3999-1.03027L9.50488,61.83105,9.4502,61.68262A0.10128,0.10128,0,0,0,9.356,61.61328c-0.0835,0-.12549.13574-0.12549,0.40625l-0.00781.31738L9.12061,67.34277l-0.00781.39648,0.0708,0.93164a1.95878,1.95878,0,0,0,1.23389,1.78418,0.39816,0.39816,0,0,1,.354.34277,0.23779,0.23779,0,0,1-.27588.26172,3.05264,3.05264,0,0,1-.50391-0.0498l-0.55957-.09863a3.58367,3.58367,0,0,0-.61426-0.04,5.17747,5.17747,0,0,0-1.11865.09375,1.8103,1.8103,0,0,1-.394.06543,0.22436,0.22436,0,0,1-.24414-0.2627,0.27282,0.27282,0,0,1,.18848-0.2627,1.64365,1.64365,0,0,0,.88428-0.915,4.81087,4.81087,0,0,0,.2793-1.82715l0.2124-6.501,0.02344-.66309a3.28859,3.28859,0,0,0-.46-1.86621,1.44769,1.44769,0,0,0-1.26172-.67773,0.25692,0.25692,0,0,1-.29883-0.28223,0.2806,0.2806,0,0,1,.33789-0.293c0.04688,0,.10742.00391,0.18066,0.01074L7.60254,57.5293c0.084,0.00684.19141,0.00977,0.32227,0.00977a4.30869,4.30869,0,0,0,.72266-0.05957,6.26583,6.26583,0,0,1,.69092-0.0791A0.778,0.778,0,0,1,10.07715,58.02539Z" transform="translate(0 -4.62765)"/>
    <path class="cls-1" d="M25.68457,66.24219A4.217,4.217,0,0,0,25.771,65.4668a3.09739,3.09739,0,0,0-.37842-1.61914,1.11593,1.11593,0,0,0-.97119-0.62891,0.684,0.684,0,0,0-.75732.78906,2.58079,2.58079,0,0,0,.01563.28613l0.02393,0.1875q0,0.6709-1.2168.6709a0.28,0.28,0,0,1-.30029-0.34766,0.94776,0.94776,0,0,1,.03906-0.21777q0.02344-.1084.04736-0.25781a1.59425,1.59425,0,0,1,.47949-0.97168,2.89494,2.89494,0,0,1,2.01221-.75293,2.52834,2.52834,0,0,1,2.03613.792,3.2528,3.2528,0,0,1,.519,2.09863q0,0.75293-.04736,1.89063-0.04687,1.30664-.04687,1.74219,0,1.01953.64453,1.01953a0.64076,0.64076,0,0,0,.33789-0.06934,0.46106,0.46106,0,0,1,.18066-0.06934,0.112,0.112,0,0,1,.11035.13867,0.5948,0.5948,0,0,1-.30664.46582l-0.30664.19824-0.26709.19824a1.09619,1.09619,0,0,1-.62109.18848A1.441,1.441,0,0,1,25.834,70.06836a4.28721,4.28721,0,0,1-2.4292,1.17969,1.24917,1.24917,0,0,1-1.04541-.48633,2.15212,2.15212,0,0,1-.37744-1.35059A2.538,2.538,0,0,1,23.06445,67.126,9.56242,9.56242,0,0,1,25.68457,66.24219Zm-0.15723.5752a1.56134,1.56134,0,0,0-1.28906.60449,2.1037,2.1037,0,0,0-.61328,1.457q0,1.30811.833,1.30859a1.40576,1.40576,0,0,0,.9043-0.30762,0.86535,0.86535,0,0,0,.291-0.54492,7.2367,7.2367,0,0,0,.07861-1.27832l0.00781-.76367V67.085l-0.04736-.21777A0.27452,0.27452,0,0,0,25.52734,66.81738Z" transform="translate(0 -4.62765)"/>
    <path class="cls-1" d="M36.74561,66.79688v2.00684a4.52745,4.52745,0,0,0,.05469.875,0.96669,0.96669,0,0,0,.25146.44043,1.20676,1.20676,0,0,0,.72363.3457,0.23926,0.23926,0,0,1,.24365.23828q0,0.29736-.55957.29688a2.24971,2.24971,0,0,1-.33887-0.03711l-0.51172-.07422a4.32514,4.32514,0,0,0-.54395-0.04687,4.967,4.967,0,0,0-1.19727.11621,1.408,1.408,0,0,1-.31543.042,0.17562,0.17562,0,0,1-.17334-0.21777,0.27455,0.27455,0,0,1,.18115-0.248,0.80264,0.80264,0,0,0,.46387-0.46582A3.403,3.403,0,0,0,35.1416,68.998V66.6582a4.51156,4.51156,0,0,0-.42627-2.13574,1.29185,1.29185,0,0,0-1.16113-.78809,1.34978,1.34978,0,0,0-1.06006.45508,1.72745,1.72745,0,0,0-.40283,1.1875v3.30664a2.52282,2.52282,0,0,0,.27148,1.33105,1.16365,1.16365,0,0,0,.91553.49023,0.21605,0.21605,0,0,1,.22021.22754,0.244,0.244,0,0,1-.27539.27734,4.82354,4.82354,0,0,1-.62256-0.04883,9.48724,9.48724,0,0,0-1.229-.13867,6.17627,6.17627,0,0,0-1.05566.10547,2.579,2.579,0,0,1-.38574.05273,0.17933,0.17933,0,0,1-.19727-0.208,0.22158,0.22158,0,0,1,.13379-0.208,1.03225,1.03225,0,0,0,.51123-0.41211,2.06917,2.06917,0,0,0,.10986-0.81738l0.00781-.32715V65.51855l-0.00781-.38672a2.90628,2.90628,0,0,0-.11377-0.98633,0.41863,0.41863,0,0,0-.4209-0.27246H29.5918a0.1314,0.1314,0,0,1-.11816-0.05957,0.23246,0.23246,0,0,1-.03906-0.14844,0.28581,0.28581,0,0,1,.11816-0.2627,4.16706,4.16706,0,0,1,.69385-0.25293,4.312,4.312,0,0,0,1.64844-.8623,0.15252,0.15252,0,0,1,.10205-0.05957c0.063-.00586.09424,0.05664,0.09424,0.18848l-0.02344.49609-0.00781.56445,0.04736,0.377a0.14629,0.14629,0,0,0,.10254.12891,0.55494,0.55494,0,0,0,.251-0.26758,2.18873,2.18873,0,0,1,1.90674-1.11035,1.93107,1.93107,0,0,1,1.82861.97363A6.93757,6.93757,0,0,1,36.74561,66.79688Z" transform="translate(0 -4.62765)"/>
    <path class="cls-1" d="M43.02686,66.24219a4.217,4.217,0,0,0,.08643-0.77539,3.09739,3.09739,0,0,0-.37842-1.61914,1.11593,1.11593,0,0,0-.97119-0.62891,0.684,0.684,0,0,0-.75732.78906,2.58079,2.58079,0,0,0,.01563.28613l0.02393,0.1875q0,0.6709-1.2168.6709a0.28,0.28,0,0,1-.30029-0.34766,0.94776,0.94776,0,0,1,.03906-0.21777q0.02344-.1084.04736-0.25781a1.59425,1.59425,0,0,1,.47949-0.97168,2.89494,2.89494,0,0,1,2.01221-.75293,2.52834,2.52834,0,0,1,2.03613.792,3.2528,3.2528,0,0,1,.519,2.09863q0,0.75293-.04736,1.89063-0.04687,1.30664-.04687,1.74219,0,1.01953.64453,1.01953a0.64076,0.64076,0,0,0,.33789-0.06934,0.46106,0.46106,0,0,1,.18066-0.06934,0.112,0.112,0,0,1,.11035.13867,0.5948,0.5948,0,0,1-.30664.46582l-0.30664.19824-0.26709.19824a1.09619,1.09619,0,0,1-.62109.18848,1.441,1.441,0,0,1-1.16357-1.12988,4.28721,4.28721,0,0,1-2.4292,1.17969,1.24917,1.24917,0,0,1-1.04541-.48633,2.15212,2.15212,0,0,1-.37744-1.35059A2.538,2.538,0,0,1,40.40674,67.126,9.56242,9.56242,0,0,1,43.02686,66.24219Zm-0.15723.5752a1.56134,1.56134,0,0,0-1.28906.60449,2.1037,2.1037,0,0,0-.61328,1.457q0,1.30811.833,1.30859a1.40576,1.40576,0,0,0,.9043-0.30762,0.86535,0.86535,0,0,0,.291-0.54492,7.2367,7.2367,0,0,0,.07861-1.27832L43.082,67.293V67.085l-0.04736-.21777A0.27452,0.27452,0,0,0,42.86963,66.81738Z" transform="translate(0 -4.62765)"/>
    <path class="cls-1" d="M49.33936,62.60449a3.51207,3.51207,0,0,1,1.17139.22754,0.45857,0.45857,0,0,1,.34619.38672l0.01563,0.43652,0.03906,0.624,0.01563,0.33691a0.54361,0.54361,0,0,1,.01611.11914,0.158,0.158,0,0,1-.16748.18848,1.18735,1.18735,0,0,1-.41455-0.65039,1.678,1.678,0,0,0-1.40234-1.2627,0.95289,0.95289,0,0,0-.729.335,1.12894,1.12894,0,0,0-.30566.78711,1.45822,1.45822,0,0,0,.91992,1.30957l0.54248,0.27637a6.69381,6.69381,0,0,1,.94336.57031,2.21523,2.21523,0,0,1,.47949.5791,3.04074,3.04074,0,0,1,.38525,1.58594,3.16715,3.16715,0,0,1-.62109,1.98145,1.85287,1.85287,0,0,1-1.51709.8125,4.29035,4.29035,0,0,1-1.187-.208l-0.54248-.16895-0.354-.06934a0.24176,0.24176,0,0,1-.17285-0.27734c0-.05273.00244-0.13574,0.00781-0.248q0.01538-.16846.01563-0.38672l-0.02344-1.08008-0.00781-.48535a0.66207,0.66207,0,0,1,.03516-0.28223,0.21691,0.21691,0,0,1,.18506-0.05469q0.12524,0,.17285.2666a5.37406,5.37406,0,0,0,.51855,1.49121,1.52789,1.52789,0,0,0,1.34424,1.02734,0.9904,0.9904,0,0,0,.78613-0.36914,1.38828,1.38828,0,0,0,.31445-0.93164,1.49537,1.49537,0,0,0-.30225-0.98535,3.67137,3.67137,0,0,0-1.15186-.78809,3.6401,3.6401,0,0,1-1.40723-1.05566,2.5835,2.5835,0,0,1-.39307-1.51074,2.54132,2.54132,0,0,1,.66064-1.84375A2.36318,2.36318,0,0,1,49.33936,62.60449Z" transform="translate(0 -4.62765)"/>
    <path class="cls-1" d="M60.833,59.9668v8.02441l-0.00781.8916a8.59516,8.59516,0,0,1-.23145,2.17383,5.65129,5.65129,0,0,1-.81445,1.71875q-1.10742,1.62451-1.88623,1.625a0.75825,0.75825,0,0,1-.30664-0.05957l-0.43994-.17871-0.38525-.12891a0.47275,0.47275,0,0,1-.15723-0.416,2.62149,2.62149,0,0,1,.03906-0.416l0.189-1.25879c0.02637-.19238.07959-0.28809,0.15918-0.28809a0.88106,0.88106,0,0,1,.54053.44922l0.30371,0.42969a0.93658,0.93658,0,0,0,.6001.48926q0.60571,0,.60547-1.89355l-0.01562-.7334V62.93164q0-2.2998-.04346-3.05762a3.88516,3.88516,0,0,0-.19238-1.13574,0.8996,0.8996,0,0,0-.41309-0.48535,3.13331,3.13331,0,0,0-.9707-0.21777,0.255,0.255,0,0,1-.23584-0.292,0.31167,0.31167,0,0,1,.36182-0.34277,5.26862,5.26862,0,0,1,.53418.04q1.10889,0.12891,1.24951.12891a5.68472,5.68472,0,0,0,.82617-0.08984q1.13086-.16846,1.32031-0.168c0.23633,0,.35352.09082,0.35352,0.27246a0.29564,0.29564,0,0,1-.23535.2627,0.97628,0.97628,0,0,0-.58984.61914A5.05381,5.05381,0,0,0,60.833,59.9668Z" transform="translate(0 -4.62765)"/>
    <path class="cls-1" d="M67.29492,62.60449A3.0282,3.0282,0,0,1,69.74707,63.793a4.62258,4.62258,0,0,1,.96777,3.01953,4.80676,4.80676,0,0,1-1.0498,3.16309A3.25661,3.25661,0,0,1,67.05078,71.248a3.0555,3.0555,0,0,1-2.44824-1.17773,4.48027,4.48027,0,0,1-.97949-2.96094,4.8899,4.8899,0,0,1,1.07324-3.18848A3.24692,3.24692,0,0,1,67.29492,62.60449Zm-0.40723.54492a1.34712,1.34712,0,0,0-1.20605.80957,4.53037,4.53037,0,0,0-.44629,2.18262,6.9817,6.9817,0,0,0,.68848,3.21875A1.98694,1.98694,0,0,0,67.584,70.70313a1.37724,1.37724,0,0,0,1.20215-.76562,3.73909,3.73909,0,0,0,.46582-1.96973,7.69529,7.69529,0,0,0-.68848-3.416A2.00776,2.00776,0,0,0,66.8877,63.14941Z" transform="translate(0 -4.62765)"/>
    <path class="cls-1" d="M79.39355,62.71289v6.1377a3.15332,3.15332,0,0,0,.126,1.17383,0.74228,0.74228,0,0,0,.67578.22266L80.376,70.2373a0.3944,0.3944,0,0,1,.1416.01953,0.223,0.223,0,0,1,.13379.22168q0,0.353-.53613.35352H79.7373c-0.21582,0-.38379.00684-0.50488,0.01953a5.29234,5.29234,0,0,0-1.11914.23828,0.41709,0.41709,0,0,1-.14258.0293q-0.17285,0-.17285-0.36621a3.01072,3.01072,0,0,1,.01563-0.33789c0.01074-.13184.01563-0.23047,0.01563-0.29687q0-.29736-0.10254-0.30762a0.25952,0.25952,0,0,0-.125.11914l-0.28223.36719A2.12757,2.12757,0,0,1,75.585,71.248a2.0214,2.0214,0,0,1-1.75-.81152,4.08065,4.08065,0,0,1-.58887-2.40625q0-2.10791.0625-3.65332c0.00586-.18457.00781-0.34277,0.00781-0.47461a0.58811,0.58811,0,0,0-.46387-0.72266l-0.31445-.03027a0.2162,0.2162,0,0,1-.2041-0.27148,0.27735,0.27735,0,0,1,.24023-0.25781,3.99737,3.99737,0,0,1,.89551-0.06543,2.83975,2.83975,0,0,0,1.0957-.19824,1.03043,1.03043,0,0,1,.33105-0.0791c0.08984,0,.13379.07617,0.13379,0.22754,0,0.17871-.00488.36035-0.01562,0.54492q-0.07031,1.04883-.07031,3.67285a8.09792,8.09792,0,0,0,.28906,2.69727,1.13136,1.13136,0,0,0,1.15723.67871,1.21034,1.21034,0,0,0,1.04785-.51562,2.52232,2.52232,0,0,0,.36719-1.47363V64.42383a2.5269,2.5269,0,0,0-.12207-1.03223,1.01117,1.01117,0,0,0-.6875-0.28125,0.23388,0.23388,0,0,1-.24414-0.24219q0-.31348.47363-0.31348a5.19374,5.19374,0,0,0,1.89941-.2373,0.40873,0.40873,0,0,1,.166-0.0498c0.07324-.00684.11035,0.05957,0.11035,0.19824Z" transform="translate(0 -4.62765)"/>
    <path class="cls-1" d="M84.543,65.99219v2.78125q0,1.563,1.16309,1.76074a0.24176,0.24176,0,0,1,.24414.24316c0,0.168-.06055.25293-0.18164,0.25293A1.02679,1.02679,0,0,1,85.54785,71a8.76046,8.76046,0,0,0-1.62207-.14844,7.22762,7.22762,0,0,0-.7959.04l-0.48828.05957a1.96578,1.96578,0,0,1-.27539.01953,0.21561,0.21561,0,0,1-.2207-0.2627,0.24214,0.24214,0,0,1,.19629-0.24316q0.62109-.1875.62109-1.47266l-0.00781-.415V65.03906a2.01544,2.01544,0,0,0-.14551-0.94336,0.79121,0.79121,0,0,0-.625-0.28223,0.1861,0.1861,0,0,1-.18066-0.21191,0.23976,0.23976,0,0,1,.21289-0.26367,4.57314,4.57314,0,0,0,1.84668-.7627l0.30664-.22852a0.19449,0.19449,0,0,1,.11816-0.0498c0.07813,0,.11719.07324,0.11719,0.21875,0,0.0459-.002.1416-0.00781,0.28711l-0.02344.55469-0.03125.61523,0.00781,0.1084a0.15791,0.15791,0,0,0,.11719.14941,1.0394,1.0394,0,0,0,.3418-0.47656,3.72391,3.72391,0,0,1,.65137-0.80762,1.32366,1.32366,0,0,1,.60352-0.43066,2.4462,2.4462,0,0,1,1.34375,1.28809,3.7415,3.7415,0,0,1-.25391.69434,1.07627,1.07627,0,0,1-.57129.7627,0.25,0.25,0,0,1-.1875-0.09863l-0.21875-.248a1.1764,1.1764,0,0,0-.91309-0.46582Q84.54248,64.44824,84.543,65.99219Z" transform="translate(0 -4.62765)"/>
    <path class="cls-1" d="M96.03613,66.79688v2.00684a4.56868,4.56868,0,0,0,.05469.875,0.97232,0.97232,0,0,0,.252.44043,1.20543,1.20543,0,0,0,.72363.3457,0.23882,0.23882,0,0,1,.24316.23828q0,0.29736-.55957.29688a2.26243,2.26243,0,0,1-.33887-0.03711l-0.51172-.07422a4.318,4.318,0,0,0-.54395-0.04687,4.96977,4.96977,0,0,0-1.19727.11621,1.4045,1.4045,0,0,1-.31543.042,0.17533,0.17533,0,0,1-.17285-0.21777,0.27475,0.27475,0,0,1,.18066-0.248,0.80127,0.80127,0,0,0,.46387-0.46582,3.38484,3.38484,0,0,0,.11816-1.07031V66.6582a4.51113,4.51113,0,0,0-.42676-2.13574,1.29134,1.29134,0,0,0-1.16113-.78809,1.34946,1.34946,0,0,0-1.05957.45508,1.72771,1.72771,0,0,0-.40332,1.1875v3.30664a2.52282,2.52282,0,0,0,.27148,1.33105,1.16463,1.16463,0,0,0,.916.49023,0.21594,0.21594,0,0,1,.21973.22754,0.244,0.244,0,0,1-.27539.27734,4.81675,4.81675,0,0,1-.62207-0.04883,9.492,9.492,0,0,0-1.22949-.13867,6.17627,6.17627,0,0,0-1.05566.10547,2.57109,2.57109,0,0,1-.38574.05273,0.17952,0.17952,0,0,1-.19727-0.208,0.22234,0.22234,0,0,1,.13379-0.208,1.03387,1.03387,0,0,0,.51172-0.41211,2.07144,2.07144,0,0,0,.10938-0.81738l0.00781-.32715V65.51855l-0.00781-.38672a2.92232,2.92232,0,0,0-.11328-0.98633,0.419,0.419,0,0,0-.4209-0.27246H88.88281a0.1314,0.1314,0,0,1-.11816-0.05957,0.23246,0.23246,0,0,1-.03906-0.14844,0.28581,0.28581,0,0,1,.11816-0.2627,4.13515,4.13515,0,0,1,.69336-0.25293,4.30844,4.30844,0,0,0,1.64844-.8623,0.15439,0.15439,0,0,1,.10254-0.05957c0.0625-.00586.09375,0.05664,0.09375,0.18848l-0.02344.49609-0.00781.56445,0.04785,0.377a0.145,0.145,0,0,0,.10254.12891,0.55726,0.55726,0,0,0,.251-0.26758,2.18854,2.18854,0,0,1,1.90625-1.11035,1.93135,1.93135,0,0,1,1.8291.97363A6.9387,6.9387,0,0,1,96.03613,66.79688Z" transform="translate(0 -4.62765)"/>
    <path class="cls-1" d="M102.31738,66.24219a4.22256,4.22256,0,0,0,.08691-0.77539,3.09263,3.09263,0,0,0-.37891-1.61914,1.11524,1.11524,0,0,0-.9707-0.62891,0.68436,0.68436,0,0,0-.75781.78906,2.70489,2.70489,0,0,0,.01563.28613l0.02441,0.1875q0,0.6709-1.2168.6709a0.2803,0.2803,0,0,1-.30078-0.34766,0.94776,0.94776,0,0,1,.03906-0.21777c0.01563-.07227.03125-0.1582,0.04785-0.25781a1.58912,1.58912,0,0,1,.47949-0.97168,2.89289,2.89289,0,0,1,2.01172-.75293,2.527,2.527,0,0,1,2.03613.792,3.24952,3.24952,0,0,1,.51953,2.09863q0,0.75293-.04785,1.89063-0.04687,1.30664-.04687,1.74219,0,1.01953.64453,1.01953a0.63959,0.63959,0,0,0,.33789-0.06934,0.46372,0.46372,0,0,1,.18066-0.06934,0.1118,0.1118,0,0,1,.11035.13867,0.5948,0.5948,0,0,1-.30664.46582l-0.30664.19824-0.2666.19824a1.09846,1.09846,0,0,1-.62109.18848,1.44091,1.44091,0,0,1-1.16406-1.12988,4.28616,4.28616,0,0,1-2.42871,1.17969,1.25071,1.25071,0,0,1-1.0459-.48633,2.15209,2.15209,0,0,1-.377-1.35059,2.53771,2.53771,0,0,1,1.082-2.28516A9.56877,9.56877,0,0,1,102.31738,66.24219Zm-0.15723.5752a1.5625,1.5625,0,0,0-1.28906.60449,2.1037,2.1037,0,0,0-.61328,1.457q0,1.30811.833,1.30859a1.40481,1.40481,0,0,0,.9043-0.30762,0.86535,0.86535,0,0,0,.291-0.54492,7.17688,7.17688,0,0,0,.0791-1.27832L102.373,67.293V67.085l-0.04785-.21777A0.27452,0.27452,0,0,0,102.16016,66.81738Z" transform="translate(0 -4.62765)"/>
    <path class="cls-1" d="M108.584,59.50977v8.75586l0.00781,0.32715a2.964,2.964,0,0,0,.21973,1.3623,1.22824,1.22824,0,0,0,.86523.51953,0.55311,0.55311,0,0,1,.23926.08105,0.33371,0.33371,0,0,1,.03516.19238c0,0.16113-.05273.24219-0.15723,0.24219a2.02427,2.02427,0,0,1-.27539-0.0293,9.25321,9.25321,0,0,0-1.55273-.10937,7.09569,7.09569,0,0,0-1.44141.09961,0.92239,0.92239,0,0,1-.18066.0293c-0.11035,0-.166-0.084-0.166-0.25293a0.28678,0.28678,0,0,1,.19727-0.23242,1.318,1.318,0,0,0,.59668-1.29687l0.01563-.57422,0.00781-.2666V60.37109a5.90841,5.90841,0,0,0-.16895-1.74219,0.62453,0.62453,0,0,0-.625-0.46484,0.21752,0.21752,0,0,1-.22754-0.26172,0.2281,0.2281,0,0,1,.08691-0.207,2.22855,2.22855,0,0,1,.47363-0.15625,4.65652,4.65652,0,0,0,1.60938-.72363l0.2666-.19824a0.345,0.345,0,0,1,.1416-0.05957c0.0791-.00586.11816,0.05957,0.11816,0.19824,0,0.07324-.00488.23828-0.01562,0.49609Q108.584,58.58789,108.584,59.50977Z" transform="translate(0 -4.62765)"/>
    <path class="cls-1" d="M119.50293,62.60449a3.0282,3.0282,0,0,1,2.45215,1.18848,4.62258,4.62258,0,0,1,.96777,3.01953,4.80676,4.80676,0,0,1-1.0498,3.16309,3.25661,3.25661,0,0,1-2.61426,1.27246,3.0555,3.0555,0,0,1-2.44824-1.17773,4.48027,4.48027,0,0,1-.97949-2.96094,4.8899,4.8899,0,0,1,1.07324-3.18848A3.24692,3.24692,0,0,1,119.50293,62.60449Zm-0.40723.54492a1.34712,1.34712,0,0,0-1.20605.80957,4.53037,4.53037,0,0,0-.44629,2.18262,6.9817,6.9817,0,0,0,.68848,3.21875,1.98694,1.98694,0,0,0,1.66016,1.34277,1.37724,1.37724,0,0,0,1.20215-.76562,3.73909,3.73909,0,0,0,.46582-1.96973,7.69529,7.69529,0,0,0-.68848-3.416A2.00776,2.00776,0,0,0,119.0957,63.14941Z" transform="translate(0 -4.62765)"/>
    <path class="cls-1" d="M128.418,63.873h-0.75488q-0.47168,0-.47168.623v4.042a3.507,3.507,0,0,0,.2002,1.45313,1.22867,1.22867,0,0,0,.85352.5332,0.29852,0.29852,0,0,1,.2666.293,0.2036,0.2036,0,0,1-.22852.23242q-0.063,0-.37793-0.0498a7.8224,7.8224,0,0,0-1.32324-.13867,6.79082,6.79082,0,0,0-1.2998.13086,1.6679,1.6679,0,0,1-.24414.02832,0.15729,0.15729,0,0,1-.1582-0.19336,0.30131,0.30131,0,0,1,.1416-0.25293l0.22852-.168a1.04207,1.04207,0,0,0,.35352-0.89941V64.34766a0.369,0.369,0,0,0-.38574-0.44434l-0.24316-.01074h-0.18848c-0.20508,0-.30664-0.05566-0.30664-0.168a0.65931,0.65931,0,0,1,.03125-0.17871,2.6859,2.6859,0,0,0,.0625-0.376,0.20611,0.20611,0,0,1,.165-0.22852l0.37793-.0293a0.53551,0.53551,0,0,0,.38867-0.14941,0.92792,0.92792,0,0,0,.12988-0.50488,10.39248,10.39248,0,0,1,.73145-3.5293q0.895-2.02148,2.05176-2.02148,0.75439,0,.75391.54492a1.21849,1.21849,0,0,1-.03906.25781q-0.15674.69434-.19629,0.99121c-0.01562.165-.06055,0.248-0.13379,0.248a0.139,0.139,0,0,1-.1416-0.1377l-0.03125-.20605a0.89674,0.89674,0,0,0-.293-0.49609,0.71292,0.71292,0,0,0-.47363-0.23145,0.6586,0.6586,0,0,0-.49609.59863,5.59848,5.59848,0,0,0-.18359,1.59766L127.168,61.37793l-0.00781.74219a1.055,1.055,0,0,0,.12109.60352,0.56574,0.56574,0,0,0,.46777.1582,5.18118,5.18118,0,0,0,.81445-0.03418,0.96857,0.96857,0,0,0,.36523-0.30273l0.07031-.0498c0.06836-.00586.09961,0.03418,0.09473,0.12012l-0.03906.11035-0.18848.73828a0.87465,0.87465,0,0,1-.14551.34961A0.50109,0.50109,0,0,1,128.418,63.873Z" transform="translate(0 -4.62765)"/>
    <path class="cls-1" d="M138.17383,59.71v2.15137a3.80861,3.80861,0,0,0,.10645,1.16895,0.4951,0.4951,0,0,0,.51465.248l0.23535-.00977,0.34668-.00977h0.668a1.36717,1.36717,0,0,0,1.20313-1.08008l0.18066-.48633a0.26135,0.26135,0,0,1,.23535-0.18848c0.11523-.00586.17285,0.083,0.17285,0.26855,0,0.05273-.00781.19922-0.02344,0.4375-0.01074.17188-.01562,0.31738-0.01562,0.43652q0,0.31787.07031,1.49023,0.04834,0.76465.04785,1.33105l0.00781,0.50684a0.5075,0.5075,0,0,1-.02344.18848,0.15114,0.15114,0,0,1-.126.06934q-0.19629.02051-.24414-0.377a2.38409,2.38409,0,0,0-.47168-1.27832,0.92315,0.92315,0,0,0-.499-0.30762,5.75367,5.75367,0,0,0-1.10449-.06934H138.9209a0.71059,0.71059,0,0,0-.51562.14355,1.04205,1.04205,0,0,0-.18457.5791q-0.04687.49512-.04687,1.56348V67.377a8.22138,8.22138,0,0,0,.17285,2.00879,1.31311,1.31311,0,0,0,.31445.60352,0.83113,0.83113,0,0,0,.55859.1582q3.19043,0,4.17383-2.44824a0.23462,0.23462,0,0,1,.09473-0.12891,0.14049,0.14049,0,0,1,.14551.06445,0.33871,0.33871,0,0,1,.06641.21387,4.49935,4.49935,0,0,1-.417,1.88867,2.44741,2.44741,0,0,1-.86426,1.1084,2.51957,2.51957,0,0,1-1.376.333,8.799,8.799,0,0,1-1.11621-.0791l-0.91211-.10937a12.30106,12.30106,0,0,0-1.35937-.05957q-0.57422,0-1.74512.08984c-0.21582.01953-.37012,0.0293-0.46387,0.0293a0.19893,0.19893,0,0,1-.20508-0.22266,0.2771,0.2771,0,0,1,.17285-0.27246,1.50738,1.50738,0,0,0,.60938-0.46094,2.29454,2.29454,0,0,0,.25586-0.86523,9.22231,9.22231,0,0,0,.08594-1.42578V59.95508a2.75566,2.75566,0,0,0-.28613-1.50488,1.824,1.824,0,0,0-1.19141-.55371,0.25736,0.25736,0,0,1-.21191-0.293,0.21759,0.21759,0,0,1,.25879-0.23242c0.03711,0,.11523.00684,0.23633,0.01953,0.09375,0.00684.22266,0.00977,0.38477,0.00977l0.79395,0.04,2.97949,0.03906a31.37311,31.37311,0,0,0,3.168-.08887,0.69485,0.69485,0,0,1,.11035-0.00977c0.15234,0,.22852.10938,0.22852,0.32715q0,0.22852.04688,0.8125,0.063,0.86279.0625,1.23926c0,0.502-.10156.75977-0.30664,0.77344-0.09961.00586-.14941-0.13965-0.14941-0.43848a1.69832,1.69832,0,0,0-.56934-1.42871,3.03192,3.03192,0,0,0-1.84375-.44238h-0.959l-0.53418.0791a0.96633,0.96633,0,0,0-.40137,1.001Z" transform="translate(0 -4.62765)"/>
    <path class="cls-1" d="M152.34863,66.79688v2.00684a4.487,4.487,0,0,0,.05469.875,0.96112,0.96112,0,0,0,.251.44043,1.2081,1.2081,0,0,0,.72363.3457,0.23971,0.23971,0,0,1,.24414.23828q0,0.29736-.55957.29688a2.23714,2.23714,0,0,1-.33887-0.03711l-0.51172-.07422a4.33235,4.33235,0,0,0-.54395-0.04687,4.96421,4.96421,0,0,0-1.19727.11621,1.41152,1.41152,0,0,1-.31543.042,0.17591,0.17591,0,0,1-.17383-0.21777,0.27434,0.27434,0,0,1,.18164-0.248,0.804,0.804,0,0,0,.46387-0.46582,3.42133,3.42133,0,0,0,.11719-1.07031V66.6582a4.512,4.512,0,0,0-.42578-2.13574,1.29237,1.29237,0,0,0-1.16113-.78809,1.3501,1.3501,0,0,0-1.06055.45508,1.72718,1.72718,0,0,0-.40234,1.1875v3.30664a2.52282,2.52282,0,0,0,.27148,1.33105,1.16266,1.16266,0,0,0,.915.49023,0.21617,0.21617,0,0,1,.2207.22754,0.244,0.244,0,0,1-.27539.27734,4.83033,4.83033,0,0,1-.623-0.04883,9.48248,9.48248,0,0,0-1.22852-.13867,6.17627,6.17627,0,0,0-1.05566.10547,2.58705,2.58705,0,0,1-.38574.05273,0.17913,0.17913,0,0,1-.19727-0.208,0.22082,0.22082,0,0,1,.13379-0.208,1.03064,1.03064,0,0,0,.51074-0.41211,2.06691,2.06691,0,0,0,.11035-0.81738l0.00781-.32715V65.51855l-0.00781-.38672a2.89042,2.89042,0,0,0-.11426-0.98633,0.41823,0.41823,0,0,0-.4209-0.27246h-0.36133a0.1314,0.1314,0,0,1-.11816-0.05957,0.23246,0.23246,0,0,1-.03906-0.14844,0.28581,0.28581,0,0,1,.11816-0.2627,4.19933,4.19933,0,0,1,.69434-0.25293,4.31561,4.31561,0,0,0,1.64844-.8623,0.15067,0.15067,0,0,1,.10156-0.05957c0.06348-.00586.09473,0.05664,0.09473,0.18848l-0.02344.49609-0.00781.56445,0.04688,0.377a0.14759,0.14759,0,0,0,.10254.12891,0.55265,0.55265,0,0,0,.251-0.26758,2.18892,2.18892,0,0,1,1.90723-1.11035,1.93079,1.93079,0,0,1,1.82813.97363A6.93644,6.93644,0,0,1,152.34863,66.79688Z" transform="translate(0 -4.62765)"/>
    <path class="cls-1" d="M159.7998,63.41406a1.43355,1.43355,0,0,0,.8457-0.36133,1.37188,1.37188,0,0,0,.3418-0.835,0.16993,0.16993,0,0,1,.15723-0.19824c0.08887,0,.13379.08594,0.13379,0.25684q0,0.24756-.09473,1.05762-0.063.55371-.07031,0.72168a0.56972,0.56972,0,0,1-.11035.33594,2.41084,2.41084,0,0,1-.49512.3457,2.67539,2.67539,0,0,0,.02344.30664q0.03955,0.47607.03906,0.585a2.34342,2.34342,0,0,1-.81348,1.81348,2.89145,2.89145,0,0,1-2.00781.7334,3.47545,3.47545,0,0,1-.79395-0.09961,1.15447,1.15447,0,0,0-.27539-0.03906,0.49177,0.49177,0,0,0-.415.24219,1.03483,1.03483,0,0,0-.167.59961q0,0.85254,1.18164.85254a8.23346,8.23346,0,0,1,3.043.3623,1.473,1.473,0,0,1,.752,1.47559,2.8527,2.8527,0,0,1-.84766,2.08594,3.40891,3.40891,0,0,1-2.52441.85352,4.53447,4.53447,0,0,1-2.22754-.44238,1.399,1.399,0,0,1-.76855-1.27734,1.46324,1.46324,0,0,1,.24316-0.80566,0.96765,0.96765,0,0,1,.57324-0.457,0.5578,0.5578,0,0,0,.377-0.17871l-0.0625-.12891-0.23535-.29785a1.72317,1.72317,0,0,1-.35254-1.07031,2.21041,2.21041,0,0,1,.53418-1.48633l0.252-.29785a0.29959,0.29959,0,0,0,.07031-0.18848,0.6804,0.6804,0,0,0-.32227-0.38574,2.00045,2.00045,0,0,1-.60937-0.88086,3.11676,3.11676,0,0,1-.2627-1.19727,2.721,2.721,0,0,1,2.81348-2.80957A2.99882,2.99882,0,0,1,159.7998,63.41406Zm-3.16992,8.12109a0.60378,0.60378,0,0,0-.50293.27344,1.09063,1.09063,0,0,0-.20215.66895,1.40077,1.40077,0,0,0,.55078,1.16406,2.36755,2.36755,0,0,0,1.501.43164,2.23012,2.23012,0,0,0,1.34375-.37207,1.1618,1.1618,0,0,0,.51172-0.98633,0.71521,0.71521,0,0,0-.31445-0.68848,4.63469,4.63469,0,0,0-1.46-.28223,8.63386,8.63386,0,0,1-1.03613-.13965l-0.2041-.04883A0.95471,0.95471,0,0,0,156.62988,71.53516Zm1.09473-8.50488a1.06226,1.06226,0,0,0-.94922.5918,3.1889,3.1889,0,0,0-.34766,1.61523,3.923,3.923,0,0,0,.375,1.82227,1.09158,1.09158,0,0,0,.9375.71875,1.05361,1.05361,0,0,0,.92969-0.58594,2.97047,2.97047,0,0,0,.35254-1.541Q159.02246,63.03076,157.72461,63.03027Z" transform="translate(0 -4.62765)"/>
    <path class="cls-1" d="M165.14648,63.0293v5.60645a2.91371,2.91371,0,0,0,.23926,1.4043,1.056,1.056,0,0,0,.89258.44434,0.23053,0.23053,0,0,1,.25879.2334q0,0.26221-.62207.2627c-0.05273,0-.165-0.00977-0.33887-0.02832l-0.59082-.07422c-0.3252-.03711-0.541-0.05566-0.64551-0.05566a6.18686,6.18686,0,0,0-1.127.13867A1.29129,1.29129,0,0,1,162.94531,71a0.15909,0.15909,0,0,1-.165-0.19238,0.23281,0.23281,0,0,1,.10156-0.2041l0.26758-.168a0.902,0.902,0,0,0,.29492-0.51367,2.94439,2.94439,0,0,0,.12207-0.84961l-0.00781-.415V65.30664a3.00519,3.00519,0,0,0-.12988-1.06738,0.47071,0.47071,0,0,0-.46777-0.29687h-0.18066a0.23228,0.23228,0,0,1-.20508-0.08008,0.30556,0.30556,0,0,1-.02344-0.1416,0.50607,0.50607,0,0,1,.48145-0.38281A4.3151,4.3151,0,0,0,164.918,62.377a0.2535,0.2535,0,0,1,.13379-0.07031c0.07324,0.00684.11035,0.06934,0.11035,0.18848l-0.00781.08887C165.14844,62.64355,165.14648,62.792,165.14648,63.0293Zm-0.8457-5.41016a1.4236,1.4236,0,0,1,.58789.67383l0.3291,0.53516a0.74388,0.74388,0,0,1,.125.34668,2.13692,2.13692,0,0,1-.43066.90234,1.45908,1.45908,0,0,1-.60352.66406,0.28338,0.28338,0,0,1-.21094-0.11914l-0.36816-.56543-0.34473-.49512a0.68306,0.68306,0,0,1-.13281-0.33691,2.56263,2.56263,0,0,1,.46191-0.90234A1.84712,1.84712,0,0,1,164.30078,57.61914Z" transform="translate(0 -4.62765)"/>
    <path class="cls-1" d="M174.93359,66.79688v2.00684a4.463,4.463,0,0,0,.05566.875,0.96112,0.96112,0,0,0,.251.44043,1.20543,1.20543,0,0,0,.72363.3457,0.23882,0.23882,0,0,1,.24316.23828q0,0.29736-.55859.29688a2.23714,2.23714,0,0,1-.33887-0.03711l-0.5127-.07422a4.30526,4.30526,0,0,0-.543-0.04687,4.97866,4.97866,0,0,0-1.19824.11621,1.39675,1.39675,0,0,1-.31445.042,0.17549,0.17549,0,0,1-.17383-0.21777,0.27475,0.27475,0,0,1,.18066-0.248,0.80127,0.80127,0,0,0,.46387-0.46582,3.38484,3.38484,0,0,0,.11816-1.07031V66.6582a4.512,4.512,0,0,0-.42578-2.13574,1.29264,1.29264,0,0,0-1.16211-.78809,1.34946,1.34946,0,0,0-1.05957.45508,1.72718,1.72718,0,0,0-.40234,1.1875v3.30664a2.524,2.524,0,0,0,.27051,1.33105,1.16621,1.16621,0,0,0,.916.49023,0.21675,0.21675,0,0,1,.2207.22754,0.24471,0.24471,0,0,1-.27637.27734,4.81675,4.81675,0,0,1-.62207-0.04883,9.50016,9.50016,0,0,0-1.22852-.13867,6.167,6.167,0,0,0-1.05566.10547,2.59478,2.59478,0,0,1-.38672.05273,0.17886,0.17886,0,0,1-.19629-0.208,0.22082,0.22082,0,0,1,.13379-0.208,1.03064,1.03064,0,0,0,.51074-0.41211,2.06691,2.06691,0,0,0,.11035-0.81738l0.00781-.32715V65.51855l-0.00781-.38672a2.89042,2.89042,0,0,0-.11426-0.98633,0.419,0.419,0,0,0-.4209-0.27246h-0.36133a0.1314,0.1314,0,0,1-.11816-0.05957A0.23246,0.23246,0,0,1,167.623,63.665a0.28581,0.28581,0,0,1,.11816-0.2627,4.19933,4.19933,0,0,1,.69434-0.25293,4.30409,4.30409,0,0,0,1.64746-.8623,0.15439,0.15439,0,0,1,.10254-0.05957c0.06348-.00586.09473,0.05664,0.09473,0.18848l-0.02344.49609-0.00781.56445,0.04688,0.377a0.14629,0.14629,0,0,0,.10254.12891,0.55265,0.55265,0,0,0,.251-0.26758,2.18892,2.18892,0,0,1,1.90723-1.11035,1.93079,1.93079,0,0,1,1.82813.97363A6.9387,6.9387,0,0,1,174.93359,66.79688Z" transform="translate(0 -4.62765)"/>
    <path class="cls-1" d="M180.57031,62.585a2.55513,2.55513,0,0,1,2.09863,1.209,3.46633,3.46633,0,0,1,.73926,2.042,0.35926,0.35926,0,0,1-.42383.38672l-0.36133-.02051h-0.17969l-0.47949.01074-1.48242.0293-0.77734.00977-0.2666-.00977a0.41154,0.41154,0,0,0-.29.06934,0.57791,0.57791,0,0,0-.08691.36816A4.06041,4.06041,0,0,0,179.73926,69a1.91007,1.91007,0,0,0,1.56543,1.00879,1.95262,1.95262,0,0,0,1.59277-.72949l0.251-.31055a0.1768,0.1768,0,0,1,.13379-0.08008,0.17008,0.17008,0,0,1,.17285.208,1.97131,1.97131,0,0,1-.60547.96191,3.08546,3.08546,0,0,1-2.29492,1.18945,2.624,2.624,0,0,1-2.2168-1.17969,5.0512,5.0512,0,0,1-.85742-3.043,5.33467,5.33467,0,0,1,.916-3.12207A2.6268,2.6268,0,0,1,180.57031,62.585Zm-0.21973.50488a1.12138,1.12138,0,0,0-.93066.65918,2.94836,2.94836,0,0,0-.39844,1.55469,0.373,0.373,0,0,0,.11328.34473,1.82459,1.82459,0,0,0,.61328.05859c0.17285,0,.35449-0.00684.54785-0.01953,0.46875-.02637.74023-0.04,0.8125-0.04a0.55,0.55,0,0,0,.68848-0.53125,2.35418,2.35418,0,0,0-.44238-1.41113A1.24329,1.24329,0,0,0,180.35059,63.08984Z" transform="translate(0 -4.62765)"/>
    <path class="cls-1" d="M188.10938,62.585a2.55513,2.55513,0,0,1,2.09863,1.209,3.46633,3.46633,0,0,1,.73926,2.042,0.35926,0.35926,0,0,1-.42383.38672l-0.36133-.02051h-0.17969l-0.47949.01074-1.48242.0293-0.77734.00977-0.2666-.00977a0.41154,0.41154,0,0,0-.29.06934,0.57791,0.57791,0,0,0-.08691.36816A4.06041,4.06041,0,0,0,187.27832,69a1.91007,1.91007,0,0,0,1.56543,1.00879,1.95262,1.95262,0,0,0,1.59277-.72949l0.251-.31055a0.1768,0.1768,0,0,1,.13379-0.08008,0.17008,0.17008,0,0,1,.17285.208,1.97131,1.97131,0,0,1-.60547.96191,3.08546,3.08546,0,0,1-2.29492,1.18945,2.624,2.624,0,0,1-2.2168-1.17969,5.0512,5.0512,0,0,1-.85742-3.043,5.33467,5.33467,0,0,1,.916-3.12207A2.6268,2.6268,0,0,1,188.10938,62.585Zm-0.21973.50488a1.12138,1.12138,0,0,0-.93066.65918,2.94836,2.94836,0,0,0-.39844,1.55469,0.373,0.373,0,0,0,.11328.34473,1.82459,1.82459,0,0,0,.61328.05859c0.17285,0,.35449-0.00684.54785-0.01953,0.46875-.02637.74023-0.04,0.8125-0.04a0.55,0.55,0,0,0,.68848-0.53125,2.35418,2.35418,0,0,0-.44238-1.41113A1.24329,1.24329,0,0,0,187.88965,63.08984Z" transform="translate(0 -4.62765)"/>
    <path class="cls-1" d="M195.1377,65.99219v2.78125q0,1.563,1.16309,1.76074a0.24241,0.24241,0,0,1,.24414.24316c0,0.168-.06055.25293-0.18164,0.25293A1.01913,1.01913,0,0,1,196.14258,71a8.771,8.771,0,0,0-1.623-.14844,7.209,7.209,0,0,0-.79492.04l-0.48828.05957a1.96922,1.96922,0,0,1-.27637.01953,0.216,0.216,0,0,1-.2207-0.2627,0.24208,0.24208,0,0,1,.19727-0.24316q0.62109-.1875.62109-1.47266l-0.00781-.415V65.03906a2.01544,2.01544,0,0,0-.14551-0.94336,0.79285,0.79285,0,0,0-.625-0.28223,0.1861,0.1861,0,0,1-.18066-0.21191,0.23976,0.23976,0,0,1,.21289-0.26367,4.57314,4.57314,0,0,0,1.84668-.7627l0.30664-.22852a0.19213,0.19213,0,0,1,.11719-0.0498c0.0791,0,.11816.07324,0.11816,0.21875,0,0.0459-.00293.1416-0.00781,0.28711l-0.02344.55469-0.03125.61523,0.00781,0.1084a0.1583,0.1583,0,0,0,.11621.14941,1.04483,1.04483,0,0,0,.34277-0.47656,3.74566,3.74566,0,0,1,.65039-0.80762,1.32936,1.32936,0,0,1,.60449-0.43066,2.45456,2.45456,0,0,1,1.34375,1.28809,3.8267,3.8267,0,0,1-.25391.69434,1.07627,1.07627,0,0,1-.57129.7627,0.25,0.25,0,0,1-.1875-0.09863l-0.21875-.248a1.17784,1.17784,0,0,0-.91309-0.46582Q195.13721,64.44824,195.1377,65.99219Z" transform="translate(0 -4.62765)"/>
    <path class="cls-1" d="M201.96973,63.0293v5.60645A2.91371,2.91371,0,0,0,202.209,70.04a1.056,1.056,0,0,0,.89258.44434,0.23053,0.23053,0,0,1,.25879.2334q0,0.26221-.62207.2627c-0.05273,0-.165-0.00977-0.33887-0.02832l-0.59082-.07422c-0.3252-.03711-0.541-0.05566-0.64551-0.05566a6.18686,6.18686,0,0,0-1.127.13867A1.29129,1.29129,0,0,1,199.76855,71a0.15909,0.15909,0,0,1-.165-0.19238,0.23281,0.23281,0,0,1,.10156-0.2041l0.26758-.168a0.902,0.902,0,0,0,.29492-0.51367,2.94439,2.94439,0,0,0,.12207-0.84961l-0.00781-.415V65.30664a3.00519,3.00519,0,0,0-.12988-1.06738,0.47071,0.47071,0,0,0-.46777-0.29687h-0.18066a0.23228,0.23228,0,0,1-.20508-0.08008,0.30556,0.30556,0,0,1-.02344-0.1416,0.50607,0.50607,0,0,1,.48145-0.38281,4.3151,4.3151,0,0,0,1.88477-.96094,0.2535,0.2535,0,0,1,.13379-0.07031c0.07324,0.00684.11035,0.06934,0.11035,0.18848l-0.00781.08887C201.97168,62.64355,201.96973,62.792,201.96973,63.0293Zm-0.8457-5.41016a1.4236,1.4236,0,0,1,.58789.67383l0.3291,0.53516a0.74388,0.74388,0,0,1,.125.34668,2.13692,2.13692,0,0,1-.43066.90234,1.45908,1.45908,0,0,1-.60352.66406,0.28338,0.28338,0,0,1-.21094-0.11914l-0.36816-.56543-0.34473-.49512a0.68306,0.68306,0,0,1-.13281-0.33691,2.56263,2.56263,0,0,1,.46191-0.90234A1.84712,1.84712,0,0,1,201.124,57.61914Z" transform="translate(0 -4.62765)"/>
    <path class="cls-1" d="M211.75684,66.79688v2.00684a4.463,4.463,0,0,0,.05566.875,0.96112,0.96112,0,0,0,.251.44043,1.20543,1.20543,0,0,0,.72363.3457,0.23882,0.23882,0,0,1,.24316.23828q0,0.29736-.55859.29688a2.23714,2.23714,0,0,1-.33887-0.03711l-0.5127-.07422a4.30526,4.30526,0,0,0-.543-0.04687,4.97865,4.97865,0,0,0-1.19824.11621,1.39675,1.39675,0,0,1-.31445.042,0.17549,0.17549,0,0,1-.17383-0.21777,0.27475,0.27475,0,0,1,.18066-0.248,0.80127,0.80127,0,0,0,.46387-0.46582,3.38484,3.38484,0,0,0,.11816-1.07031V66.6582a4.512,4.512,0,0,0-.42578-2.13574,1.29264,1.29264,0,0,0-1.16211-.78809,1.34946,1.34946,0,0,0-1.05957.45508,1.72718,1.72718,0,0,0-.40234,1.1875v3.30664a2.524,2.524,0,0,0,.27051,1.33105,1.16622,1.16622,0,0,0,.916.49023,0.21675,0.21675,0,0,1,.2207.22754,0.24471,0.24471,0,0,1-.27637.27734,4.81675,4.81675,0,0,1-.62207-0.04883,9.50016,9.50016,0,0,0-1.22852-.13867,6.167,6.167,0,0,0-1.05566.10547,2.59478,2.59478,0,0,1-.38672.05273,0.17886,0.17886,0,0,1-.19629-0.208,0.22082,0.22082,0,0,1,.13379-0.208,1.03064,1.03064,0,0,0,.51074-0.41211A2.06691,2.06691,0,0,0,205.5,69.335l0.00781-.32715V65.51855L205.5,65.13184a2.89042,2.89042,0,0,0-.11426-0.98633,0.419,0.419,0,0,0-.4209-0.27246h-0.36133a0.1314,0.1314,0,0,1-.11816-0.05957,0.23246,0.23246,0,0,1-.03906-0.14844,0.28581,0.28581,0,0,1,.11816-0.2627,4.19933,4.19933,0,0,1,.69434-0.25293,4.30409,4.30409,0,0,0,1.64746-.8623,0.15439,0.15439,0,0,1,.10254-0.05957c0.06348-.00586.09473,0.05664,0.09473,0.18848l-0.02344.49609-0.00781.56445,0.04688,0.377a0.14629,0.14629,0,0,0,.10254.12891,0.55265,0.55265,0,0,0,.251-0.26758,2.18892,2.18892,0,0,1,1.90723-1.11035,1.93079,1.93079,0,0,1,1.82813.97363A6.9387,6.9387,0,0,1,211.75684,66.79688Z" transform="translate(0 -4.62765)"/>
    <path class="cls-1" d="M219.209,63.41406a1.43355,1.43355,0,0,0,.8457-0.36133,1.37188,1.37188,0,0,0,.3418-0.835,0.16993,0.16993,0,0,1,.15723-0.19824c0.08887,0,.13379.08594,0.13379,0.25684q0,0.24756-.09473,1.05762-0.063.55371-.07031,0.72168a0.56972,0.56972,0,0,1-.11035.33594,2.41084,2.41084,0,0,1-.49512.3457,2.67539,2.67539,0,0,0,.02344.30664q0.03955,0.47607.03906,0.585a2.34342,2.34342,0,0,1-.81348,1.81348,2.89221,2.89221,0,0,1-2.00879.7334,3.48863,3.48863,0,0,1-.79395-0.09961,1.1407,1.1407,0,0,0-.27441-0.03906,0.49056,0.49056,0,0,0-.415.24219,1.03483,1.03483,0,0,0-.167.59961q0,0.85254,1.18164.85254a8.23346,8.23346,0,0,1,3.043.3623,1.473,1.473,0,0,1,.752,1.47559,2.8527,2.8527,0,0,1-.84766,2.08594,3.40891,3.40891,0,0,1-2.52441.85352,4.53447,4.53447,0,0,1-2.22754-.44238,1.39722,1.39722,0,0,1-.76855-1.27734,1.46324,1.46324,0,0,1,.24316-0.80566,0.96492,0.96492,0,0,1,.57324-0.457,0.56092,0.56092,0,0,0,.377-0.17871l-0.06348-.12891-0.23437-.29785a1.72317,1.72317,0,0,1-.35254-1.07031,2.21041,2.21041,0,0,1,.53418-1.48633l0.251-.29785a0.29534,0.29534,0,0,0,.07129-0.18848,0.6804,0.6804,0,0,0-.32227-0.38574,2.00045,2.00045,0,0,1-.60937-0.88086,3.119,3.119,0,0,1-.26367-1.19727,2.72107,2.72107,0,0,1,2.81445-2.80957A2.99882,2.99882,0,0,1,219.209,63.41406Zm-3.1709,8.12109a0.605,0.605,0,0,0-.50293.27344,1.09644,1.09644,0,0,0-.20117.66895,1.40258,1.40258,0,0,0,.5498,1.16406,2.37052,2.37052,0,0,0,1.502.43164,2.23012,2.23012,0,0,0,1.34375-.37207,1.1618,1.1618,0,0,0,.51172-0.98633,0.71521,0.71521,0,0,0-.31445-0.68848,4.63469,4.63469,0,0,0-1.46-.28223,8.605,8.605,0,0,1-1.03613-.13965l-0.2041-.04883A0.95629,0.95629,0,0,0,216.03809,71.53516Zm1.0957-8.50488a1.06014,1.06014,0,0,0-.94922.5918,3.1889,3.1889,0,0,0-.34766,1.61523,3.923,3.923,0,0,0,.375,1.82227,1.09158,1.09158,0,0,0,.9375.71875,1.05361,1.05361,0,0,0,.92969-0.58594,2.97047,2.97047,0,0,0,.35254-1.541Q218.43164,63.03076,217.13379,63.03027Z" transform="translate(0 -4.62765)"/>
  </g>
</svg>
