<svg id="Слой_1" data-name="Слой 1" xmlns="http://www.w3.org/2000/svg" width="80.43356mm" height="29.63341mm" viewBox="0 0 228.00063 84.00023">
  <defs>
    <style>
      .cls-1, .cls-5, .cls-6 {
        fill: none;
      }

      .cls-1, .cls-2 {
        stroke: #b2b2b2;
      }

      .cls-1, .cls-2, .cls-5 {
        stroke-miterlimit: 10;
        stroke-width: 2px;
      }

      .cls-2, .cls-4 {
        fill: #05bcfe;
      }

      .cls-3 {
        fill: #062568;
      }

      .cls-5 {
        stroke: #05bcfe;
      }

      .cls-6 {
        stroke: #fff;
      }

      .cls-7 {
        fill: #fff;
      }
    </style>
  </defs>
  <title>mjss</title>
  <path class="cls-1" d="M227.00063,45.62777H1V8.31516A3.69835,3.69835,0,0,1,4.68751,4.62765H223.31312a3.69835,3.69835,0,0,1,3.68751,3.68751v37.3126Z" transform="translate(0 -3.62765)"/>
  <path class="cls-2" d="M1,42.00011H227.00063a0,0,0,0,1,0,0V79.31519a3.685,3.685,0,0,1-3.685,3.685H4.685A3.685,3.685,0,0,1,1,79.31519V42.00011A0,0,0,0,1,1,42.00011Z"/>
  <g>
    <g>
      <path class="cls-3" d="M67.6774,34.44141V31.43262h2.4292V16.84717H67.6774V13.88428h9.0957l4.186,15.28564h0.05176l4.12158-15.28564h9.1084v2.96289H91.799V31.43262h2.44189v3.00879H85.55875V31.43262h2.27393V16.84717H87.78091L82.80679,34.44141H78.569L73.59488,16.84717H73.49136V31.43262H75.8815v3.00879H67.6774Z" transform="translate(0 -3.62765)"/>
      <path class="cls-3" d="M112.49234,13.88428v2.96289h-2.22217V28.18262a8.33137,8.33137,0,0,1-1.28564,4.80615q-1.2854,1.8772-5.49707,1.87744-3.33325,0-4.57373-1.65381a8.17662,8.17662,0,0,1-1.24023-4.938V27.57373h4.06982v0.60889a6.88531,6.88531,0,0,0,.42627,2.71582,1.86337,1.86337,0,0,0,1.91211.959q1.95044,0,1.95068-2.917V16.84717h-3.12646V13.88428h9.58643Z" transform="translate(0 -3.62765)"/>
      <path class="cls-3" d="M116.35171,34.44141V27.52783H119.943a4.96637,4.96637,0,0,0,1.01465,3.49121,4.26926,4.26926,0,0,0,3.22314,1.06787,3.68852,3.68852,0,0,0,2.19678-.74609,2.283,2.283,0,0,0,1.0332-1.92969,2.87621,2.87621,0,0,0-1.26611-2.76758,17.503,17.503,0,0,0-4.08252-1.37793,10.61671,10.61671,0,0,1-4.23779-1.84326q-1.42163-1.166-1.42139-3.99121a5.56189,5.56189,0,0,1,1.81543-4.4502,6.77687,6.77687,0,0,1,4.59326-1.56738,5.41019,5.41019,0,0,1,4.70264,2.11328h0.05176V13.88428h3.50146v6.44287h-3.605a4.81937,4.81937,0,0,0-1.01416-3.0835,3.74142,3.74142,0,0,0-2.84863-.959q-3.12744,0-3.127,2.62988a2.00793,2.00793,0,0,0,1.05957,2.04443,34.09336,34.09336,0,0,0,4.08252,1.33789,11.28688,11.28688,0,0,1,4.50293,2.19336,5.41161,5.41161,0,0,1,1.479,4.209,6.20181,6.20181,0,0,1-.85254,3.27881,5.62667,5.62667,0,0,1-2.31934,2.14746,7.06939,7.06939,0,0,1-3.23633.74072,10.20548,10.20548,0,0,1-3.165-.41895A4.39324,4.39324,0,0,1,119.84,32.75342h-0.05176v1.688h-3.43652Z" transform="translate(0 -3.62765)"/>
      <path class="cls-3" d="M136.24429,34.44141V27.52783h3.59131a4.96637,4.96637,0,0,0,1.01465,3.49121,4.26926,4.26926,0,0,0,3.22314,1.06787,3.68852,3.68852,0,0,0,2.19678-.74609,2.283,2.283,0,0,0,1.0332-1.92969,2.87621,2.87621,0,0,0-1.26611-2.76758,17.503,17.503,0,0,0-4.08252-1.37793,10.61671,10.61671,0,0,1-4.23779-1.84326q-1.42163-1.166-1.42139-3.99121A5.56189,5.56189,0,0,1,138.111,14.981a6.77687,6.77687,0,0,1,4.59326-1.56738,5.41019,5.41019,0,0,1,4.70264,2.11328h0.05176V13.88428h3.50146v6.44287h-3.605a4.81937,4.81937,0,0,0-1.01416-3.0835,3.74142,3.74142,0,0,0-2.84863-.959q-3.12744,0-3.127,2.62988A2.00793,2.00793,0,0,0,141.425,20.959a34.09336,34.09336,0,0,0,4.08252,1.33789,11.28688,11.28688,0,0,1,4.50293,2.19336,5.41161,5.41161,0,0,1,1.479,4.209,6.20181,6.20181,0,0,1-.85254,3.27881,5.62667,5.62667,0,0,1-2.31934,2.14746,7.06939,7.06939,0,0,1-3.23633.74072,10.20548,10.20548,0,0,1-3.165-.41895,4.39324,4.39324,0,0,1-2.18359-1.69385h-0.05176v1.688h-3.43652Z" transform="translate(0 -3.62765)"/>
    </g>
    <g>
      <path class="cls-4" d="M67.6774,34.44141V31.43262h2.4292V16.84717H67.6774V13.88428h9.0957l4.186,15.28564h0.05176l4.12158-15.28564h9.1084v2.96289H91.799V31.43262h2.44189v3.00879H85.55875V31.43262h2.27393V16.84717H87.78091L82.80679,34.44141H78.569L73.59488,16.84717H73.49136V31.43262H75.8815v3.00879H67.6774Z" transform="translate(0 -3.62765)"/>
      <path class="cls-4" d="M112.49234,13.88428v2.96289h-2.22217V28.18262a8.33137,8.33137,0,0,1-1.28564,4.80615q-1.2854,1.8772-5.49707,1.87744-3.33325,0-4.57373-1.65381a8.17662,8.17662,0,0,1-1.24023-4.938V27.57373h4.06982v0.60889a6.88531,6.88531,0,0,0,.42627,2.71582,1.86337,1.86337,0,0,0,1.91211.959q1.95044,0,1.95068-2.917V16.84717h-3.12646V13.88428h9.58643Z" transform="translate(0 -3.62765)"/>
      <path class="cls-4" d="M116.35171,34.44141V27.52783H119.943a4.96637,4.96637,0,0,0,1.01465,3.49121,4.26926,4.26926,0,0,0,3.22314,1.06787,3.68852,3.68852,0,0,0,2.19678-.74609,2.283,2.283,0,0,0,1.0332-1.92969,2.87621,2.87621,0,0,0-1.26611-2.76758,17.503,17.503,0,0,0-4.08252-1.37793,10.61671,10.61671,0,0,1-4.23779-1.84326q-1.42163-1.166-1.42139-3.99121a5.56189,5.56189,0,0,1,1.81543-4.4502,6.77687,6.77687,0,0,1,4.59326-1.56738,5.41019,5.41019,0,0,1,4.70264,2.11328h0.05176V13.88428h3.50146v6.44287h-3.605a4.81937,4.81937,0,0,0-1.01416-3.0835,3.74142,3.74142,0,0,0-2.84863-.959q-3.12744,0-3.127,2.62988a2.00793,2.00793,0,0,0,1.05957,2.04443,34.09336,34.09336,0,0,0,4.08252,1.33789,11.28688,11.28688,0,0,1,4.50293,2.19336,5.41161,5.41161,0,0,1,1.479,4.209,6.20181,6.20181,0,0,1-.85254,3.27881,5.62667,5.62667,0,0,1-2.31934,2.14746,7.06939,7.06939,0,0,1-3.23633.74072,10.20548,10.20548,0,0,1-3.165-.41895A4.39324,4.39324,0,0,1,119.84,32.75342h-0.05176v1.688h-3.43652Z" transform="translate(0 -3.62765)"/>
      <path class="cls-4" d="M136.24429,34.44141V27.52783h3.59131a4.96637,4.96637,0,0,0,1.01465,3.49121,4.26926,4.26926,0,0,0,3.22314,1.06787,3.68852,3.68852,0,0,0,2.19678-.74609,2.283,2.283,0,0,0,1.0332-1.92969,2.87621,2.87621,0,0,0-1.26611-2.76758,17.503,17.503,0,0,0-4.08252-1.37793,10.61671,10.61671,0,0,1-4.23779-1.84326q-1.42163-1.166-1.42139-3.99121A5.56189,5.56189,0,0,1,138.111,14.981a6.77687,6.77687,0,0,1,4.59326-1.56738,5.41019,5.41019,0,0,1,4.70264,2.11328h0.05176V13.88428h3.50146v6.44287h-3.605a4.81937,4.81937,0,0,0-1.01416-3.0835,3.74142,3.74142,0,0,0-2.84863-.959q-3.12744,0-3.127,2.62988A2.00793,2.00793,0,0,0,141.425,20.959a34.09336,34.09336,0,0,0,4.08252,1.33789,11.28688,11.28688,0,0,1,4.50293,2.19336,5.41161,5.41161,0,0,1,1.479,4.209,6.20181,6.20181,0,0,1-.85254,3.27881,5.62667,5.62667,0,0,1-2.31934,2.14746,7.06939,7.06939,0,0,1-3.23633.74072,10.20548,10.20548,0,0,1-3.165-.41895,4.39324,4.39324,0,0,1-2.18359-1.69385h-0.05176v1.688h-3.43652Z" transform="translate(0 -3.62765)"/>
    </g>
    <g>
      <path class="cls-5" d="M67.6774,34.44141V31.43262h2.4292V16.84717H67.6774V13.88428h9.0957l4.186,15.28564h0.05176l4.12158-15.28564h9.1084v2.96289H91.799V31.43262h2.44189v3.00879H85.55875V31.43262h2.27393V16.84717H87.78091L82.80679,34.44141H78.569L73.59488,16.84717H73.49136V31.43262H75.8815v3.00879H67.6774Z" transform="translate(0 -3.62765)"/>
      <path class="cls-5" d="M112.49234,13.88428v2.96289h-2.22217V28.18262a8.33137,8.33137,0,0,1-1.28564,4.80615q-1.2854,1.8772-5.49707,1.87744-3.33325,0-4.57373-1.65381a8.17662,8.17662,0,0,1-1.24023-4.938V27.57373h4.06982v0.60889a6.88531,6.88531,0,0,0,.42627,2.71582,1.86337,1.86337,0,0,0,1.91211.959q1.95044,0,1.95068-2.917V16.84717h-3.12646V13.88428h9.58643Z" transform="translate(0 -3.62765)"/>
      <path class="cls-5" d="M116.35171,34.44141V27.52783H119.943a4.96637,4.96637,0,0,0,1.01465,3.49121,4.26926,4.26926,0,0,0,3.22314,1.06787,3.68852,3.68852,0,0,0,2.19678-.74609,2.283,2.283,0,0,0,1.0332-1.92969,2.87621,2.87621,0,0,0-1.26611-2.76758,17.503,17.503,0,0,0-4.08252-1.37793,10.61671,10.61671,0,0,1-4.23779-1.84326q-1.42163-1.166-1.42139-3.99121a5.56189,5.56189,0,0,1,1.81543-4.4502,6.77687,6.77687,0,0,1,4.59326-1.56738,5.41019,5.41019,0,0,1,4.70264,2.11328h0.05176V13.88428h3.50146v6.44287h-3.605a4.81937,4.81937,0,0,0-1.01416-3.0835,3.74142,3.74142,0,0,0-2.84863-.959q-3.12744,0-3.127,2.62988a2.00793,2.00793,0,0,0,1.05957,2.04443,34.09336,34.09336,0,0,0,4.08252,1.33789,11.28688,11.28688,0,0,1,4.50293,2.19336,5.41161,5.41161,0,0,1,1.479,4.209,6.20181,6.20181,0,0,1-.85254,3.27881,5.62667,5.62667,0,0,1-2.31934,2.14746,7.06939,7.06939,0,0,1-3.23633.74072,10.20548,10.20548,0,0,1-3.165-.41895A4.39324,4.39324,0,0,1,119.84,32.75342h-0.05176v1.688h-3.43652Z" transform="translate(0 -3.62765)"/>
      <path class="cls-5" d="M136.24429,34.44141V27.52783h3.59131a4.96637,4.96637,0,0,0,1.01465,3.49121,4.26926,4.26926,0,0,0,3.22314,1.06787,3.68852,3.68852,0,0,0,2.19678-.74609,2.283,2.283,0,0,0,1.0332-1.92969,2.87621,2.87621,0,0,0-1.26611-2.76758,17.503,17.503,0,0,0-4.08252-1.37793,10.61671,10.61671,0,0,1-4.23779-1.84326q-1.42163-1.166-1.42139-3.99121A5.56189,5.56189,0,0,1,138.111,14.981a6.77687,6.77687,0,0,1,4.59326-1.56738,5.41019,5.41019,0,0,1,4.70264,2.11328h0.05176V13.88428h3.50146v6.44287h-3.605a4.81937,4.81937,0,0,0-1.01416-3.0835,3.74142,3.74142,0,0,0-2.84863-.959q-3.12744,0-3.127,2.62988A2.00793,2.00793,0,0,0,141.425,20.959a34.09336,34.09336,0,0,0,4.08252,1.33789,11.28688,11.28688,0,0,1,4.50293,2.19336,5.41161,5.41161,0,0,1,1.479,4.209,6.20181,6.20181,0,0,1-.85254,3.27881,5.62667,5.62667,0,0,1-2.31934,2.14746,7.06939,7.06939,0,0,1-3.23633.74072,10.20548,10.20548,0,0,1-3.165-.41895,4.39324,4.39324,0,0,1-2.18359-1.69385h-0.05176v1.688h-3.43652Z" transform="translate(0 -3.62765)"/>
    </g>
    <g>
      <path class="cls-6" d="M67.6774,34.44141V31.43262h2.4292V16.84717H67.6774V13.88428h9.0957l4.186,15.28564h0.05176l4.12158-15.28564h9.1084v2.96289H91.799V31.43262h2.44189v3.00879H85.55875V31.43262h2.27393V16.84717H87.78091L82.80679,34.44141H78.569L73.59488,16.84717H73.49136V31.43262H75.8815v3.00879H67.6774Z" transform="translate(0 -3.62765)"/>
      <path class="cls-6" d="M112.49234,13.88428v2.96289h-2.22217V28.18262a8.33137,8.33137,0,0,1-1.28564,4.80615q-1.2854,1.8772-5.49707,1.87744-3.33325,0-4.57373-1.65381a8.17662,8.17662,0,0,1-1.24023-4.938V27.57373h4.06982v0.60889a6.88531,6.88531,0,0,0,.42627,2.71582,1.86337,1.86337,0,0,0,1.91211.959q1.95044,0,1.95068-2.917V16.84717h-3.12646V13.88428h9.58643Z" transform="translate(0 -3.62765)"/>
      <path class="cls-6" d="M116.35171,34.44141V27.52783H119.943a4.96637,4.96637,0,0,0,1.01465,3.49121,4.26926,4.26926,0,0,0,3.22314,1.06787,3.68852,3.68852,0,0,0,2.19678-.74609,2.283,2.283,0,0,0,1.0332-1.92969,2.87621,2.87621,0,0,0-1.26611-2.76758,17.503,17.503,0,0,0-4.08252-1.37793,10.61671,10.61671,0,0,1-4.23779-1.84326q-1.42163-1.166-1.42139-3.99121a5.56189,5.56189,0,0,1,1.81543-4.4502,6.77687,6.77687,0,0,1,4.59326-1.56738,5.41019,5.41019,0,0,1,4.70264,2.11328h0.05176V13.88428h3.50146v6.44287h-3.605a4.81937,4.81937,0,0,0-1.01416-3.0835,3.74142,3.74142,0,0,0-2.84863-.959q-3.12744,0-3.127,2.62988a2.00793,2.00793,0,0,0,1.05957,2.04443,34.09336,34.09336,0,0,0,4.08252,1.33789,11.28688,11.28688,0,0,1,4.50293,2.19336,5.41161,5.41161,0,0,1,1.479,4.209,6.20181,6.20181,0,0,1-.85254,3.27881,5.62667,5.62667,0,0,1-2.31934,2.14746,7.06939,7.06939,0,0,1-3.23633.74072,10.20548,10.20548,0,0,1-3.165-.41895A4.39324,4.39324,0,0,1,119.84,32.75342h-0.05176v1.688h-3.43652Z" transform="translate(0 -3.62765)"/>
      <path class="cls-6" d="M136.24429,34.44141V27.52783h3.59131a4.96637,4.96637,0,0,0,1.01465,3.49121,4.26926,4.26926,0,0,0,3.22314,1.06787,3.68852,3.68852,0,0,0,2.19678-.74609,2.283,2.283,0,0,0,1.0332-1.92969,2.87621,2.87621,0,0,0-1.26611-2.76758,17.503,17.503,0,0,0-4.08252-1.37793,10.61671,10.61671,0,0,1-4.23779-1.84326q-1.42163-1.166-1.42139-3.99121A5.56189,5.56189,0,0,1,138.111,14.981a6.77687,6.77687,0,0,1,4.59326-1.56738,5.41019,5.41019,0,0,1,4.70264,2.11328h0.05176V13.88428h3.50146v6.44287h-3.605a4.81937,4.81937,0,0,0-1.01416-3.0835,3.74142,3.74142,0,0,0-2.84863-.959q-3.12744,0-3.127,2.62988A2.00793,2.00793,0,0,0,141.425,20.959a34.09336,34.09336,0,0,0,4.08252,1.33789,11.28688,11.28688,0,0,1,4.50293,2.19336,5.41161,5.41161,0,0,1,1.479,4.209,6.20181,6.20181,0,0,1-.85254,3.27881,5.62667,5.62667,0,0,1-2.31934,2.14746,7.06939,7.06939,0,0,1-3.23633.74072,10.20548,10.20548,0,0,1-3.165-.41895,4.39324,4.39324,0,0,1-2.18359-1.69385h-0.05176v1.688h-3.43652Z" transform="translate(0 -3.62765)"/>
    </g>
  </g>
  <g>
    <path class="cls-7" d="M8.09537,57.48779l3.106,8.56445a0.76833,0.76833,0,0,0,.34082.55371,0.52413,0.52413,0,0,0,.2793-0.3916l2.85693-7.6748a9.56972,9.56972,0,0,1,.57764-1.36768,0.52192,0.52192,0,0,1,.45557-0.27686,2.89664,2.89664,0,0,1,.33447.02881,3.54615,3.54615,0,0,0,.45605.02832,5.38592,5.38592,0,0,0,.76709-0.06689,3.19785,3.19785,0,0,1,.34961-0.02832,0.23812,0.23812,0,0,1,.26611.27246,0.21233,0.21233,0,0,1-.20508.24414,1.16232,1.16232,0,0,0-.99658.60059,4.12734,4.12734,0,0,0-.28418,1.80371l0.00732,0.64941,0.18213,5.93555,0.00732,0.3916a4.01737,4.01737,0,0,0,.36768,1.95117,1.54683,1.54683,0,0,0,1.209.749,0.24913,0.24913,0,0,1,.2124.28223q0,0.26221-.51611.2627a3.98618,3.98618,0,0,1-.48584-0.04785,11.44287,11.44287,0,0,0-1.314-.125,7.715,7.715,0,0,0-1.32861.0957,4.49846,4.49846,0,0,1-.68359.0957,0.19507,0.19507,0,0,1-.18994-0.24316,0.27646,0.27646,0,0,1,.22021-0.26367,1.04875,1.04875,0,0,0,.60986-0.48633,2.17393,2.17393,0,0,0,.17822-0.99316c0-.21-0.00244-0.35937-0.00732-0.44922l-0.22021-6.33887q-0.00732-.25781-0.09863-0.25781a0.83185,0.83185,0,0,0-.31152.52637l-2.85693,7.627-0.10547.28613a0.9348,0.9348,0,0,1-.36084.60254,1.9437,1.9437,0,0,1-.55713-1.05176l-0.38574-.99414L7.5441,61.15771l-0.05273-.14258a0.09789,0.09789,0,0,0-.09082-0.06738c-0.08057,0-.12109.13086-0.12109,0.3916L7.27212,61.646,7.17349,66.47217,7.16568,66.855,7.234,67.75342A1.88851,1.88851,0,0,0,8.424,69.47314a0.38337,0.38337,0,0,1,.34131.33105,0.22923,0.22923,0,0,1-.26611.252,2.91735,2.91735,0,0,1-.48584-0.04785l-0.53955-.0957a3.4724,3.4724,0,0,0-.59229-0.03809,5.05,5.05,0,0,0-1.0791.08984,1.713,1.713,0,0,1-.37988.06348,0.21607,0.21607,0,0,1-.23535-0.25293A0.263,0.263,0,0,1,5.36929,69.521a1.57888,1.57888,0,0,0,.85254-0.88281,4.6259,4.6259,0,0,0,.269-1.76074L6.696,60.60791l0.02246-.63867a3.16989,3.16989,0,0,0-.44336-1.79883,1.39332,1.39332,0,0,0-1.2168-.6543,0.2475,0.2475,0,0,1-.28809-0.272,0.27054,0.27054,0,0,1,.32568-0.28223c0.04541,0,.10352.00342,0.17432,0.00928l0.43945,0.03857q0.12085,0.00952.31055,0.00928a4.2064,4.2064,0,0,0,.69678-0.05713,6.09279,6.09279,0,0,1,.6665-0.07666A0.7492,0.7492,0,0,1,8.09537,57.48779Z" transform="translate(0 -3.62765)"/>
    <path class="cls-7" d="M23.14615,65.41162a4.10074,4.10074,0,0,0,.083-0.748,2.99278,2.99278,0,0,0-.36475-1.56152,1.07417,1.07417,0,0,0-.93652-0.60547,0.65883,0.65883,0,0,0-.73.76074,2.40265,2.40265,0,0,0,.01514.27539l0.02246,0.18066q0,0.64746-1.17334.64648a0.26939,0.26939,0,0,1-.28955-0.334,0.94826,0.94826,0,0,1,.0376-0.21094c0.01563-.06934.03076-0.15234,0.0459-0.248a1.53172,1.53172,0,0,1,.4624-0.93652,2.79154,2.79154,0,0,1,1.94043-.72656,2.43982,2.43982,0,0,1,1.96338.76367,3.13834,3.13834,0,0,1,.50049,2.02344q0,0.7251-.04541,1.82324-0.04614,1.25977-.0459,1.67969,0,0.98291.62158,0.9834a0.62054,0.62054,0,0,0,.32617-0.06738,0.4456,0.4456,0,0,1,.17432-0.06641,0.10779,0.10779,0,0,1,.106.13379,0.57518,0.57518,0,0,1-.29541.44922l-0.2959.19141-0.25732.19043a1.05982,1.05982,0,0,1-.59912.18164,1.39082,1.39082,0,0,1-1.12207-1.08887,4.13947,4.13947,0,0,1-2.34229,1.13672,1.20508,1.20508,0,0,1-1.0083-.46875,2.08084,2.08084,0,0,1-.36377-1.30273,2.44535,2.44535,0,0,1,1.04395-2.20215A9.21474,9.21474,0,0,1,23.14615,65.41162Zm-0.15186.55371a1.50528,1.50528,0,0,0-1.24316.584,2.02721,2.02721,0,0,0-.59131,1.4043q0,1.26123.80371,1.26172a1.357,1.357,0,0,0,.87158-0.2959,0.83675,0.83675,0,0,0,.28027-0.52637,6.92427,6.92427,0,0,0,.07617-1.23242l0.00732-.73633v-0.2002l-0.04541-.21094A0.268,0.268,0,0,0,22.99429,65.96533Z" transform="translate(0 -3.62765)"/>
    <path class="cls-7" d="M33.81168,65.9458v1.93555a4.38568,4.38568,0,0,0,.05273.84375,0.92757,0.92757,0,0,0,.24268.42383,1.167,1.167,0,0,0,.69727.334,0.23067,0.23067,0,0,1,.23535.22949q0,0.28711-.53955.28711a2.186,2.186,0,0,1-.32666-0.03613l-0.49365-.07227a4.1349,4.1349,0,0,0-.52441-0.04492,4.75089,4.75089,0,0,0-1.15479.1123,1.35363,1.35363,0,0,1-.30371.041,0.16982,0.16982,0,0,1-.167-0.21094,0.262,0.262,0,0,1,.17432-0.23828,0.78018,0.78018,0,0,0,.44727-0.44922,3.29274,3.29274,0,0,0,.11377-1.0332V65.813a4.35036,4.35036,0,0,0-.41113-2.05957,1.24576,1.24576,0,0,0-1.12012-.75977,1.29787,1.29787,0,0,0-1.022.43848,1.66634,1.66634,0,0,0-.38818,1.14551v3.1875a2.4312,2.4312,0,0,0,.26123,1.2832,1.12206,1.12206,0,0,0,.8833.47266,0.20917,0.20917,0,0,1,.2124.21973,0.2358,0.2358,0,0,1-.26611.26758,4.46591,4.46591,0,0,1-.6001-0.04785,9.27063,9.27063,0,0,0-1.18506-.13379,5.90425,5.90425,0,0,0-1.01758.10254,2.45691,2.45691,0,0,1-.37256.05078,0.17322,0.17322,0,0,1-.18994-0.20117,0.21462,0.21462,0,0,1,.12891-0.2002,0.99173,0.99173,0,0,0,.49268-0.39648,1.99452,1.99452,0,0,0,.10645-0.78906l0.00732-.31543V64.71338l-0.00732-.37207a2.78853,2.78853,0,0,0-.10986-0.95117,0.403,0.403,0,0,0-.40576-0.2627H26.91324a0.12769,0.12769,0,0,1-.11377-0.05762,0.2289,0.2289,0,0,1-.03809-0.14355,0.2745,0.2745,0,0,1,.11426-0.25293,4.08411,4.08411,0,0,1,.66943-0.24414,4.17395,4.17395,0,0,0,1.58936-.83105,0.14092,0.14092,0,0,1,.09863-0.05762q0.09082-.01025.09082,0.18164l-0.02295.47754-0.00732.54492L29.339,63.10791a0.14006,0.14006,0,0,0,.09912.124,0.5309,0.5309,0,0,0,.24219-0.25781,2.10875,2.10875,0,0,1,1.83838-1.07031,1.86226,1.86226,0,0,1,1.76318.93848A6.69247,6.69247,0,0,1,33.81168,65.9458Z" transform="translate(0 -3.62765)"/>
    <path class="cls-7" d="M39.8688,65.41162a4.10074,4.10074,0,0,0,.083-0.748,2.99278,2.99278,0,0,0-.36475-1.56152,1.07417,1.07417,0,0,0-.93652-0.60547,0.65883,0.65883,0,0,0-.73.76074,2.40265,2.40265,0,0,0,.01514.27539l0.02246,0.18066q0,0.64746-1.17334.64648a0.26939,0.26939,0,0,1-.28955-0.334,0.94826,0.94826,0,0,1,.0376-0.21094c0.01563-.06934.03076-0.15234,0.0459-0.248a1.53172,1.53172,0,0,1,.4624-0.93652,2.79154,2.79154,0,0,1,1.94043-.72656,2.43982,2.43982,0,0,1,1.96338.76367,3.13834,3.13834,0,0,1,.50049,2.02344q0,0.7251-.04541,1.82324-0.04614,1.25977-.0459,1.67969,0,0.98291.62158,0.9834a0.62054,0.62054,0,0,0,.32617-0.06738,0.4456,0.4456,0,0,1,.17432-0.06641,0.10779,0.10779,0,0,1,.106.13379,0.57518,0.57518,0,0,1-.29541.44922l-0.2959.19141-0.25732.19043a1.05982,1.05982,0,0,1-.59912.18164,1.39082,1.39082,0,0,1-1.12207-1.08887,4.13947,4.13947,0,0,1-2.34229,1.13672,1.20508,1.20508,0,0,1-1.0083-.46875,2.08084,2.08084,0,0,1-.36377-1.30273,2.44535,2.44535,0,0,1,1.04395-2.20215A9.21474,9.21474,0,0,1,39.8688,65.41162Zm-0.15186.55371a1.50528,1.50528,0,0,0-1.24316.584,2.02721,2.02721,0,0,0-.59131,1.4043q0,1.26123.80371,1.26172a1.357,1.357,0,0,0,.87158-0.2959,0.83675,0.83675,0,0,0,.28027-0.52637,6.92427,6.92427,0,0,0,.07617-1.23242l0.00732-.73633v-0.2002l-0.04541-.21094A0.268,0.268,0,0,0,39.71695,65.96533Z" transform="translate(0 -3.62765)"/>
    <path class="cls-7" d="M45.95621,61.90381a3.37809,3.37809,0,0,1,1.12939.21973,0.43882,0.43882,0,0,1,.3335.373l0.01514,0.41992L47.47232,63.519l0.01514,0.3252a0.54958,0.54958,0,0,1,.01514.11426,0.15215,0.15215,0,0,1-.16113.18164,1.14383,1.14383,0,0,1-.3999-0.62793,1.619,1.619,0,0,0-1.35254-1.2168,0.918,0.918,0,0,0-.70264.32324,1.08652,1.08652,0,0,0-.29492.75879,1.40609,1.40609,0,0,0,.88672,1.2627l0.52344,0.2666a6.47479,6.47479,0,0,1,.90967.5498,2.14906,2.14906,0,0,1,.4624.55859,2.92882,2.92882,0,0,1,.37109,1.52832,3.056,3.056,0,0,1-.59863,1.91113,1.78656,1.78656,0,0,1-1.46289.7832,4.13555,4.13555,0,0,1-1.145-.2002l-0.52295-.16309-0.34082-.06641a0.2334,0.2334,0,0,1-.167-0.26758c0-.05078.00244-0.13086,0.00781-0.23926,0.00977-.1084.01514-0.23242,0.01514-0.373l-0.02295-1.041-0.00781-.46875a0.64331,0.64331,0,0,1,.03418-0.27246,0.21025,0.21025,0,0,1,.17822-0.05273q0.12158,0,.167.25781a5.17311,5.17311,0,0,0,.5,1.4375,1.47261,1.47261,0,0,0,1.29639.99023,0.95526,0.95526,0,0,0,.7583-0.35547A1.34009,1.34009,0,0,0,46.737,68.5249a1.44424,1.44424,0,0,0-.292-0.9502,3.54721,3.54721,0,0,0-1.11035-.75977,3.49932,3.49932,0,0,1-1.35693-1.01758,2.49028,2.49028,0,0,1-.37939-1.457A2.45123,2.45123,0,0,1,44.235,62.563,2.2819,2.2819,0,0,1,45.95621,61.90381Z" transform="translate(0 -3.62765)"/>
    <path class="cls-7" d="M57.03873,59.35986v7.7373l-0.00732.85938a8.27459,8.27459,0,0,1-.22363,2.09668,5.41924,5.41924,0,0,1-.78467,1.65723q-1.0686,1.56738-1.81934,1.56738a0.71976,0.71976,0,0,1-.29541-0.05762l-0.4248-.17187-0.37158-.124A0.46015,0.46015,0,0,1,52.9606,72.522a2.49923,2.49923,0,0,1,.03809-0.40137l0.18164-1.21387c0.02588-.18457.07666-0.27637,0.15332-0.27637a0.84205,0.84205,0,0,1,.52148.43262l0.293,0.41406a0.903,0.903,0,0,0,.57861.47168q0.58374,0,.584-1.8252l-0.01514-.707V62.21924q0-2.21777-.042-2.94922a3.73068,3.73068,0,0,0-.18555-1.09375,0.86435,0.86435,0,0,0-.39795-0.46875,3.03754,3.03754,0,0,0-.936-0.21,0.24594,0.24594,0,0,1-.22754-0.28174,0.30049,0.30049,0,0,1,.34863-0.33057,5.10068,5.10068,0,0,1,.51563.03857q1.0686,0.12378,1.20508.124a5.49117,5.49117,0,0,0,.7959-0.08594q1.092-.1626,1.27344-0.1626a0.27277,0.27277,0,0,1,.34131.26318,0.28562,0.28562,0,0,1-.22754.25342,0.94342,0.94342,0,0,0-.56836.59668A4.86166,4.86166,0,0,0,57.03873,59.35986Z" transform="translate(0 -3.62765)"/>
    <path class="cls-7" d="M63.27017,61.90381a2.92071,2.92071,0,0,1,2.36523,1.14551,4.46369,4.46369,0,0,1,.93262,2.91211,4.6328,4.6328,0,0,1-1.01221,3.0498,3.13831,3.13831,0,0,1-2.52051,1.22656A2.94478,2.94478,0,0,1,60.674,69.10205a4.31662,4.31662,0,0,1-.94385-2.85449,4.71235,4.71235,0,0,1,1.03467-3.07422A3.1293,3.1293,0,0,1,63.27017,61.90381Zm-0.39258.52539a1.3,1.3,0,0,0-1.16309.78125,4.37144,4.37144,0,0,0-.43018,2.10352,6.71872,6.71872,0,0,0,.66455,3.10352,1.91421,1.91421,0,0,0,1.60059,1.29492,1.3296,1.3296,0,0,0,1.15918-.73828,3.60629,3.60629,0,0,0,.44922-1.89844,7.41628,7.41628,0,0,0-.66455-3.29395A1.93456,1.93456,0,0,0,62.87759,62.4292Z" transform="translate(0 -3.62765)"/>
    <path class="cls-7" d="M74.93716,62.0083v5.918a3.05386,3.05386,0,0,0,.12109,1.13184,0.71841,0.71841,0,0,0,.65186.21484l0.17432-.00977a0.37,0.37,0,0,1,.13672.01953,0.21436,0.21436,0,0,1,.12891.21387q0,0.33984-.51709.33984H75.26822a4.73206,4.73206,0,0,0-.48633.01953,5.10263,5.10263,0,0,0-1.07959.22949,0.40471,0.40471,0,0,1-.13672.02832c-0.11182,0-.16748-0.11816-0.16748-0.35352a2.92083,2.92083,0,0,1,.01514-0.3252q0.01538-.19043.01514-0.28711,0-.28564-0.09814-0.2959a0.24207,0.24207,0,0,0-.12109.11523l-0.27246.35352a2.05134,2.05134,0,0,1-1.67236.917,1.95068,1.95068,0,0,1-1.6875-.78223,3.93778,3.93778,0,0,1-.56787-2.32031q0-2.0332.06055-3.52246c0.00537-.17773.00781-0.33105,0.00781-0.458A0.56854,0.56854,0,0,0,68.63,62.45752l-0.30322-.02832a0.20975,0.20975,0,0,1-.19727-0.2627,0.26719,0.26719,0,0,1,.23193-0.24707,3.75255,3.75255,0,0,1,.86328-0.06348,2.742,2.742,0,0,0,1.05664-.19141,0.99966,0.99966,0,0,1,.31934-0.07617q0.12891,0,.12891.21973,0,0.25781-.01514.52441-0.06812,1.01221-.06787,3.542a7.81828,7.81828,0,0,0,.27881,2.60059,1.091,1.091,0,0,0,1.11572.6543,1.167,1.167,0,0,0,1.01025-.49707,2.42334,2.42334,0,0,0,.35449-1.4209V63.65771a2.42783,2.42783,0,0,0-.11768-0.99512,0.98122,0.98122,0,0,0-.66309-0.27148,0.22546,0.22546,0,0,1-.23535-0.2334q0-.30176.45654-0.30176a4.99514,4.99514,0,0,0,1.83252-.22949,0.38443,0.38443,0,0,1,.15967-0.04785q0.1062-.00879.106,0.19043Z" transform="translate(0 -3.62765)"/>
    <path class="cls-7" d="M79.902,65.17041v2.68066a1.44279,1.44279,0,0,0,1.12207,1.69922,0.23158,0.23158,0,0,1,.23486.2334c0,0.16309-.05811.24414-0.1748,0.24414a1.0526,1.0526,0,0,1-.2124-0.02832,8.41182,8.41182,0,0,0-1.56494-.14355,6.97807,6.97807,0,0,0-.76709.03809l-0.47119.05762a1.81953,1.81953,0,0,1-.26562.01855A0.20754,0.20754,0,0,1,77.59,69.71729a0.23261,0.23261,0,0,1,.18945-0.23437q0.59912-.18164.59912-1.41992l-0.00781-.40039V64.25146a1.94957,1.94957,0,0,0-.14014-0.91016,0.76162,0.76162,0,0,0-.60254-0.27148,0.18037,0.18037,0,0,1-.17432-0.20508,0.231,0.231,0,0,1,.20557-0.25391,4.40131,4.40131,0,0,0,1.78027-.73633l0.2959-.21973a0.19073,0.19073,0,0,1,.11377-0.04785q0.11353,0,.11377.21094c0,0.04395-.00293.13672-0.00781,0.27734l-0.02295.53516-0.03027.5918,0.00781,0.10547a0.15037,0.15037,0,0,0,.11279.14355,0.99369,0.99369,0,0,0,.33008-0.459,3.58371,3.58371,0,0,1,.62744-0.7793,1.28285,1.28285,0,0,1,.582-0.415,2.37075,2.37075,0,0,1,1.29639,1.24219,3.63635,3.63635,0,0,1-.24512.66895,1.03853,1.03853,0,0,1-.55078.73633,0.239,0.239,0,0,1-.18066-0.0957l-0.21094-.23926a1.13794,1.13794,0,0,0-.88086-0.44922Q79.9025,63.68115,79.902,65.17041Z" transform="translate(0 -3.62765)"/>
    <path class="cls-7" d="M90.9855,65.9458v1.93555a4.38568,4.38568,0,0,0,.05273.84375,0.92757,0.92757,0,0,0,.24268.42383,1.167,1.167,0,0,0,.69727.334,0.23067,0.23067,0,0,1,.23535.22949q0,0.28711-.53955.28711a2.186,2.186,0,0,1-.32666-0.03613l-0.49365-.07227a4.1349,4.1349,0,0,0-.52441-0.04492,4.75089,4.75089,0,0,0-1.15479.1123,1.35363,1.35363,0,0,1-.30371.041,0.16982,0.16982,0,0,1-.167-0.21094,0.262,0.262,0,0,1,.17432-0.23828,0.78018,0.78018,0,0,0,.44727-0.44922,3.29274,3.29274,0,0,0,.11377-1.0332V65.813a4.35036,4.35036,0,0,0-.41113-2.05957,1.24576,1.24576,0,0,0-1.12012-.75977,1.29787,1.29787,0,0,0-1.022.43848,1.66634,1.66634,0,0,0-.38818,1.14551v3.1875a2.4312,2.4312,0,0,0,.26123,1.2832,1.12206,1.12206,0,0,0,.8833.47266,0.20917,0.20917,0,0,1,.2124.21973,0.2358,0.2358,0,0,1-.26611.26758,4.46592,4.46592,0,0,1-.6001-0.04785,9.27063,9.27063,0,0,0-1.18506-.13379,5.90425,5.90425,0,0,0-1.01758.10254,2.45691,2.45691,0,0,1-.37256.05078,0.17322,0.17322,0,0,1-.18994-0.20117,0.21462,0.21462,0,0,1,.12891-0.2002,0.99173,0.99173,0,0,0,.49268-0.39648,1.99452,1.99452,0,0,0,.10645-0.78906l0.00732-.31543V64.71338l-0.00732-.37207a2.78853,2.78853,0,0,0-.10986-0.95117,0.403,0.403,0,0,0-.40576-0.2627H84.08707a0.12769,0.12769,0,0,1-.11377-0.05762,0.2289,0.2289,0,0,1-.03809-0.14355,0.2745,0.2745,0,0,1,.11426-0.25293,4.08411,4.08411,0,0,1,.66943-0.24414,4.17395,4.17395,0,0,0,1.58936-.83105,0.14092,0.14092,0,0,1,.09863-0.05762q0.09082-.01025.09082,0.18164l-0.02295.47754-0.00732.54492,0.04541,0.36328a0.14006,0.14006,0,0,0,.09912.124,0.5309,0.5309,0,0,0,.24219-0.25781,2.10875,2.10875,0,0,1,1.83838-1.07031,1.86226,1.86226,0,0,1,1.76318.93848A6.69247,6.69247,0,0,1,90.9855,65.9458Z" transform="translate(0 -3.62765)"/>
    <path class="cls-7" d="M97.04263,65.41162a4.10074,4.10074,0,0,0,.083-0.748,2.99278,2.99278,0,0,0-.36475-1.56152,1.07417,1.07417,0,0,0-.93652-0.60547,0.65883,0.65883,0,0,0-.73.76074,2.40265,2.40265,0,0,0,.01514.27539L95.132,63.71338q0,0.64746-1.17334.64648a0.26939,0.26939,0,0,1-.28955-0.334,0.94826,0.94826,0,0,1,.0376-0.21094c0.01563-.06934.03076-0.15234,0.0459-0.248a1.53172,1.53172,0,0,1,.4624-0.93652,2.79154,2.79154,0,0,1,1.94043-.72656,2.43982,2.43982,0,0,1,1.96338.76367,3.13834,3.13834,0,0,1,.50049,2.02344q0,0.7251-.04541,1.82324-0.04614,1.25977-.0459,1.67969,0,0.98291.62158,0.9834a0.62054,0.62054,0,0,0,.32617-0.06738,0.4456,0.4456,0,0,1,.17432-0.06641,0.10779,0.10779,0,0,1,.106.13379,0.57518,0.57518,0,0,1-.29541.44922l-0.2959.19141-0.25732.19043a1.05982,1.05982,0,0,1-.59912.18164,1.39082,1.39082,0,0,1-1.12207-1.08887,4.13947,4.13947,0,0,1-2.34229,1.13672,1.20508,1.20508,0,0,1-1.0083-.46875,2.08084,2.08084,0,0,1-.36377-1.30273,2.44535,2.44535,0,0,1,1.04395-2.20215A9.21474,9.21474,0,0,1,97.04263,65.41162Zm-0.15186.55371a1.50528,1.50528,0,0,0-1.24316.584,2.02721,2.02721,0,0,0-.59131,1.4043q0,1.26123.80371,1.26172a1.357,1.357,0,0,0,.87158-0.2959,0.83675,0.83675,0,0,0,.28027-0.52637,6.92427,6.92427,0,0,0,.07617-1.23242l0.00732-.73633v-0.2002L97.05,66.01318A0.268,0.268,0,0,0,96.89078,65.96533Z" transform="translate(0 -3.62765)"/>
    <path class="cls-7" d="M103.08365,58.91943v8.44336l0.00781,0.31543a2.85,2.85,0,0,0,.2124,1.3125,1.18256,1.18256,0,0,0,.8335.502,0.5117,0.5117,0,0,1,.23145.07813,0.31917,0.31917,0,0,1,.03418.18457q0,0.23438-.15186.23438a1.89034,1.89034,0,0,1-.26611-0.0293,9.06379,9.06379,0,0,0-1.49658-.10449,6.82184,6.82184,0,0,0-1.39014.0957,0.91139,0.91139,0,0,1-.17432.02832c-0.10645,0-.15967-0.08105-0.15967-0.24414a0.27862,0.27862,0,0,1,.18945-0.22461,1.26793,1.26793,0,0,0,.57617-1.25l0.01514-.55371,0.00732-.25684V59.74951a5.72878,5.72878,0,0,0-.1626-1.67969,0.60339,0.60339,0,0,0-.603-0.44824,0.21,0.21,0,0,1-.21973-0.25293,0.21805,0.21805,0,0,1,.0835-0.19873,2.16282,2.16282,0,0,1,.45654-0.15088,4.50259,4.50259,0,0,0,1.55225-.69775l0.25781-.19092a0.32152,0.32152,0,0,1,.13623-0.05762c0.07617-.00586.11377,0.05762,0.11377,0.19141q0,0.10474-.01514.47754Q103.08389,58.03076,103.08365,58.91943Z" transform="translate(0 -3.62765)"/>
    <path class="cls-7" d="M113.61343,61.90381a2.92071,2.92071,0,0,1,2.36523,1.14551,4.46369,4.46369,0,0,1,.93262,2.91211,4.6328,4.6328,0,0,1-1.01221,3.0498,3.13832,3.13832,0,0,1-2.52051,1.22656,2.94478,2.94478,0,0,1-2.36133-1.13574,4.31662,4.31662,0,0,1-.94385-2.85449,4.71235,4.71235,0,0,1,1.03467-3.07422A3.1293,3.1293,0,0,1,113.61343,61.90381Zm-0.39258.52539a1.3,1.3,0,0,0-1.16309.78125,4.37144,4.37144,0,0,0-.43018,2.10352,6.71872,6.71872,0,0,0,.66455,3.10352,1.91421,1.91421,0,0,0,1.60059,1.29492,1.3296,1.3296,0,0,0,1.15918-.73828,3.60629,3.60629,0,0,0,.44922-1.89844,7.41628,7.41628,0,0,0-.66455-3.29395A1.93456,1.93456,0,0,0,113.22086,62.4292Z" transform="translate(0 -3.62765)"/>
    <path class="cls-7" d="M122.21011,63.12744h-0.72754q-0.45483,0-.45508.59961v3.89746a3.37954,3.37954,0,0,0,.19336,1.40137,1.1835,1.1835,0,0,0,.82275.51465,0.28784,0.28784,0,0,1,.25781.28223,0.197,0.197,0,0,1-.2207.22461c-0.04053,0-.16211-0.0166-0.36475-0.04785a7.41047,7.41047,0,0,0-1.27588-.13379,6.62208,6.62208,0,0,0-1.25391.125,1.50324,1.50324,0,0,1-.23535.02734,0.15088,0.15088,0,0,1-.15186-0.18555,0.29159,0.29159,0,0,1,.13623-0.24414l0.22021-.16211a1.0027,1.0027,0,0,0,.34082-0.86719V63.58447a0.35552,0.35552,0,0,0-.37109-0.42871L118.8898,63.146h-0.18164c-0.19727,0-.2959-0.05371-0.2959-0.16211a0.65609,0.65609,0,0,1,.03027-0.17187,2.57964,2.57964,0,0,0,.061-0.36328,0.1967,0.1967,0,0,1,.15918-0.21973l0.36377-.0293a0.51554,0.51554,0,0,0,.375-0.14355,0.90091,0.90091,0,0,0,.125-0.4873,10.03051,10.03051,0,0,1,.70508-3.40234q0.86426-1.95044,1.97852-1.9502,0.728,0,.728.52588a1.18715,1.18715,0,0,1-.03809.24854q-0.15161.66943-.18945,0.95605c-0.01514.15918-.05811,0.23828-0.12891,0.23828a0.13385,0.13385,0,0,1-.13672-0.13184l-0.02979-.19922a0.86486,0.86486,0,0,0-.2832-0.47852,0.68668,0.68668,0,0,0-.45605-0.22266,0.63571,0.63571,0,0,0-.479.57715,5.4172,5.4172,0,0,0-.17676,1.541l-0.01514,1.4502-0.00781.71582a1.01462,1.01462,0,0,0,.11768.582,0.54435,0.54435,0,0,0,.45117.15234,4.85149,4.85149,0,0,0,.78418-0.0332,0.93134,0.93134,0,0,0,.35254-0.292l0.06836-.04785c0.06543-.00586.09619,0.03223,0.09082,0.11621l-0.0376.10547-0.18213.71191a0.82144,0.82144,0,0,1-.14014.33691A0.47686,0.47686,0,0,1,122.21011,63.12744Z" transform="translate(0 -3.62765)"/>
    <path class="cls-7" d="M131.4733,56.67529a3.06119,3.06119,0,0,1,1.39453.34375l0.50781,0.26758a1.30743,1.30743,0,0,0,.48486.17285,0.43211,0.43211,0,0,0,.22021-0.06738l0.28857-.18164a0.22819,0.22819,0,0,1,.12158-0.03857q0.15894,0,.15918.31592l-0.01514.77441c0,0.12109.00537,0.23535,0.01514,0.34375l0.09863,0.93652,0.07568,0.87012a1.48091,1.48091,0,0,1,.01514.19141c0,0.27344-.063.41113-0.18945,0.41113-0.09082,0-.15674-0.12109-0.19678-0.3623a4.41392,4.41392,0,0,0-1.10889-2.30762,2.55963,2.55963,0,0,0-1.88281-.97168,1.5417,1.5417,0,0,0-1.19189.58008,2.01438,2.01438,0,0,0-.50879,1.37109,1.90429,1.90429,0,0,0,.44775,1.2666A7.333,7.333,0,0,0,132.008,61.7085a6.29366,6.29366,0,0,1,2.38379,1.81738,4.65975,4.65975,0,0,1,.69043,2.58105,4.59547,4.59547,0,0,1-.95508,2.89746,2.78151,2.78151,0,0,1-2.23633,1.2334,5.21223,5.21223,0,0,1-1.66016-.44922,6.92927,6.92927,0,0,0-.78076-0.28613,0.82316,0.82316,0,0,1-.40527-0.168,1.38724,1.38724,0,0,1-.09473-0.49219,10.72694,10.72694,0,0,0-.22754-1.2998,10.50547,10.50547,0,0,1-.28809-1.66309q0-.4585.23486-0.458,0.1062,0,.15186.22852a6.53529,6.53529,0,0,0,1.29053,2.75586,2.54134,2.54134,0,0,0,1.90527,1.11523,1.75094,1.75094,0,0,0,1.37061-.73828,2.5985,2.5985,0,0,0,.60352-1.69141,2.23577,2.23577,0,0,0-.31543-1.23926,2.99636,2.99636,0,0,0-1.08936-.915l-1.15381-.64941a6.88538,6.88538,0,0,1-2.21631-1.73535,3.66624,3.66624,0,0,1-.58447-2.17578,4.20971,4.20971,0,0,1,.81445-2.63965A2.465,2.465,0,0,1,131.4733,56.67529Z" transform="translate(0 -3.62765)"/>
    <path class="cls-7" d="M140.32779,61.90381a2.92071,2.92071,0,0,1,2.36523,1.14551,4.46369,4.46369,0,0,1,.93262,2.91211,4.6328,4.6328,0,0,1-1.01221,3.0498,3.13832,3.13832,0,0,1-2.52051,1.22656,2.94478,2.94478,0,0,1-2.36133-1.13574,4.31662,4.31662,0,0,1-.94385-2.85449,4.71235,4.71235,0,0,1,1.03467-3.07422A3.1293,3.1293,0,0,1,140.32779,61.90381Zm-0.39258.52539a1.3,1.3,0,0,0-1.16309.78125,4.37144,4.37144,0,0,0-.43018,2.10352,6.71872,6.71872,0,0,0,.66455,3.10352,1.91421,1.91421,0,0,0,1.60059,1.29492,1.3296,1.3296,0,0,0,1.15918-.73828,3.60629,3.60629,0,0,0,.44922-1.89844,7.41628,7.41628,0,0,0-.66455-3.29395A1.93456,1.93456,0,0,0,139.93521,62.4292Z" transform="translate(0 -3.62765)"/>
    <path class="cls-7" d="M148.902,61.90381a1.751,1.751,0,0,1,1.66748.7832,1.67764,1.67764,0,0,1,.28076.79395,1.29962,1.29962,0,0,1-.686.7832l-0.32031.22949a0.268,0.268,0,0,1-.12988.05762c-0.13184,0-.20557-0.12012-0.2207-0.36133a2.11485,2.11485,0,0,0-.41846-1.19434,1.08281,1.08281,0,0,0-.86328-0.499,1.22041,1.22041,0,0,0-1.04785.75586,3.815,3.815,0,0,0-.42236,1.87988,5.822,5.822,0,0,0,.624,2.85938,1.82755,1.82755,0,0,0,1.59277,1.11816,2.64423,2.64423,0,0,0,1.7251-.78418l0.09082-.05664q0.12158-.00879.12158,0.16113a1.36872,1.36872,0,0,1-.56885.85254,3.13857,3.13857,0,0,1-2.16016.95508,2.52714,2.52714,0,0,1-2.085-1.07422,4.32346,4.32346,0,0,1-.82617-2.71582,5.04416,5.04416,0,0,1,1.03467-3.251A3.20844,3.20844,0,0,1,148.902,61.90381Z" transform="translate(0 -3.62765)"/>
    <path class="cls-7" d="M154.72379,62.313v5.40625a2.80672,2.80672,0,0,0,.23145,1.35352,1.01946,1.01946,0,0,0,.86035.42969,0.22194,0.22194,0,0,1,.25.22363q0,0.25342-.6001.25391c-0.05078,0-.15967-0.00879-0.32666-0.02734l-0.56934-.07129q-0.47168-.0542-0.623-0.05469a6.01433,6.01433,0,0,0-1.08643.13379,1.27124,1.27124,0,0,1-.2583.03906A0.15426,0.15426,0,0,1,152.442,69.813a0.22471,0.22471,0,0,1,.09863-0.19629l0.25781-.16211a0.87041,0.87041,0,0,0,.28418-0.49512,2.82634,2.82634,0,0,0,.11768-0.82031l-0.00781-.39941V64.50928a2.88267,2.88267,0,0,0-.125-1.0293,0.45278,0.45278,0,0,0-.45117-0.28613H152.442a0.21965,0.21965,0,0,1-.19678-0.07812,0.285,0.285,0,0,1-.02295-0.13574,0.48833,0.48833,0,0,1,.46387-0.36914,4.16595,4.16595,0,0,0,1.81787-.92676,0.24469,0.24469,0,0,1,.12891-0.06738c0.0708,0.00684.106,0.06738,0.106,0.18164l-0.00732.08594C154.72623,61.94092,154.72379,62.08447,154.72379,62.313Zm-0.81494-5.21729a1.37355,1.37355,0,0,1,.56641.6499l0.31738,0.5166a0.70679,0.70679,0,0,1,.12061.334,2.03992,2.03992,0,0,1-.415.87012,1.41135,1.41135,0,0,1-.58154.64063,0.27268,0.27268,0,0,1-.2041-0.11523l-0.355-.54492-0.332-.47754a0.65811,0.65811,0,0,1-.12842-0.3252,2.47726,2.47726,0,0,1,.44531-0.86914A1.7808,1.7808,0,0,1,153.90884,57.0957Z" transform="translate(0 -3.62765)"/>
    <path class="cls-7" d="M160.7814,65.41162a4.05788,4.05788,0,0,0,.083-0.748,2.98332,2.98332,0,0,0-.36523-1.56152,1.07306,1.07306,0,0,0-.93652-0.60547,0.65869,0.65869,0,0,0-.72949.76074,2.5206,2.5206,0,0,0,.01465.27539l0.02344,0.18066q0,0.64746-1.17383.64648a0.26986,0.26986,0,0,1-.29-0.334,0.92772,0.92772,0,0,1,.03809-0.21094c0.01563-.06934.03027-0.15234,0.0459-0.248a1.53389,1.53389,0,0,1,.46191-0.93652,2.7931,2.7931,0,0,1,1.94141-.72656,2.43943,2.43943,0,0,1,1.96289.76367,3.13565,3.13565,0,0,1,.5,2.02344q0,0.7251-.04492,1.82324-0.04541,1.25977-.0459,1.67969,0,0.98291.62207,0.9834a0.62291,0.62291,0,0,0,.32617-0.06738,0.44162,0.44162,0,0,1,.17383-0.06641,0.10829,0.10829,0,0,1,.10645.13379,0.57591,0.57591,0,0,1-.2959.44922l-0.2959.19141-0.25781.19043a1.056,1.056,0,0,1-.59863.18164,1.39194,1.39194,0,0,1-1.12207-1.08887,4.13842,4.13842,0,0,1-2.3418,1.13672,1.20663,1.20663,0,0,1-1.00879-.46875,2.08081,2.08081,0,0,1-.36328-1.30273,2.44428,2.44428,0,0,1,1.04395-2.20215A9.19705,9.19705,0,0,1,160.7814,65.41162Zm-0.15234.55371a1.50586,1.50586,0,0,0-1.24316.584,2.02877,2.02877,0,0,0-.59082,1.4043q0,1.26123.80371,1.26172a1.35565,1.35565,0,0,0,.87109-0.2959,0.83736,0.83736,0,0,0,.28125-0.52637,7.04523,7.04523,0,0,0,.0752-1.23242l0.00781-.73633v-0.2002l-0.04492-.21094A0.27034,0.27034,0,0,0,160.62906,65.96533Z" transform="translate(0 -3.62765)"/>
    <path class="cls-7" d="M166.82242,58.91943v8.44336l0.00684,0.31543a2.8486,2.8486,0,0,0,.21289,1.3125,1.18263,1.18263,0,0,0,.834.502,0.50573,0.50573,0,0,1,.23047.07813,0.31119,0.31119,0,0,1,.03418.18457c0,0.15625-.05078.23438-0.15137,0.23438a1.87811,1.87811,0,0,1-.26562-0.0293,9.07016,9.07016,0,0,0-1.49707-.10449,6.80966,6.80966,0,0,0-1.38965.0957,0.91481,0.91481,0,0,1-.1748.02832c-0.10645,0-.16016-0.08105-0.16016-0.24414a0.2795,0.2795,0,0,1,.18945-0.22461,1.26622,1.26622,0,0,0,.57617-1.25l0.01563-.55371,0.00781-.25684V59.74951a5.72393,5.72393,0,0,0-.16309-1.67969,0.60323,0.60323,0,0,0-.60254-0.44824,0.21,0.21,0,0,1-.21973-0.25293,0.21785,0.21785,0,0,1,.083-0.19873,2.14925,2.14925,0,0,1,.457-0.15088,4.50833,4.50833,0,0,0,1.55176-.69775l0.25781-.19092a0.31831,0.31831,0,0,1,.13672-0.05762c0.0752-.00586.11328,0.05762,0.11328,0.19141q0,0.10474-.01465.47754Q166.82193,58.03076,166.82242,58.91943Z" transform="translate(0 -3.62765)"/>
    <path class="cls-7" d="M176.77554,56.67529a3.0642,3.0642,0,0,1,1.39453.34375l0.50781,0.26758a1.306,1.306,0,0,0,.48535.17285,0.43322,0.43322,0,0,0,.21973-0.06738l0.28809-.18164a0.22975,0.22975,0,0,1,.12207-0.03857c0.10645,0,.15918.10547,0.15918,0.31592l-0.01465.77441c0,0.12109.00488,0.23535,0.01465,0.34375l0.09863,0.93652,0.07617,0.87012a1.56,1.56,0,0,1,.01465.19141c0,0.27344-.06348.41113-0.18945,0.41113-0.09082,0-.15625-0.12109-0.19727-0.3623a4.40591,4.40591,0,0,0-1.1084-2.30762,2.55963,2.55963,0,0,0-1.88281-.97168,1.54337,1.54337,0,0,0-1.19238.58008,2.01672,2.01672,0,0,0-.50879,1.37109,1.90469,1.90469,0,0,0,.44824,1.2666,7.33663,7.33663,0,0,0,1.79883,1.11719,6.28557,6.28557,0,0,1,2.38379,1.81738,4.65611,4.65611,0,0,1,.69141,2.58105,4.59547,4.59547,0,0,1-.95508,2.89746,2.78218,2.78218,0,0,1-2.23633,1.2334,5.20909,5.20909,0,0,1-1.66016-.44922,6.9988,6.9988,0,0,0-.78125-0.28613,0.82563,0.82563,0,0,1-.40527-0.168,1.39916,1.39916,0,0,1-.09473-0.49219,10.72694,10.72694,0,0,0-.22754-1.2998,10.50547,10.50547,0,0,1-.28809-1.66309q0-.4585.23535-0.458c0.07031,0,.12109.07617,0.15137,0.22852a6.53472,6.53472,0,0,0,1.29,2.75586,2.54219,2.54219,0,0,0,1.90625,1.11523,1.75008,1.75008,0,0,0,1.37012-.73828,2.5985,2.5985,0,0,0,.60352-1.69141,2.23985,2.23985,0,0,0-.31543-1.23926,3.00258,3.00258,0,0,0-1.08887-.915l-1.1543-.64941a6.88839,6.88839,0,0,1-2.2168-1.73535,3.6662,3.6662,0,0,1-.584-2.17578,4.20971,4.20971,0,0,1,.81445-2.63965A2.465,2.465,0,0,1,176.77554,56.67529Z" transform="translate(0 -3.62765)"/>
    <path class="cls-7" d="M184.36343,63.09814v4.66406a2.48123,2.48123,0,0,0,.20117,1.18555,0.759,0.759,0,0,0,.709.335A1.5543,1.5543,0,0,0,185.8,69.15283a1.37229,1.37229,0,0,0,.459-0.25879A0.23607,0.23607,0,0,1,186.38,68.814c0.06055,0,.09863.06543,0.11426,0.19531l0.01465,0.09766-0.09082.166a2.50313,2.50313,0,0,1-1.9375.96484,1.52243,1.52243,0,0,1-1.249-.48633,2.35777,2.35777,0,0,1-.39941-1.50879V63.09814h-0.46191c-0.24219,0-.36426-0.084-0.36426-0.25293a0.4499,0.4499,0,0,1,.19043-0.32031,7.72439,7.72439,0,0,0,.93652-1.06055,8.28661,8.28661,0,0,0,.81445-1.19531,0.76352,0.76352,0,0,1,.34863-0.459,0.13024,0.13024,0,0,1,.06738.14355v2.21777H185.463a0.62617,0.62617,0,0,0,.43164-0.124l0.19727-.16309a0.23765,0.23765,0,0,1,.13672-0.06641c0.08594-.00684.126,0.04492,0.12109,0.1543a0.84691,0.84691,0,0,1-.05273.21094,2.23243,2.23243,0,0,0-.09082.42383,0.46371,0.46371,0,0,1-.417.49121h-1.42578Z" transform="translate(0 -3.62765)"/>
    <path class="cls-7" d="M194.37808,62.0083v5.918a3.03463,3.03463,0,0,0,.12207,1.13184,0.71617,0.71617,0,0,0,.65137.21484l0.1748-.00977a0.366,0.366,0,0,1,.13574.01953,0.21436,0.21436,0,0,1,.12891.21387q0,0.33984-.5166.33984h-0.36523a4.75884,4.75884,0,0,0-.48633.01953,5.10514,5.10514,0,0,0-1.0791.22949,0.407,0.407,0,0,1-.13672.02832c-0.11133,0-.167-0.11816-0.167-0.35352a3.05871,3.05871,0,0,1,.01465-0.3252c0.00977-.127.01563-0.22266,0.01563-0.28711,0-.19043-0.0332-0.28906-0.09863-0.2959a0.244,0.244,0,0,0-.12109.11523l-0.27246.35352a2.05022,2.05022,0,0,1-1.67285.917,1.95185,1.95185,0,0,1-1.6875-.78223,3.9416,3.9416,0,0,1-.56738-2.32031q0-2.0332.06055-3.52246c0.00488-.17773.00781-0.33105,0.00781-0.458a0.56885,0.56885,0,0,0-.44727-0.69727l-0.30273-.02832a0.20929,0.20929,0,0,1-.19727-0.2627,0.2662,0.2662,0,0,1,.23145-0.24707,3.74965,3.74965,0,0,1,.86328-0.06348,2.74373,2.74373,0,0,0,1.05664-.19141,0.99685,0.99685,0,0,1,.31934-0.07617q0.12891,0,.12891.21973,0,0.25781-.01465.52441-0.06885,1.01221-.06836,3.542a7.83571,7.83571,0,0,0,.27832,2.60059,1.09208,1.09208,0,0,0,1.11621.6543,1.16784,1.16784,0,0,0,1.01074-.49707,2.43092,2.43092,0,0,0,.35352-1.4209V63.65771a2.44017,2.44017,0,0,0-.11719-0.99512,0.98243,0.98243,0,0,0-.66309-0.27148,0.22517,0.22517,0,0,1-.23535-0.2334q0-.30176.45605-0.30176a4.99824,4.99824,0,0,0,1.833-.22949,0.38665,0.38665,0,0,1,.15918-0.04785c0.07129-.00586.10645,0.05762,0.10645,0.19043Z" transform="translate(0 -3.62765)"/>
    <path class="cls-7" d="M203.30777,59.53076v7.94629a3.02585,3.02585,0,0,0,.18262,1.27539,0.71012,0.71012,0,0,0,.68945.33887,0.21085,0.21085,0,0,1,.24316.2334,0.242,0.242,0,0,1-.23437.30176l-0.416.06641-0.665.125a4.00432,4.00432,0,0,0-1.05762.36328,0.55267,0.55267,0,0,1-.22754.06641c-0.05078,0-.07617-0.05762-0.07617-0.17187l0.00781-.78418A0.53838,0.53838,0,0,0,201.716,69.062l-0.05273-.03809a0.16315,0.16315,0,0,0-.10645.08594,2.98654,2.98654,0,0,1-.9873.80273,2.4723,2.4723,0,0,1-1.14648.3252,2.20129,2.20129,0,0,1-1.85937-.97852,4.22673,4.22673,0,0,1-.71387-2.55371,5.98765,5.98765,0,0,1,.93457-3.40332,2.708,2.708,0,0,1,2.28223-1.39844,3.30659,3.30659,0,0,1,1.44531.36328,0.26542,0.26542,0,0,0,.12891.03809c0.08594,0,.12891-0.11133.12891-0.335V59.72412a4.74426,4.74426,0,0,0-.1709-1.57715,0.6572,0.6572,0,0,0-.6709-0.40137,0.21787,0.21787,0,0,1-.25-0.24316,0.20792,0.20792,0,0,1,.15234-0.24414l0.42578-.0957a3.66129,3.66129,0,0,0,1.749-.82227,0.45329,0.45329,0,0,1,.23535-0.13379c0.08008-.00586.12109,0.0957,0.12109,0.30566,0,0.03223-.00293.11182-0.00781,0.23877q-0.022.36328-.02246,0.59229l-0.00781.51563Zm-1.53809,8.30957V64.33447a1.75813,1.75813,0,0,0-.59668-1.30957,1.953,1.953,0,0,0-1.38867-.56738,1.301,1.301,0,0,0-1.14746.7666,4.03577,4.03577,0,0,0-.4375,2.0127,5.08274,5.08274,0,0,0,.65234,2.65918,1.87553,1.87553,0,0,0,1.59668,1.08984,1.64827,1.64827,0,0,0,.73926-0.19727,1.01828,1.01828,0,0,0,.499-0.43359A1.23781,1.23781,0,0,0,201.76968,67.84033Z" transform="translate(0 -3.62765)"/>
    <path class="cls-7" d="M208.25894,62.313v5.40625a2.82106,2.82106,0,0,0,.23047,1.35352,1.02082,1.02082,0,0,0,.86035.42969,0.22253,0.22253,0,0,1,.251.22363q0,0.25342-.60059.25391c-0.05078,0-.15918-0.00879-0.32617-0.02734l-0.57031-.07129q-0.47021-.0542-0.623-0.05469a6.01482,6.01482,0,0,0-1.08594.13379,1.26753,1.26753,0,0,1-.25781.03906,0.15457,0.15457,0,0,1-.16016-0.18652,0.22583,0.22583,0,0,1,.09863-0.19629l0.25781-.16211a0.87041,0.87041,0,0,0,.28418-0.49512,2.84285,2.84285,0,0,0,.11719-0.82031l-0.00684-.39941V64.50928a2.89413,2.89413,0,0,0-.125-1.0293,0.45361,0.45361,0,0,0-.45117-0.28613h-0.1748a0.22062,0.22062,0,0,1-.19727-0.07812A0.29261,0.29261,0,0,1,205.757,62.98a0.48778,0.48778,0,0,1,.46387-0.36914,4.168,4.168,0,0,0,1.81836-.92676,0.23832,0.23832,0,0,1,.12891-0.06738q0.10547,0.01025.10547,0.18164l-0.00781.08594C208.26089,61.94092,208.25894,62.08447,208.25894,62.313Zm-0.81543-5.21729a1.37355,1.37355,0,0,1,.56641.6499l0.31738,0.5166a0.71339,0.71339,0,0,1,.12109.334,2.04646,2.04646,0,0,1-.416.87012,1.40612,1.40612,0,0,1-.58105.64063,0.27346,0.27346,0,0,1-.2041-0.11523l-0.35449-.54492-0.333-.47754a0.66608,0.66608,0,0,1-.12793-0.3252,2.47726,2.47726,0,0,1,.44531-0.86914A1.7808,1.7808,0,0,1,207.44351,57.0957Z" transform="translate(0 -3.62765)"/>
    <path class="cls-7" d="M213.69351,61.88428a2.46516,2.46516,0,0,1,2.02441,1.166,3.34924,3.34924,0,0,1,.71191,1.96973,0.34561,0.34561,0,0,1-.4082.37207l-0.34766-.01855h-0.1748l-0.46094.00879-1.43066.0293-0.749.00977-0.25684-.00977a0.40072,0.40072,0,0,0-.28027.06641,0.55861,0.55861,0,0,0-.083.35547,3.91221,3.91221,0,0,0,.6543,2.2373,1.84162,1.84162,0,0,0,1.50977.97266,1.87884,1.87884,0,0,0,1.53516-.7041l0.24219-.29883a0.16882,0.16882,0,0,1,.12891-0.07715,0.16378,0.16378,0,0,1,.167.2002,1.90515,1.90515,0,0,1-.584.92773,2.97318,2.97318,0,0,1-2.21289,1.14648,2.53208,2.53208,0,0,1-2.1377-1.13672,4.87289,4.87289,0,0,1-.82617-2.93457,5.14458,5.14458,0,0,1,.88281-3.01074A2.533,2.533,0,0,1,213.69351,61.88428Zm-0.21191.4873a1.07978,1.07978,0,0,0-.89648.63574,2.837,2.837,0,0,0-.38477,1.499,0.3565,0.3565,0,0,0,.10938.332,1.74781,1.74781,0,0,0,.5918.05664c0.166,0,.3418-0.00586.52734-0.01855q0.67822-.03809.78418-0.03809a0.53007,0.53007,0,0,0,.66309-0.5127,2.26881,2.26881,0,0,0-.42578-1.36035A1.20065,1.20065,0,0,0,213.4816,62.37158Z" transform="translate(0 -3.62765)"/>
    <path class="cls-7" d="M220.38785,61.90381a3.37622,3.37622,0,0,1,1.12988.21973,0.43758,0.43758,0,0,1,.333.373l0.01563,0.41992,0.03809,0.60254,0.01465,0.3252a0.49437,0.49437,0,0,1,.01563.11426,0.15215,0.15215,0,0,1-.16113.18164,1.14309,1.14309,0,0,1-.40039-0.62793,1.61844,1.61844,0,0,0-1.35254-1.2168,0.91779,0.91779,0,0,0-.70215.32324,1.0887,1.0887,0,0,0-.29492.75879,1.40609,1.40609,0,0,0,.88672,1.2627l0.52344,0.2666a6.40194,6.40194,0,0,1,.90918.5498,2.13078,2.13078,0,0,1,.46289.55859,2.9335,2.9335,0,0,1,.37109,1.52832,3.053,3.053,0,0,1-.59863,1.91113,1.78656,1.78656,0,0,1-1.46289.7832,4.12962,4.12962,0,0,1-1.14453-.2002l-0.52344-.16309-0.34082-.06641a0.2334,0.2334,0,0,1-.167-0.26758c0-.05078.00293-0.13086,0.00781-0.23926,0.00977-.1084.01465-0.23242,0.01465-0.373l-0.02246-1.041-0.00781-.46875A0.64332,0.64332,0,0,1,217.966,67.146a0.21015,0.21015,0,0,1,.17871-0.05273c0.08008,0,.13574.08594,0.166,0.25781a5.16388,5.16388,0,0,0,.501,1.4375,1.471,1.471,0,0,0,1.2959.99023,0.95363,0.95363,0,0,0,.75781-0.35547,1.33789,1.33789,0,0,0,.30371-0.89844,1.44424,1.44424,0,0,0-.292-0.9502,3.53516,3.53516,0,0,0-1.11035-.75977,3.50534,3.50534,0,0,1-1.35742-1.01758,2.49029,2.49029,0,0,1-.37891-1.457,2.44918,2.44918,0,0,1,.63672-1.77734A2.28152,2.28152,0,0,1,220.38785,61.90381Z" transform="translate(0 -3.62765)"/>
  </g>
</svg>
