<svg id="Слой_1" data-name="Слой 1" xmlns="http://www.w3.org/2000/svg" width="80.43356mm" height="29.63341mm" viewBox="0 0 228.00063 84.00023">
  <defs>
    <style>
      .cls-1 {
        fill: #03202e;
      }

      .cls-2 {
        fill: none;
      }

      .cls-2, .cls-3 {
        stroke: #b2b2b2;
        stroke-miterlimit: 10;
        stroke-width: 2px;
      }

      .cls-3, .cls-4 {
        fill: #fff;
      }
    </style>
  </defs>
  <title>reforma2</title>
  <g>
    <path class="cls-1" d="M227.00063,45.62777H1V8.31516A3.69835,3.69835,0,0,1,4.68751,4.62765H223.31312a3.69835,3.69835,0,0,1,3.68751,3.68751v37.3126Z" transform="translate(0 -3.62765)"/>
    <path class="cls-2" d="M227.00063,45.62777H1V8.31516A3.69835,3.69835,0,0,1,4.68751,4.62765H223.31312a3.69835,3.69835,0,0,1,3.68751,3.68751v37.3126Z" transform="translate(0 -3.62765)"/>
  </g>
  <path class="cls-3" d="M1,42.00011H227.00063a0,0,0,0,1,0,0V79.31519a3.685,3.685,0,0,1-3.685,3.685H4.685A3.685,3.685,0,0,1,1,79.31519V42.00011A0,0,0,0,1,1,42.00011Z"/>
  <g>
    <path class="cls-4" d="M49.6525,36.44141h-3.9248l-4.27441-6.11426A8.96967,8.96967,0,0,0,39.10855,27.832a4.72646,4.72646,0,0,0-2.54443-.66113h-2.395v9.27051H30.84293V14.4165h7.84961a9.83764,9.83764,0,0,1,5.8877,1.5498,5.05757,5.05757,0,0,1,2.12842,4.33691q0,4.57837-5.7207,5.94336v0.07129a5.37456,5.37456,0,0,1,1.8374,1.09473,16.72828,16.72828,0,0,1,2.00391,2.43115ZM34.1691,16.90479v7.77783h3.9248a5.74188,5.74188,0,0,0,3.70068-1.1377,3.63942,3.63942,0,0,0,1.42188-2.98584,3.16359,3.16359,0,0,0-1.29736-2.6875,6.25146,6.25146,0,0,0-3.77539-.9668H34.1691Z" transform="translate(0 -3.62765)"/>
    <path class="cls-4" d="M67.88541,36.44141H54.03189V14.4165H67.30337v2.53076H57.35806V24h9.21338v2.5166H57.35806v7.4082H67.88541v2.5166Z" transform="translate(0 -3.62765)"/>
    <path class="cls-4" d="M86.98355,16.94727H77.03824V24.313h9.21338v2.50244H77.03824v9.626H73.71207V14.4165H86.98355v2.53076Z" transform="translate(0 -3.62765)"/>
    <path class="cls-4" d="M91.09683,25.69189a11.06093,11.06093,0,0,1,3.376-8.48828q3.37573-3.15674,9.147-3.15674a12.10087,12.10087,0,0,1,8.64795,3.08545A10.53168,10.53168,0,0,1,115.5441,25.166a11.08293,11.08293,0,0,1-3.35937,8.50293,12.61805,12.61805,0,0,1-8.98047,3.14209,12.38226,12.38226,0,0,1-8.79785-3.08545A10.47711,10.47711,0,0,1,91.09683,25.69189Zm3.49268-.22754a8.70635,8.70635,0,0,0,2.38623,6.40576,8.37989,8.37989,0,0,0,6.22852,2.41016,8.84624,8.84624,0,0,0,6.47754-2.31055,8.6446,8.6446,0,0,0,2.35352-6.4624,8.9384,8.9384,0,0,0-2.30371-6.5835,8.49974,8.49974,0,0,0-6.31152-2.31738A8.39136,8.39136,0,0,0,94.58951,25.46436Z" transform="translate(0 -3.62765)"/>
    <path class="cls-4" d="M140.28043,36.44141h-3.9248l-4.27441-6.11426a8.96967,8.96967,0,0,0-2.34473-2.49512,4.72646,4.72646,0,0,0-2.54443-.66113h-2.395v9.27051h-3.32617V14.4165h7.84961a9.83764,9.83764,0,0,1,5.8877,1.5498,5.05757,5.05757,0,0,1,2.12842,4.33691q0,4.57837-5.7207,5.94336v0.07129a5.37456,5.37456,0,0,1,1.8374,1.09473,16.72828,16.72828,0,0,1,2.00391,2.43115ZM124.797,16.90479v7.77783h3.9248a5.74188,5.74188,0,0,0,3.70068-1.1377,3.63942,3.63942,0,0,0,1.42188-2.98584,3.16359,3.16359,0,0,0-1.29736-2.6875,6.25146,6.25146,0,0,0-3.77539-.9668H124.797Z" transform="translate(0 -3.62765)"/>
    <path class="cls-4" d="M167.95962,36.44141V21.853q0-1.80542.24951-4.33691h-0.083a11.99968,11.99968,0,0,1-.76514,2.21826l-8.49854,16.707h-1.8457l-8.48193-16.5791a13.24074,13.24074,0,0,1-.76514-2.34619h-0.09961q0.16626,1.53589.166,4.46484V36.44141h-3.17627V14.4165h4.50684l7.60059,15.10059a17.93359,17.93359,0,0,1,1.14746,2.70117h0.11621q0.865-2.0332,1.21436-2.7583l7.7334-15.04346h4.29053v22.0249h-3.30957Z" transform="translate(0 -3.62765)"/>
    <path class="cls-4" d="M199.1315,36.44141h-3.67529l-2.62793-6.02881H182.10171l-2.478,6.02881h-3.67578l9.8125-22.0249h3.55908Zm-7.334-8.51709-3.8916-9.15674a9.06639,9.06639,0,0,1-.39941-1.53564h-0.083a7.46436,7.46436,0,0,1-.416,1.53564l-3.8584,9.15674h8.64844Z" transform="translate(0 -3.62765)"/>
  </g>
  <g>
    <path class="cls-1" d="M34.18472,68.2085v8.23242H30.9855V54.4165h7.03809a9.95027,9.95027,0,0,1,6.23047,1.7207,5.85916,5.85916,0,0,1,2.21582,4.91895,6.34084,6.34084,0,0,1-2.59131,5.25391,9.75444,9.75444,0,0,1-6.47852,1.89844H34.18472Zm0-11.28955v8.78662H37.1442A7.17843,7.17843,0,0,0,41.591,64.53271a3.99408,3.99408,0,0,0,1.51953-3.3623q0-4.251-5.6626-4.25146H34.18472Z" transform="translate(0 -3.62765)"/>
    <path class="cls-1" d="M65.27066,76.44092H51.946V54.4165H64.7106v2.53076H55.14517v7.05225H64.007v2.5166H55.14517v7.4082H65.27066v2.5166Z" transform="translate(0 -3.62765)"/>
    <path class="cls-1" d="M82.37564,73.61182v2.84375H79.3688V73.61182h-0.48a9.82133,9.82133,0,0,1-6.87842-2.50977A8.06453,8.06453,0,0,1,69.25894,64.896a7.527,7.527,0,0,1,2.75928-5.96484,10.224,10.224,0,0,1,6.90234-2.36768H79.3688V53.81934h3.00684v2.74414h0.43213a10.27679,10.27679,0,0,1,6.9502,2.34619A7.54462,7.54462,0,0,1,92.4855,64.896a8.05567,8.05567,0,0,1-2.76758,6.19141,9.8246,9.8246,0,0,1-6.87842,2.52441H82.37564ZM79.3688,71.16553V58.90967h-0.416a6.357,6.357,0,0,0-4.59912,1.68457A5.76083,5.76083,0,0,0,72.6022,64.938,6.05463,6.05463,0,0,0,74.338,69.45947a6.27356,6.27356,0,0,0,4.59863,1.70605H79.3688Zm3.00684-12.25586V71.16553h0.416a6.26411,6.26411,0,0,0,4.623-1.71973A6.082,6.082,0,0,0,89.14224,64.938a5.77435,5.77435,0,0,0-1.73584-4.35742,6.3946,6.3946,0,0,0-4.63086-1.6709h-0.3999Z" transform="translate(0 -3.62765)"/>
    <path class="cls-1" d="M96.34586,65.69189a11.29,11.29,0,0,1,3.24707-8.48828q3.24756-3.15674,8.79785-3.15674a11.37944,11.37944,0,0,1,8.31787,3.08545,10.742,10.742,0,0,1,3.15137,8.0332,11.31314,11.31314,0,0,1-3.231,8.50293,11.8618,11.8618,0,0,1-8.63818,3.14258A11.63869,11.63869,0,0,1,99.529,73.7251,10.6861,10.6861,0,0,1,96.34586,65.69189Zm3.35938-.22754a8.89878,8.89878,0,0,0,2.29541,6.40527,7.89588,7.89588,0,0,0,5.99023,2.41016,8.31933,8.31933,0,0,0,6.23047-2.31055,8.84222,8.84222,0,0,0,2.26367-6.46191,9.15541,9.15541,0,0,0-2.21533-6.584,8.00193,8.00193,0,0,0-6.0708-2.31689,8.13751,8.13751,0,0,0-6.14258,2.44482A8.86767,8.86767,0,0,0,99.70523,65.46436Z" transform="translate(0 -3.62765)"/>
    <path class="cls-1" d="M128.75943,68.2085v8.23242h-3.19922V54.4165h7.03809a9.95027,9.95027,0,0,1,6.23047,1.7207,5.85916,5.85916,0,0,1,2.21582,4.91895,6.34084,6.34084,0,0,1-2.59131,5.25391,9.75444,9.75444,0,0,1-6.47852,1.89844h-3.21533Zm0-11.28955v8.78662h2.95947a7.17843,7.17843,0,0,0,4.44678-1.17285,3.99408,3.99408,0,0,0,1.51953-3.3623q0-4.251-5.6626-4.25146h-3.26318Z" transform="translate(0 -3.62765)"/>
    <path class="cls-1" d="M168.9313,76.44092V61.853q0-1.80615.23975-4.33691H169.091a12.29617,12.29617,0,0,1-.73584,2.21777l-8.17383,16.707h-1.77539l-8.1582-16.5791a13.60154,13.60154,0,0,1-.73584-2.3457h-0.0957q0.15967,1.53516.15967,4.46484v14.46h-3.05518V54.4165h4.335l7.31006,15.10059a18.27106,18.27106,0,0,1,1.104,2.70117h0.11182q0.8313-2.0332,1.168-2.75879l7.438-15.043h4.127V76.44092H168.9313Z" transform="translate(0 -3.62765)"/>
    <path class="cls-1" d="M198.91324,76.44092h-3.53516l-2.52734-6.02832H182.53336l-2.38379,6.02832h-3.53516l9.438-22.02441h3.42334Zm-7.0542-8.5166-3.74316-9.15723a9.3526,9.3526,0,0,1-.38379-1.53516H187.652a7.7504,7.7504,0,0,1-.3999,1.53516l-3.71094,9.15723H191.859Z" transform="translate(0 -3.62765)"/>
  </g>
</svg>
